<?xml version="1.0" encoding="UTF-8" standalone="no"?>
<svg
   viewBox="0 0 48 48"
   width="96px"
   height="96px"
   version="1.1"
   id="svg32"
   sodipodi:docname="icons8-instagram.svg"
   inkscape:version="1.1.1 (3bf5ae0d25, 2021-09-20, custom)"
   xmlns:inkscape="http://www.inkscape.org/namespaces/inkscape"
   xmlns:sodipodi="http://sodipodi.sourceforge.net/DTD/sodipodi-0.dtd"
   xmlns="http://www.w3.org/2000/svg"
   xmlns:svg="http://www.w3.org/2000/svg">
  <defs
     id="defs36" />
  <sodipodi:namedview
     id="namedview34"
     pagecolor="#ffffff"
     bordercolor="#666666"
     borderopacity="1.0"
     inkscape:pageshadow="2"
     inkscape:pageopacity="0.0"
     inkscape:pagecheckerboard="0"
     showgrid="false"
     inkscape:zoom="8.7083333"
     inkscape:cx="47.942584"
     inkscape:cy="47.942584"
     inkscape:window-width="1920"
     inkscape:window-height="1043"
     inkscape:window-x="1280"
     inkscape:window-y="0"
     inkscape:window-maximized="1"
     inkscape:current-layer="svg32" />
  <radialGradient
     id="yOrnnhliCrdS2gy~4tD8ma"
     cx="19.38"
     cy="42.035"
     r="44.899"
     gradientUnits="userSpaceOnUse">
    <stop
       offset="0"
       stop-color="#fd5"
       id="stop2" />
    <stop
       offset=".328"
       stop-color="#ff543f"
       id="stop4" />
    <stop
       offset=".348"
       stop-color="#fc5245"
       id="stop6" />
    <stop
       offset=".504"
       stop-color="#e64771"
       id="stop8" />
    <stop
       offset=".643"
       stop-color="#d53e91"
       id="stop10" />
    <stop
       offset=".761"
       stop-color="#cc39a4"
       id="stop12" />
    <stop
       offset=".841"
       stop-color="#c837ab"
       id="stop14" />
  </radialGradient>
  <path
     fill="url(#radialGradient1259)"
     d="M34.017,41.99l-20,0.019c-4.4,0.004-8.003-3.592-8.008-7.992l-0.019-20 c-0.004-4.4,3.592-8.003,7.992-8.008l20-0.019c4.4-0.004,8.003,3.592,8.008,7.992l0.019,20 C42.014,38.383,38.417,41.986,34.017,41.99z"
     id="path17" />
  <radialGradient
     id="yOrnnhliCrdS2gy~4tD8mb"
     cx="11.786"
     cy="5.54"
     r="29.813"
     gradientTransform="matrix(1 0 0 .6663 0 1.849)"
     gradientUnits="userSpaceOnUse">
    <stop
       offset="0"
       stop-color="#4168c9"
       id="stop19" />
    <stop
       offset=".999"
       stop-color="#4168c9"
       stop-opacity="0"
       id="stop21" />
  </radialGradient>
  <path
     fill="url(#radialGradient1223)"
     d="M34.017,41.99l-20,0.019c-4.4,0.004-8.003-3.592-8.008-7.992l-0.019-20 c-0.004-4.4,3.592-8.003,7.992-8.008l20-0.019c4.4-0.004,8.003,3.592,8.008,7.992l0.019,20 C42.014,38.383,38.417,41.986,34.017,41.99z"
     id="path24" />
  <path
     fill="#ffffff"
     d="M24,31c-3.859,0-7-3.14-7-7s3.141-7,7-7s7,3.14,7,7S27.859,31,24,31z M24,19c-2.757,0-5,2.243-5,5 s2.243,5,5,5s5-2.243,5-5S26.757,19,24,19z"
     id="path26" />
  <circle
     cx="31.5"
     cy="16.5"
     r="1.5"
     fill="#ffffff"
     id="circle28" />
  <path
     fill="#ffffff"
     d="M30,37H18c-3.859,0-7-3.14-7-7V18c0-3.86,3.141-7,7-7h12c3.859,0,7,3.14,7,7v12 C37,33.86,33.859,37,30,37z M18,13c-2.757,0-5,2.243-5,5v12c0,2.757,2.243,5,5,5h12c2.757,0,5-2.243,5-5V18c0-2.757-2.243-5-5-5H18z"
     id="path30" />
  <radialGradient
     cx="19.38"
     cy="42.035"
     r="44.899"
     gradientUnits="userSpaceOnUse"
     id="radialGradient1259">
    <stop
       offset="0"
       stop-color="#d8d8d8"
       id="stop75" />
    <stop
       offset=".328"
       stop-color="#858585"
       id="stop77" />
    <stop
       offset=".348"
       stop-color="#838383"
       id="stop79" />
    <stop
       offset=".504"
       stop-color="#7b7b7b"
       id="stop81" />
    <stop
       offset=".643"
       stop-color="#757575"
       id="stop83" />
    <stop
       offset=".761"
       stop-color="#717171"
       id="stop85" />
    <stop
       offset=".841"
       stop-color="#707070"
       id="stop87" />
  </radialGradient>
  <radialGradient
     cx="11.786"
     cy="5.54"
     r="29.813"
     gradientTransform="matrix(1 0 0 .6663 0 1.849)"
     gradientUnits="userSpaceOnUse"
     id="radialGradient1223">
    <stop
       offset="0"
       stop-color="#676767"
       id="stop90" />
    <stop
       offset=".999"
       stop-color="#676767"
       stop-opacity="0"
       id="stop92" />
  </radialGradient>
</svg>
