<svg xmlns="http://www.w3.org/2000/svg" viewBox="0 0 48 48" width="96px" height="96px"><path fill="#64717c" d="M24,18c-0.552,0-1-0.448-1-1c0-2.815,0.36-12,5-12c1.173,0,2.037,0.676,2.872,1.331C31.919,7.151,33.002,8,35,8h4c0.552,0,1,0.448,1,1s-0.448,1-1,1h-4c-2.688,0-4.233-1.211-5.362-2.095C28.922,7.344,28.46,7,28,7c-1.738,0-3,4.206-3,10C25,17.552,24.552,18,24,18z"/><radialGradient id="PTH08zocUYAZh7xvCE~aha" cx="36.257" cy="27.553" r="11.69" gradientUnits="userSpaceOnUse"><stop offset="0" stop-color="#bbc1c4"/><stop offset=".652" stop-color="#bbc1c4"/><stop offset=".74" stop-color="#c1c7c9"/><stop offset=".861" stop-color="#d3d6d8"/><stop offset="1" stop-color="#f0f0f0"/></radialGradient><circle cx="40" cy="22" r="5" fill="url(#PTH08zocUYAZh7xvCE~aha)"/><radialGradient id="PTH08zocUYAZh7xvCE~ahb" cx="36.257" cy="27.553" r="11.69" gradientTransform="matrix(-1 0 0 1 48 0)" gradientUnits="userSpaceOnUse"><stop offset="0" stop-color="#bbc1c4"/><stop offset=".652" stop-color="#bbc1c4"/><stop offset=".74" stop-color="#c1c7c9"/><stop offset=".861" stop-color="#d3d6d8"/><stop offset="1" stop-color="#f0f0f0"/></radialGradient><circle cx="8" cy="22" r="5" fill="url(#PTH08zocUYAZh7xvCE~ahb)"/><linearGradient id="PTH08zocUYAZh7xvCE~ahc" x1="24" x2="24" y1="14.955" y2="42.955" gradientUnits="userSpaceOnUse"><stop offset="0" stop-color="#f0f0f0"/><stop offset="1" stop-color="#bbc1c4"/></linearGradient><ellipse cx="24" cy="29" fill="url(#PTH08zocUYAZh7xvCE~ahc)" rx="19" ry="14"/><path fill="#d43a02" d="M30,23c-1.656-0.001-2.999,1.341-3,2.998c-0.001,1.656,1.341,2.999,2.998,3c0.001,0,0.002,0,0.002,0c1.656,0.001,2.999-1.341,3-2.998c0.001-1.656-1.341-2.999-2.998-3C30.002,23,30.001,23,30,23z"/><path fill="#d43a02" d="M18,23c-1.656-0.001-2.999,1.341-3,2.998c-0.001,1.656,1.341,2.999,2.998,3c0.001,0,0.002,0,0.002,0c1.656,0.001,2.999-1.341,3-2.998c0.001-1.656-1.341-2.999-2.998-3C18.002,23,18.001,23,18,23z"/><path fill="#64717c" d="M24.002,34.902c-3.252,0-6.14-0.745-8.002-1.902c1.024,2.044,4.196,4,8.002,4c3.802,0,6.976-1.956,7.998-4C30.143,34.157,27.254,34.902,24.002,34.902z"/><linearGradient id="PTH08zocUYAZh7xvCE~ahd" x1="36.995" x2="41.392" y1="6.995" y2="11.392" gradientUnits="userSpaceOnUse"><stop offset="0" stop-color="#f0f0f0"/><stop offset="1" stop-color="#bbc1c4"/></linearGradient><circle cx="39" cy="9" r="3" fill="url(#PTH08zocUYAZh7xvCE~ahd)"/></svg>