<svg xmlns="http://www.w3.org/2000/svg"  viewBox="0 0 48 48" width="96px" height="96px"><linearGradient id="nYMvCsU2aI2MBCA4ho~Qna" x1="24" x2="24" y1="333.541" y2="293.009" gradientTransform="matrix(1 0 0 -1 0 340)" gradientUnits="userSpaceOnUse"><stop offset="0" stop-color="#2aa4f4"/><stop offset="1" stop-color="#007ad9"/></linearGradient><path fill="url(#nYMvCsU2aI2MBCA4ho~Qna)" d="M35,42H13c-3.866,0-7-3.134-7-7V13c0-3.866,3.134-7,7-7h22c3.866,0,7,3.134,7,7v22	C42,38.866,38.866,42,35,42z"/><path fill="#fff" d="M11.946,36.554c-0.132,0-0.259-0.052-0.354-0.146c-0.109-0.109-0.162-0.263-0.143-0.416l0.25-1.984 l0.992,0.125l-0.169,1.345l1.345-0.169l0.125,0.992l-1.984,0.25C11.988,36.552,11.967,36.554,11.946,36.554z"/><path fill="#fff" d="M24,37c-0.799,0-1.603-0.075-2.388-0.224l0.186-0.982c1.247,0.235,2.541,0.267,3.796,0.101 l0.132,0.991C25.156,36.961,24.576,37,24,37z M27.743,36.45l-0.288-0.958c1.218-0.366,2.367-0.924,3.415-1.659l0.574,0.818 C30.309,35.448,29.063,36.053,27.743,36.45z M19.621,36.234c-0.402-0.145-0.8-0.311-1.185-0.494l-2.426,0.306l-0.125-0.992 l2.573-0.324c0.097-0.011,0.195,0.004,0.283,0.047c0.394,0.193,0.804,0.367,1.219,0.517L19.621,36.234z M33.036,33.339 l-0.695-0.719c0.919-0.89,1.687-1.912,2.28-3.038l0.885,0.467C34.862,31.269,34.031,32.376,33.036,33.339z M12.941,32.161 l-0.992-0.125l0.312-2.472c-0.176-0.37-0.337-0.753-0.478-1.14l0.939-0.343c0.146,0.401,0.315,0.797,0.502,1.178 c0.043,0.088,0.06,0.186,0.047,0.283L12.941,32.161z M36.32,28.152l-0.947-0.32c0.407-1.204,0.618-2.464,0.627-3.745l1,0.007 C36.99,25.481,36.761,26.847,36.32,28.152z M11.232,26.435C11.078,25.635,11,24.815,11,24c0-0.563,0.037-1.128,0.108-1.679 L12.1,22.45C12.034,22.958,12,23.48,12,24c0,0.752,0.072,1.508,0.214,2.246L11.232,26.435z M35.864,22.187 c-0.192-1.26-0.583-2.476-1.162-3.613l0.891-0.454c0.628,1.233,1.052,2.551,1.26,3.917L35.864,22.187z M12.494,20.587l-0.959-0.285 c0.393-1.322,0.994-2.569,1.785-3.708l0.821,0.571C13.411,18.216,12.856,19.367,12.494,20.587z M33.706,16.95 c-0.752-1.032-1.658-1.934-2.692-2.681l0.586-0.811c1.119,0.809,2.1,1.786,2.914,2.903L33.706,16.95z M15.35,15.691l-0.722-0.692 c0.958-0.998,2.062-1.833,3.28-2.482l0.471,0.883C17.253,13.999,16.234,14.77,15.35,15.691z M29.385,13.277 c-1.14-0.575-2.357-0.961-3.619-1.148l0.146-0.989c1.368,0.203,2.688,0.622,3.922,1.245L29.385,13.277z M20.125,12.643L19.8,11.696 c1.304-0.446,2.668-0.68,4.055-0.695l0.011,1C22.586,12.015,21.327,12.231,20.125,12.643z"/><g><path d="M24,14c5.523,0,10,4.477,10,10s-4.477,10-10,10c-1.901,0-3.671-0.54-5.185-1.461l-3.906,0.552l0.552-3.906 C14.54,27.671,14,25.901,14,24C14,18.477,18.477,14,24,14 M24,13c-6.065,0-11,4.935-11,11c0,1.884,0.491,3.739,1.422,5.39 l-0.503,3.561l-0.186,1.316l1.316-0.186l3.561-0.503C20.261,34.509,22.116,35,24,35c6.065,0,11-4.935,11-11S30.065,13,24,13L24,13 z" opacity=".05"/><path d="M24,14c5.523,0,10,4.477,10,10s-4.477,10-10,10c-1.901,0-3.671-0.54-5.185-1.461l-3.906,0.552l0.552-3.906 C14.54,27.671,14,25.901,14,24C14,18.477,18.477,14,24,14 M24,13.5c-5.79,0-10.5,4.71-10.5,10.5c0,1.853,0.498,3.678,1.441,5.289 l-0.527,3.732l-0.093,0.658l0.658-0.093l3.732-0.527C20.322,34.002,22.147,34.5,24,34.5c5.79,0,10.5-4.71,10.5-10.5 S29.79,13.5,24,13.5L24,13.5z" opacity=".07"/><path fill="#fff" d="M24,14c-5.523,0-10,4.477-10,10c0,1.901,0.54,3.671,1.461,5.185l-0.552,3.906l3.906-0.552 C20.329,33.46,22.099,34,24,34c5.523,0,10-4.477,10-10S29.523,14,24,14z"/></g></svg>