<?xml version="1.0" encoding="UTF-8"?>
<svg width="24px" height="24px" viewBox="0 0 24 24" version="1.1" xmlns="http://www.w3.org/2000/svg" xmlns:xlink="http://www.w3.org/1999/xlink">
    <!-- Generator: Sketch 51.2 (57519) - http://www.bohemiancoding.com/sketch -->
    <title>1217</title>
    <desc>Created with Sketch.</desc>
    <defs></defs>
    <g id="Symbols" stroke="none" stroke-width="1" fill="none" fill-rule="evenodd">
        <g id="Tabs" transform="translate(-316.000000, -11.000000)" fill="#000000">
            <g id="Group-7">
                <g id="Group-6">
                    <g id="1217" transform="translate(316.000000, 11.000000)">
                        <g id="Layer_1">
                            <g id="Group">
                                <path d="M9.5685,1.302 L9.5685,9.7725 L1.0975,9.7725 L1.0975,1.302 L9.5685,1.302 L9.5685,1.302 Z M10.667,0.2035 L0,0.2035 L0,10.8705 L10.667,10.8705 L10.667,0.2035 L10.667,0.2035 Z" id="Shape"></path>
                                <path d="M22.9025,1.302 L22.9025,9.7725 L14.4305,9.7725 L14.4305,1.302 L22.9025,1.302 L22.9025,1.302 Z M24,0.2035 L13.333,0.2035 L13.333,10.8705 L24,10.8705 L24,0.2035 L24,0.2035 Z" id="Shape"></path>
                                <path d="M9.5685,14.228 L9.5685,22.6985 L1.0975,22.6985 L1.0975,14.228 L9.5685,14.228 L9.5685,14.228 Z M10.667,13.1295 L0,13.1295 L0,23.7965 L10.667,23.7965 L10.667,13.1295 L10.667,13.1295 Z" id="Shape"></path>
                                <path d="M22.9025,14.228 L22.9025,22.6985 L14.4305,22.6985 L14.4305,14.228 L22.9025,14.228 L22.9025,14.228 Z M24,13.1295 L13.333,13.1295 L13.333,23.7965 L24,23.7965 L24,13.1295 L24,13.1295 Z" id="Shape"></path>
                            </g>
                        </g>
                    </g>
                </g>
            </g>
        </g>
    </g>
</svg>