<?xml version="1.0" encoding="UTF-8"?>
<svg width="24px" height="24px" viewBox="0 0 24 24" version="1.1" xmlns="http://www.w3.org/2000/svg" xmlns:xlink="http://www.w3.org/1999/xlink">
    <!-- Generator: Sketch 51.2 (57519) - http://www.bohemiancoding.com/sketch -->
    <title>Shape</title>
    <desc>Created with Sketch.</desc>
    <defs></defs>
    <g id="Symbols" stroke="none" stroke-width="1" fill="none" fill-rule="evenodd">
        <g id="Tabs" transform="translate(-178.000000, -11.000000)" fill="#000000" fill-rule="nonzero">
            <g id="Group-7">
                <g id="Group-6">
                    <path d="M190,11 C183.363825,11 178,16.3887734 178,23 C178,29.6112266 183.388773,35 190,35 C196.611227,35 202,29.6112266 202,23 C202,16.3887734 196.636175,11 190,11 Z M190,12.1226611 C196.012474,12.1226611 200.877339,16.987526 200.877339,23 C200.877339,24.5218295 200.553015,25.968815 200.004158,27.2661123 C200.004158,26.3430353 199.555094,25.5197505 198.856549,25.02079 C199.555094,24.5218295 200.004158,23.6985447 200.004158,22.7754678 L200.004158,22.7505198 C200.004158,21.2286902 198.806653,19.981289 197.160083,19.981289 C195.513514,19.981289 194.29106,21.2536383 194.29106,22.7754678 L194.29106,22.8004158 C194.29106,23.7234927 194.740125,24.5218295 195.438669,25.045738 C194.740125,25.5446985 194.29106,26.3679834 194.29106,27.2910603 L194.29106,33.004158 C194.091476,33.0790021 193.891892,33.1787942 193.692308,33.2536383 L193.692308,29.4365904 L193.692308,26.6923077 L193.692308,26.6673597 C193.692308,25.3700624 193.068607,24.2474012 192.02079,23.5987526 C193.043659,22.950104 193.692308,21.8024948 193.692308,20.5051975 L193.692308,20.4802495 C193.692308,18.4844075 192.170478,16.8378378 190,16.8378378 C187.829522,16.8378378 186.282744,18.5093555 186.282744,20.5051975 L186.282744,20.5301455 C186.282744,21.8274428 186.906445,22.950104 187.954262,23.5987526 C186.931393,24.2474012 186.282744,25.3950104 186.282744,26.6923077 L186.282744,33.2536383 C186.08316,33.1787942 185.883576,33.1039501 185.70894,33.029106 L185.70894,27.3160083 C185.70894,26.3929314 185.259875,25.5696466 184.561331,25.0706861 C185.259875,24.5717256 185.70894,23.7484407 185.70894,22.8253638 L185.70894,22.8004158 C185.70894,21.2785863 184.486486,20.006237 182.839917,20.006237 C181.193347,20.006237 179.995842,21.2536383 179.995842,22.7754678 L179.995842,22.8004158 C179.995842,23.7234927 180.444906,24.5218295 181.143451,25.045738 C180.444906,25.5446985 179.995842,26.3679834 179.995842,27.2910603 C179.422037,25.968815 179.122661,24.5218295 179.122661,23.024948 C179.122661,16.987526 183.987526,12.1226611 190,12.1226611 Z M197.160083,24.4968815 C197.135135,24.4968815 197.110187,24.4968815 197.085239,24.4968815 C196.162162,24.4469854 195.538462,23.6985447 195.538462,22.7754678 L195.538462,22.7505198 C195.538462,21.8274428 196.162162,21.0540541 197.160083,21.0540541 C198.133056,21.0540541 198.806653,21.8274428 198.806653,22.7754678 L198.806653,22.8004158 C198.806653,23.6985447 198.2079,24.4469854 197.259875,24.4968815 C197.209979,24.4968815 197.185031,24.4968815 197.160083,24.4968815 Z M187.60499,20.4802495 C187.60499,19.0831601 188.577963,17.960499 190,17.960499 C191.422037,17.960499 192.419958,19.1081081 192.419958,20.4802495 L192.419958,20.5051975 C192.419958,21.8773389 191.446985,23 190.024948,23 C188.602911,23 187.60499,21.8773389 187.60499,20.4802495 Z M182.839917,24.4968815 C182.814969,24.4968815 182.790021,24.4968815 182.765073,24.4968815 C181.817048,24.4469854 181.218295,23.6985447 181.218295,22.8004158 L181.218295,22.7754678 C181.218295,21.8274428 181.891892,21.0540541 182.864865,21.0540541 C183.837838,21.0540541 184.486486,21.8274428 184.486486,22.7505198 L184.486486,22.7754678 C184.486486,23.6735967 183.837838,24.4469854 182.939709,24.4968815 C182.889813,24.4968815 182.864865,24.4968815 182.839917,24.4968815 Z M181.218295,29.4365904 L181.218295,27.2910603 C181.218295,26.3679834 181.866944,25.6195426 182.790021,25.5696466 C182.814969,25.5696466 182.839917,25.5696466 182.864865,25.5696466 C182.889813,25.5696466 182.914761,25.5696466 182.939709,25.5696466 C183.887734,25.6195426 184.461538,26.3679834 184.461538,27.2661123 L184.461538,27.2910603 L184.461538,32.3804574 C183.214137,31.6320166 182.091476,30.6340956 181.218295,29.4365904 Z M187.60499,33.6278586 L187.60499,26.6923077 L187.60499,26.6673597 C187.60499,25.3201663 188.553015,24.2224532 189.900208,24.1725572 C189.925156,24.1725572 189.975052,24.1725572 190,24.1725572 C190.024948,24.1725572 190.074844,24.1725572 190.099792,24.1725572 C191.446985,24.2224532 192.419958,25.3451143 192.419958,26.6923077 L192.419958,29.4365904 L192.419958,33.6278586 C191.64657,33.8024948 190.848233,33.9022869 190.024948,33.9022869 C189.176715,33.9022869 188.378378,33.8024948 187.60499,33.6278586 Z M195.538462,32.3804574 L195.538462,27.2910603 L195.538462,27.2661123 C195.538462,26.3679834 196.137214,25.5945946 197.060291,25.5696466 C197.085239,25.5696466 197.110187,25.5696466 197.135135,25.5696466 C197.160083,25.5696466 197.185031,25.5696466 197.209979,25.5696466 C198.133056,25.6195426 198.781705,26.3679834 198.781705,27.2910603 L198.781705,29.4365904 C197.908524,30.6340956 196.810811,31.6320166 195.538462,32.3804574 Z" id="Shape"></path>
                </g>
            </g>
        </g>
    </g>
</svg>