<svg xmlns="http://www.w3.org/2000/svg" width="24" height="24" viewBox="0 0 24 24">
    <g fill="#000" fill-rule="evenodd">
        <path d="M11.756.98c.69 0 1.332.231 1.807.652l8.495 7.539c.189.167.308.306.38.407-.131.033-.331.062-.615.062h-2.107v12.89H3.796V9.64h-2.11c-.283 0-.483-.03-.613-.062.071-.1.19-.24.378-.407L9.95 1.632c.473-.42 1.115-.652 1.806-.652zm0-.98c-.891 0-1.782.3-2.457.9L.802 8.437c-1.352 1.2-.953 2.182.885 2.182h1.13v12.89h17.88V10.62h1.127c1.839 0 2.236-.982.886-2.182L14.213.9C13.537.3 12.647 0 11.756 0z"/>
        <path d="M14.723 13.134v9.397H8.788v-9.397h5.935zm.49-.98H8.298c-.27 0-.49.221-.49.49V23.02c0 .27.22.49.49.49h6.915c.27 0 .49-.22.49-.49V12.645c0-.27-.221-.49-.49-.49z"/>
    </g>
</svg>
