<svg xmlns="http://www.w3.org/2000/svg" width="24" height="27" viewBox="0 0 24 27">
    <g fill="#000" fill-rule="evenodd">
        <path d="M11.854 24.412c-5.177 0-9.778-.986-11.189-2.398a.556.556 0 0 1 .533-.93c.483-.746 1.174-3.918 1.174-6.845 0-3.358 1.14-5.173 1.362-5.496 1.472-3.012 4.719-4.881 8.489-4.881 3.77 0 7.016 1.869 8.487 4.88.223.324 1.364 2.139 1.364 5.496 0 2.928.691 6.1 1.174 6.845.33-.085.695.183.694.538a.556.556 0 0 1-.163.394h-.001c-1.347 1.344-6.585 2.397-11.924 2.397zm-9.759-2.736c1.619.858 5.308 1.625 9.759 1.625 4.547 0 8.714-.791 10.458-1.631-.263-.43-.532-1.157-.795-2.366a25.258 25.258 0 0 1-.554-5.065c0-3.276-1.165-4.862-1.176-4.878a.548.548 0 0 1-.058-.093c-1.273-2.65-4.15-4.295-7.506-4.295-3.357 0-6.234 1.646-7.508 4.295a.583.583 0 0 1-.057.093c-.01.013-1.175 1.636-1.175 4.878 0 1.437-.351 5.83-1.388 7.437z"/>
        <path d="M12.222 4.973a2.49 2.49 0 0 1-2.486-2.486A2.49 2.49 0 0 1 12.222 0a2.49 2.49 0 0 1 2.487 2.487 2.49 2.49 0 0 1-2.487 2.486zm0-3.862c-.758 0-1.375.617-1.375 1.376 0 .758.617 1.375 1.375 1.375.759 0 1.376-.617 1.376-1.375 0-.759-.617-1.376-1.376-1.376zM12.222 26.667a2.814 2.814 0 0 1-2.81-2.81h1.11a1.701 1.701 0 0 0 3.4 0h1.112c0 1.549-1.262 2.81-2.812 2.81z"/>
    </g>
</svg>
