<svg
  width="28"
  height="28"
  viewBox="0 0 28 28"
  fill="none"
  xmlns="http://www.w3.org/2000/svg"
>
<path
    d="M9.33333 11.6666H5.83333V8.16665H3.5V11.6666H0V14H3.5V17.5H5.83333V14H9.33333V11.6666ZM21 12.8333C22.9367 12.8333 24.4883 11.27 24.4883 9.33331C24.4883 7.39665 22.9367 5.83331 21 5.83331C20.6267 5.83331 20.265 5.89165 19.9383 5.99665C20.6033 6.94165 20.9883 8.08498 20.9883 9.33331C20.9883 10.5816 20.5917 11.7133 19.9383 12.67C20.265 12.775 20.6267 12.8333 21 12.8333ZM15.1667 12.8333C17.1033 12.8333 18.655 11.27 18.655 9.33331C18.655 7.39665 17.1033 5.83331 15.1667 5.83331C13.23 5.83331 11.6667 7.39665 11.6667 9.33331C11.6667 11.27 13.23 12.8333 15.1667 12.8333ZM22.89 15.3533C23.8583 16.205 24.5 17.29 24.5 18.6666V21H28V18.6666C28 16.87 25.235 15.7616 22.89 15.3533ZM15.1667 15.1666C12.8333 15.1666 8.16667 16.3333 8.16667 18.6666V21H22.1667V18.6666C22.1667 16.3333 17.5 15.1666 15.1667 15.1666Z"
    fill="black"
  />
</svg>
