<?xml version="1.0" encoding="UTF-8"?>
<svg width="48px" height="40px" viewBox="0 0 48 40" version="1.1" xmlns="http://www.w3.org/2000/svg" xmlns:xlink="http://www.w3.org/1999/xlink">
    <!-- Generator: Sketch 51.2 (57519) - http://www.bohemiancoding.com/sketch -->
    <title>Group 3</title>
    <desc>Created with Sketch.</desc>
    <defs></defs>
    <g id="Current-designs" stroke="none" stroke-width="1" fill="none" fill-rule="evenodd">
        <g id="Sign-Up" transform="translate(-157.000000, -204.000000)" fill="#979797">
            <g id="Group-2" transform="translate(141.000000, 166.000000)">
                <g id="095" transform="translate(16.000000, 38.000000)">
                    <g id="Layer_1">
                        <g id="Group">
                            <g id="Group-3">
                                <path d="M40.813,39.195 L7.186,39.195 C3.224,39.195 0,35.971 0,32.008 L0,13.124 C0,9.161 3.224,5.937 7.186,5.937 L28.324,5.937 L28.324,1.806 C28.324,1.254 28.771,0.806 29.324,0.806 L38.443,0.806 C38.996,0.806 39.443,1.254 39.443,1.806 L39.443,5.937 L40.812,5.937 C44.775,5.937 48,9.161 48,13.124 L48,32.008 C48,35.971 44.775,39.195 40.813,39.195 Z M7.186,7.937 C4.327,7.937 2,10.264 2,13.124 L2,32.008 C2,34.868 4.327,37.196 7.186,37.196 L40.812,37.196 C43.672,37.196 46,34.869 46,32.008 L46,13.124 C46,10.264 43.673,7.937 40.812,7.937 L38.443,7.937 C37.89,7.937 37.443,7.489 37.443,6.937 L37.443,2.806 L30.324,2.806 L30.324,6.937 C30.324,7.489 29.877,7.937 29.324,7.937 L7.186,7.937 L7.186,7.937 Z" id="Shape"></path>
                                <path d="M28.064,34.094 C21.537,34.094 16.227,28.784 16.227,22.259 C16.227,15.734 21.537,10.425 28.064,10.425 C34.588,10.425 39.896,15.734 39.896,22.259 C39.896,28.784 34.589,34.094 28.064,34.094 Z M28.064,12.425 C22.64,12.425 18.227,16.837 18.227,22.259 C18.227,27.682 22.64,32.094 28.064,32.094 C33.486,32.094 37.896,27.682 37.896,22.259 C37.896,16.836 33.486,12.425 28.064,12.425 Z" id="Shape"></path>
                                <path d="M9.102,32.241 C8.55,32.241 8.102,31.794 8.102,31.241 L8.102,13.278 C8.102,12.726 8.55,12.278 9.102,12.278 C9.654,12.278 10.102,12.726 10.102,13.278 L10.102,31.241 C10.102,31.794 9.654,32.241 9.102,32.241 Z" id="Shape"></path>
                            </g>
                        </g>
                    </g>
                </g>
            </g>
        </g>
    </g>
</svg>