<svg width="33" height="30" viewBox="0 0 33 30" fill="none" xmlns="http://www.w3.org/2000/svg">
<path d="M16.5 19C18.9301 19 20.9 17.2091 20.9 15C20.9 12.7909 18.9301 11 16.5 11C14.07 11 12.1 12.7909 12.1 15C12.1 17.2091 14.07 19 16.5 19Z" fill="white"/>
<path d="M12.375 2.5L9.85875 5H5.5C3.9875 5 2.75 6.125 2.75 7.5V22.5C2.75 23.875 3.9875 25 5.5 25H27.5C29.0125 25 30.25 23.875 30.25 22.5V7.5C30.25 6.125 29.0125 5 27.5 5H23.1413L20.625 2.5H12.375ZM16.5 21.25C12.705 21.25 9.625 18.45 9.625 15C9.625 11.55 12.705 8.75 16.5 8.75C20.295 8.75 23.375 11.55 23.375 15C23.375 18.45 20.295 21.25 16.5 21.25Z" fill="white"/>
</svg>
