<svg width="38" height="38" viewBox="0 0 38 38" fill="none" xmlns="http://www.w3.org/2000/svg">
<circle cx="19" cy="19" r="19" fill="#E5E5E5"/>
<mask id="mask0" mask-type="alpha" maskUnits="userSpaceOnUse" x="0" y="0" width="38" height="38">
<circle cx="19" cy="19" r="19" fill="#E5E5E5"/>
</mask>
<g mask="url(#mask0)">
<circle cx="19.0001" cy="16.4667" r="5.48889" fill="#C4C4C4"/>
<circle cx="29.5557" cy="17.7333" r="4.22222" fill="#C4C4C4"/>
<circle r="4.22222" transform="matrix(-1 0 0 1 9.11982 17.7333)" fill="#C4C4C4"/>
<path fill-rule="evenodd" clip-rule="evenodd" d="M31.1055 32.0889H7.73914C7.6476 31.6852 7.6001 31.2715 7.6001 30.8504C7.6001 26.4043 12.8931 22.8 19.4223 22.8C25.9385 22.8 31.2235 26.3899 31.2445 30.8238V30.8769C31.2425 31.2889 31.1951 31.6936 31.1055 32.0889Z" fill="#C4C4C4"/>
<path fill-rule="evenodd" clip-rule="evenodd" d="M33.3605 30.4H39.4087C39.4819 30.077 39.5199 29.7461 39.5199 29.4092C39.5199 25.8523 35.2855 22.9689 30.0621 22.9689C29.3865 22.9689 28.7273 23.0171 28.0918 23.1088C31.1473 23.7261 33.44 26.3124 33.44 29.4092C33.44 29.7461 33.4128 30.077 33.3605 30.4Z" fill="#C4C4C4"/>
<path fill-rule="evenodd" clip-rule="evenodd" d="M5.31483 30.4H-0.732868C-0.806105 30.077 -0.844103 29.7461 -0.844103 29.4092C-0.844103 25.8523 3.39029 22.9689 8.61367 22.9689C9.28925 22.9689 9.94828 23.0171 10.5837 23.1088C7.53866 23.7239 5.25113 26.2946 5.23546 29.3773V29.4411C5.23711 29.767 5.26417 30.0872 5.31483 30.4Z" fill="#C4C4C4"/>
</g>
</svg>
