<svg width="18" height="22" viewBox="0 0 18 22" fill="none" xmlns="http://www.w3.org/2000/svg">
<path d="M11.4896 10.4896C14.3862 10.4896 16.7344 8.14142 16.7344 5.2448C16.7344 2.34818 14.3862 0 11.4896 0C8.59299 0 6.24481 2.34818 6.24481 5.2448C6.24481 8.14142 8.59299 10.4896 11.4896 10.4896Z" fill="black"/>
<path fill-rule="evenodd" clip-rule="evenodd" d="M9.29993 11.9713C7.50358 13.1907 6.24483 14.8428 6.24483 17.0456V20.9792H1.00003V17.0456C1.00003 14.1872 5.68102 12.4958 9.29993 11.9713Z" fill="black"/>
<path d="M3.0979 6.99307V11.1889" stroke="#ED7A5D" stroke-width="2" stroke-linecap="round" stroke-linejoin="round"/>
<path d="M1 9.09097H5.19584" stroke="#ED7A5D" stroke-width="2" stroke-linecap="round" stroke-linejoin="round"/>
<circle cx="12.0009" cy="16.6029" r="2.92964" transform="rotate(-1.09823 12.0009 16.6029)" stroke="#ED7A5D" stroke-width="2"/>
<path d="M14.4035 18.9151L16.4056 20.8419" stroke="#ED7A5D" stroke-width="2" stroke-linecap="round"/>
</svg>
