<svg width="27" height="15" viewBox="0 0 27 15" fill="none" xmlns="http://www.w3.org/2000/svg">
<path fill-rule="evenodd" clip-rule="evenodd" d="M20.6249 8.55937C21.9093 9.43125 22.8093 10.6125 22.8093 12.1875V15H26.5593V12.1875C26.5593 10.1437 23.2124 8.93437 20.6249 8.55937Z" fill="#ED7A5D"/>
<path d="M13.4343 7.5C15.5054 7.5 17.1843 5.82107 17.1843 3.75C17.1843 1.67893 15.5054 0 13.4343 0C11.3633 0 9.68433 1.67893 9.68433 3.75C9.68433 5.82107 11.3633 7.5 13.4343 7.5Z" fill="black"/>
<path fill-rule="evenodd" clip-rule="evenodd" d="M19.0593 7.5C21.1312 7.5 22.8093 5.82187 22.8093 3.75C22.8093 1.67812 21.1312 0 19.0593 0C18.6187 0 18.2062 0.0937498 17.8124 0.225C18.5906 1.19062 19.0593 2.41875 19.0593 3.75C19.0593 5.08125 18.5906 6.30937 17.8124 7.275C18.2062 7.40625 18.6187 7.5 19.0593 7.5Z" fill="#ED7A5D"/>
<path fill-rule="evenodd" clip-rule="evenodd" d="M5.93439 8.55937C4.65001 9.43125 3.75001 10.6125 3.75001 12.1875V15H1.37877e-05V12.1875C1.37877e-05 10.1437 3.34689 8.93437 5.93439 8.55937Z" fill="#ED7A5D"/>
<path fill-rule="evenodd" clip-rule="evenodd" d="M7.50001 7.5C5.42814 7.5 3.75001 5.82187 3.75001 3.75C3.75001 1.67812 5.42814 0 7.50001 0C7.94064 0 8.35314 0.0937498 8.74689 0.225C7.96876 1.19062 7.50001 2.41875 7.50001 3.75C7.50001 5.08125 7.96876 6.30937 8.74689 7.275C8.35314 7.40625 7.94064 7.5 7.50001 7.5Z" fill="#ED7A5D"/>
<path fill-rule="evenodd" clip-rule="evenodd" d="M13.4343 8.4375C10.9312 8.4375 5.93433 9.69375 5.93433 12.1875V15H20.9343V12.1875C20.9343 9.69375 15.9374 8.4375 13.4343 8.4375Z" fill="black"/>
</svg>
