<?xml version="1.0" encoding="UTF-8"?>
<svg width="24px" height="24px" viewBox="0 0 24 24" version="1.1" xmlns="http://www.w3.org/2000/svg" xmlns:xlink="http://www.w3.org/1999/xlink">
    <!-- Generator: Sketch 51.2 (57519) - http://www.bohemiancoding.com/sketch -->
    <title>002</title>
    <desc>Created with Sketch.</desc>
    <defs></defs>
    <g id="Symbols" stroke="none" stroke-width="1" fill="none" fill-rule="evenodd">
        <g id="Tabs" transform="translate(-20.000000, -11.000000)" fill="#000000">
            <g id="Group-7">
                <g id="Group-6">
                    <g id="002" transform="translate(20.000000, 11.000000)">
                        <g id="Layer_1">
                            <g id="Group">
                                <path d="M11.7555918,0.979591837 C12.4466939,0.979591837 13.0883265,1.21126531 13.5629388,1.6324898 L22.058449,9.17093878 C22.2470204,9.33844898 22.365551,9.47706122 22.4370612,9.57844898 C22.3067755,9.61077551 22.1069388,9.64016327 21.8233469,9.64016327 L20.6958367,9.64016327 L19.7162449,9.64016327 L19.7162449,10.6197551 L19.7162449,22.5306122 L3.79542857,22.5306122 L3.79542857,10.6197551 L3.79542857,9.64016327 L2.81583673,9.64016327 L1.68685714,9.64016327 C1.40277551,9.64016327 1.20293878,9.61077551 1.07265306,9.57844898 C1.14416327,9.47706122 1.26318367,9.33844898 1.45126531,9.17142857 L9.94971429,1.632 C10.4233469,1.21126531 11.0649796,0.979591837 11.7555918,0.979591837 L11.7555918,0.979591837 Z M11.7555918,0 C10.8646531,0 9.97420408,0.299755102 9.29926531,0.899265306 L0.801795918,8.43820408 C-0.54955102,9.63771429 -0.150857143,10.6197551 1.68734694,10.6197551 L2.81632653,10.6197551 L2.81632653,23.5102041 L20.6968163,23.5102041 L20.6968163,10.6197551 L21.8243265,10.6197551 C23.6625306,10.6197551 24.0597551,9.63771429 22.7098776,8.43820408 L14.2133878,0.899265306 C13.5374694,0.299755102 12.6465306,0 11.7555918,0 L11.7555918,0 Z" id="Shape"></path>
                                <path d="M14.7232653,13.1343673 L14.7232653,22.5306122 L8.78791837,22.5306122 L8.78791837,13.1343673 L14.7232653,13.1343673 L14.7232653,13.1343673 Z M15.2130612,12.1547755 L8.29812245,12.1547755 C8.02873469,12.1547755 7.80832653,12.3751837 7.80832653,12.6445714 L7.80832653,23.0204082 C7.80832653,23.2897959 8.02873469,23.5102041 8.29812245,23.5102041 L15.2130612,23.5102041 C15.482449,23.5102041 15.7028571,23.2897959 15.7028571,23.0204082 L15.7028571,12.6445714 C15.7028571,12.3756735 15.4819592,12.1547755 15.2130612,12.1547755 L15.2130612,12.1547755 Z" id="Shape"></path>
                            </g>
                        </g>
                    </g>
                </g>
            </g>
        </g>
    </g>
</svg>