<?xml version="1.0" encoding="UTF-8"?>
<svg width="24px" height="27px" viewBox="0 0 24 27" version="1.1" xmlns="http://www.w3.org/2000/svg" xmlns:xlink="http://www.w3.org/1999/xlink">
    <!-- Generator: Sketch 51.2 (57519) - http://www.bohemiancoding.com/sketch -->
    <title>761 copy 2</title>
    <desc>Created with Sketch.</desc>
    <defs></defs>
    <g id="Symbols" stroke="none" stroke-width="1" fill="none" fill-rule="evenodd">
        <g id="Tabs" transform="translate(-247.000000, -9.000000)" fill="#000000">
            <g id="Group-7">
                <g id="Group-6">
                    <g id="761-copy-2" transform="translate(247.000000, 9.000000)">
                        <g id="Layer_1">
                            <g id="Group">
                                <path d="M11.8538889,24.4116667 C6.67722222,24.4116667 2.07611111,23.4255556 0.665,22.0138889 L0.665,22.0138889 C0.448333333,21.7966667 0.448333333,21.445 0.665,21.2283333 C0.809444444,21.0838889 1.01222222,21.035 1.19777778,21.0833333 C1.68111111,20.3377778 2.37166667,17.1655556 2.37166667,14.2388889 C2.37166667,10.8805556 3.51166667,9.06555556 3.73444444,8.74277778 C5.20555556,5.73055556 8.45277778,3.86166667 12.2227778,3.86166667 C15.9922222,3.86166667 19.2394444,5.73055556 20.71,8.74222222 C20.9333333,9.06555556 22.0744444,10.8805556 22.0744444,14.2383333 C22.0744444,17.1655556 22.765,20.3377778 23.2477778,21.0827778 C23.5783333,20.9977778 23.9427778,21.2661111 23.9422222,21.6211111 C23.9422222,21.7744444 23.88,21.9138889 23.7788889,22.015 L23.7788889,22.015 L23.7783333,22.015 L23.7777778,22.0155556 C22.4305556,23.3594444 17.1933333,24.4116667 11.8538889,24.4116667 Z M2.095,21.6755556 C3.71388889,22.5338889 7.40333333,23.3011111 11.8538889,23.3011111 C16.4011111,23.3011111 20.5677778,22.51 22.3122222,21.67 C22.0488889,21.2394444 21.78,20.5133333 21.5166667,19.3044444 C21.17,17.7133333 20.9633333,15.82 20.9633333,14.2388889 C20.9633333,10.9627778 19.7977778,9.37666667 19.7866667,9.36055556 C19.7644444,9.33166667 19.7455556,9.30055556 19.7294444,9.26777778 C18.4555556,6.61888889 15.5788889,4.97333333 12.2227778,4.97333333 C8.86611111,4.97333333 5.98888889,6.61888889 4.715,9.26777778 C4.69888889,9.30055556 4.68,9.33166667 4.65833333,9.36055556 C4.64833333,9.37388889 3.48277778,10.9972222 3.48277778,14.2388889 C3.48277778,15.6761111 3.13166667,20.0683333 2.095,21.6755556 Z" id="Shape"></path>
                                <path d="M12.2222222,4.97333333 C10.8511111,4.97333333 9.73555556,3.85777778 9.73555556,2.48666667 C9.73555556,1.11555556 10.8511111,0 12.2222222,0 C13.5938889,0 14.7094444,1.11555556 14.7094444,2.48666667 C14.7094444,3.85777778 13.5938889,4.97333333 12.2222222,4.97333333 Z M12.2222222,1.11111111 C11.4638889,1.11111111 10.8466667,1.72833333 10.8466667,2.48666667 C10.8466667,3.245 11.4638889,3.86222222 12.2222222,3.86222222 C12.9805556,3.86222222 13.5983333,3.245 13.5983333,2.48666667 C13.5983333,1.72833333 12.9805556,1.11111111 12.2222222,1.11111111 Z" id="Shape"></path>
                                <path d="M12.2222222,26.6666667 C10.6722222,26.6666667 9.41166667,25.4055556 9.41166667,23.8561111 L10.5227778,23.8561111 C10.5227778,24.7933333 11.285,25.5555556 12.2222222,25.5555556 C13.16,25.5555556 13.9227778,24.7933333 13.9227778,23.8561111 L15.0338889,23.8561111 C15.0338889,25.4055556 13.7722222,26.6666667 12.2222222,26.6666667 Z" id="Shape"></path>
                            </g>
                        </g>
                    </g>
                </g>
            </g>
        </g>
    </g>
</svg>