<svg xmlns="http://www.w3.org/2000/svg" width="44" height="18" viewBox="0 0 44 18">
    <g fill="#000" fill-rule="nonzero">
        <path d="M15.78 18H3.157C1.641 18 0 16.64 0 14.763c0-1.166 1.894-2.331 2.272-2.526l4.735-1.877c.252-.065.378-.065.378-.389C6.88 9.324 5.24 7.187 5.24 5.374 5.24 2.396 7.196 0 9.658 0c2.398 0 4.418 2.396 4.418 5.374 0 1.878-1.704 4.014-2.209 4.662 0 .388 0 .388.253.453l4.734 1.878.252.194c1.073.777 1.894 1.49 1.894 2.266v.13c-.252.971-1.136 3.043-3.22 3.043zm-8.458-6.41l-4.608 1.878c-.505.194-1.388 1.036-1.452 1.295 0 1.036 1.074 1.942 1.894 1.942h12.625c1.325 0 1.767-1.554 1.893-1.942-.126-.26-1.01-.907-1.325-1.166l-.19-.13-4.481-1.748c-1.073-.388-1.136-1.165-1.073-2.007v-.194l.126-.13c.568-.647 2.02-2.59 2.02-3.95 0-2.2-1.452-4.078-3.156-4.078-1.705 0-3.156 1.877-3.156 4.079 0 1.36 1.388 3.302 1.956 3.95l.127.194v.194c.126.906-.253 1.554-1.2 1.813zM40.78 18H28.157C26.641 18 25 16.64 25 14.763c0-1.166 1.894-2.331 2.272-2.526l4.735-1.877c.252-.065.378-.065.378-.389-.505-.647-2.146-2.784-2.146-4.597C30.24 2.396 32.196 0 34.658 0c2.398 0 4.418 2.396 4.418 5.374 0 1.878-1.704 4.014-2.209 4.662 0 .388 0 .388.253.453l4.734 1.878.252.194c1.073.777 1.894 1.49 1.894 2.266v.13c-.252.971-1.136 3.043-3.22 3.043zm-8.458-6.41l-4.608 1.878c-.568.259-1.452 1.036-1.515 1.36 0 1.035 1.073 1.942 1.894 1.942h12.625c1.325 0 1.767-1.554 1.893-1.943-.126-.259-1.01-.906-1.325-1.165l-.19-.13-4.481-1.748c-1.073-.388-1.137-1.165-1.073-2.007v-.194l.126-.13c.568-.647 2.02-2.59 2.02-3.95 0-2.2-1.452-4.079-3.156-4.079-1.705 0-3.157 1.878-3.157 4.08 0 1.36 1.39 3.302 1.957 3.95l.126.193v.195c.19.841-.189 1.489-1.136 1.748zM18.25 7.4H27v1.2h-8.75z"/>
        <path d="M20.313 10.82L17.375 8l2.938-2.82.875.84L19.125 8l2.063 1.98z"/>
    </g>
</svg>
