<svg xmlns="http://www.w3.org/2000/svg" width="24" height="24" viewBox="0 0 24 24">
    <path fill="#000" fill-rule="nonzero" d="M12 0C5.364 0 0 5.389 0 12s5.389 12 12 12 12-5.389 12-12S18.636 0 12 0zm0 1.123a10.87 10.87 0 0 1 10.004 15.143c0-.923-.449-1.746-1.147-2.245a2.753 2.753 0 0 0 1.147-2.246v-.024c0-1.522-1.197-2.77-2.844-2.77-1.646 0-2.869 1.273-2.869 2.794v.025c0 .923.45 1.722 1.148 2.246a2.753 2.753 0 0 0-1.148 2.245v5.713c-.2.075-.4.175-.599.25V15.667c0-1.297-.623-2.42-1.671-3.068 1.023-.649 1.671-1.797 1.671-3.094V9.48c0-1.996-1.522-3.642-3.692-3.642S8.283 7.509 8.283 9.505v.025c0 1.297.623 2.42 1.671 3.069-1.023.648-1.671 1.796-1.671 3.093v6.562c-.2-.075-.4-.15-.574-.225v-5.713c0-.923-.45-1.746-1.148-2.245a2.753 2.753 0 0 0 1.148-2.246V11.8c0-1.521-1.223-2.794-2.87-2.794-1.646 0-2.843 1.248-2.843 2.77v.024c0 .923.449 1.722 1.147 2.246a2.753 2.753 0 0 0-1.147 2.245 10.695 10.695 0 0 1-.873-4.266C1.123 5.988 5.988 1.123 12 1.123zm7.16 12.374h-.075c-.923-.05-1.547-.798-1.547-1.722v-.024c0-.924.624-1.697 1.622-1.697.973 0 1.647.773 1.647 1.721v.025c0 .899-.6 1.647-1.547 1.697h-.1zM9.605 9.48c0-1.397.973-2.52 2.395-2.52 1.422 0 2.42 1.148 2.42 2.52v.025c0 1.372-.973 2.495-2.395 2.495-1.422 0-2.42-1.123-2.42-2.52zM4.84 13.497h-.075c-.948-.05-1.547-.798-1.547-1.697v-.025c0-.948.674-1.72 1.647-1.72s1.621.772 1.621 1.696v.024c0 .899-.648 1.672-1.546 1.722h-.1zm-1.622 4.94V16.29c0-.923.649-1.671 1.572-1.721h.15c.948.05 1.522.798 1.522 1.696v5.115a11.06 11.06 0 0 1-3.244-2.944zm6.387 4.19v-6.96c0-1.347.948-2.445 2.295-2.494h.2c1.347.05 2.32 1.172 2.32 2.52V22.626c-.773.175-1.572.275-2.395.275-.848 0-1.647-.1-2.42-.274zm7.933-1.247V16.266c0-.898.6-1.671 1.522-1.696h.15c.923.05 1.572.798 1.572 1.721v2.146a10.757 10.757 0 0 1-3.244 2.943z"/>
</svg>
