<?xml version="1.0" encoding="utf-8"?>
<!-- Generator: Adobe Illustrator 12.0.1, SVG Export Plug-In . SVG Version: 6.00 Build 51448)  -->
<!DOCTYPE svg PUBLIC "-//W3C//DTD SVG 1.1//EN" "http://www.w3.org/Graphics/SVG/1.1/DTD/svg11.dtd" [
	<!ENTITY ns_svg "http://www.w3.org/2000/svg">
	<!ENTITY ns_xlink "http://www.w3.org/1999/xlink">
]>
<svg  version="1.1" id="Layer_1" xmlns="&ns_svg;" xmlns:xlink="&ns_xlink;" width="494.367" height="252.55"
	 viewBox="0 0 494.367 252.55" overflow="visible" enable-background="new 0 0 494.367 252.55" xml:space="preserve">
<g>
	<path fill-rule="evenodd" clip-rule="evenodd" d="M355.401,9.471c3.025,0.753-1.733,4.699,0.833,4.994
		c-1.521,2.524-2.55-2.366-2.497-4.162C354.705,10.439,355.218,10.12,355.401,9.471z"/>
	<path fill-rule="evenodd" clip-rule="evenodd" d="M440.298,16.131c-1.664,0-3.328,0-4.992,0
		C435.683,13.488,439.777,12.982,440.298,16.131z"/>
	<path fill-rule="evenodd" clip-rule="evenodd" d="M222.23,15.297c-0.958,3.758-5.695,3.738-9.988,4.162
		C214.315,16.815,217.753,15.537,222.23,15.297z"/>
	<path fill-rule="evenodd" clip-rule="evenodd" fill="#FFFFFF" d="M357.899,22.789c2.021,7.579-4.456,13.849-9.156,17.479
		C352.348,34.994,355.616,29.384,357.899,22.789z"/>
	<path fill-rule="evenodd" clip-rule="evenodd" d="M205.584,23.621c0.418,4.025-4.048,3.167-5.826,4.994
		c-16.224,12.075-27.575,29.023-39.951,44.945C170.713,52.562,183.324,33.268,205.584,23.621z"/>
	<path fill-rule="evenodd" clip-rule="evenodd" fill="#FFFFFF" d="M330.432,31.112c0.557,0,1.111,0,1.664,0
		c-0.15,0.707,0.326,0.785,0.833,0.832c-1.54,1.233-1.247,4.302-4.161,4.162C329.246,34.365,330.832,33.73,330.432,31.112z"/>
	<path fill-rule="evenodd" clip-rule="evenodd" fill="#FFFFFF" d="M161.471,31.944c0.976,0.134,0.702,1.518,0.833,2.497
		c-22.091,19.248-31.31,51.367-42.448,81.568c-7.724,9.201-10.381,23.467-20.809,29.963c15.441-20.348,21.179-50.4,35.791-71.58
		C139.317,55.845,149.355,42.856,161.471,31.944z"/>
	<path fill-rule="evenodd" clip-rule="evenodd" fill="#FFFFFF" d="M213.075,33.609c-0.758,2.016-3.345,2.204-5.826,2.498
		C208.672,34.755,210.278,33.586,213.075,33.609z"/>
	<path fill-rule="evenodd" clip-rule="evenodd" fill="#FFFFFF" d="M151.483,35.273c0.925,3.874-4.897,9.097-8.323,14.149
		c-3.287,4.848-5.726,12.174-10.82,14.15C135.25,50.668,144.794,44.399,151.483,35.273z"/>
	<path fill-rule="evenodd" clip-rule="evenodd" d="M242.207,36.938c-6.357,6.683-12.334,13.746-19.976,19.144
		C226.952,47.765,232.794,40.566,242.207,36.938z"/>
	<path fill-rule="evenodd" clip-rule="evenodd" d="M39.952,51.088c-0.61,0.777-1.514,1.26-2.497,1.665
		c-6.523-7.54-21.055-10.937-29.132-9.988c0-1.11,0-2.22,0-3.33C21.01,37.894,34.485,42.648,39.952,51.088z"/>
	<path fill-rule="evenodd" clip-rule="evenodd" d="M239.708,53.584c-0.896-3.139,3.341-8.295,6.659-9.988
		c-4.059-3.1-8.976,6.268-12.485,9.156c-1.132-5.86,8.162-8.478,9.988-14.15c3.875-1.704,8.462,4.613,3.33,4.162
		c0.362,1.024,1.064,1.709,2.498,1.665c-0.684,2.369-1.88,4.225-4.162,4.993C247.391,46.011,240.406,51.629,239.708,53.584z"/>
	<path fill-rule="evenodd" clip-rule="evenodd" fill="#FFFFFF" d="M108.202,116.009c10.401-14.57,13.302-36.637,24.137-50.771
		c1.002,1.751-1.357,9.063-2.497,11.652c-10.078,22.875-19.778,52.085-35.79,69.083c4.501-9.648,11.196-17.103,14.149-28.299
		c-10.038,12.99-15.3,30.755-26.634,42.449c25.273-35.486,32.661-88.857,61.592-120.687
		C128.295,61.224,116.958,90.875,108.202,116.009z"/>
	<path fill-rule="evenodd" clip-rule="evenodd" fill="#FFFFFF" d="M134.837,41.933c-3.477,9.288-11.062,21.674-16.647,31.627
		c-11.362,29.422-22.25,63.757-39.951,84.065c-2.272-5.028,1.311-2.722,3.329-5.827C102.203,118.056,110.097,71.57,134.837,41.933z"
		/>
	<path fill-rule="evenodd" clip-rule="evenodd" d="M2.498,46.094c3.63,9.385-0.015,26.214,0.833,36.622
		c-5.678-7.245-1.313-24.044-0.833-34.125C2.523,48.052,1.236,47.022,2.498,46.094z"/>
	<path fill-rule="evenodd" clip-rule="evenodd" fill="#FFFFFF" d="M126.513,46.094c0.655,4.512-10.224,16.719-10.82,23.305
		c-14.594,24.249-18.458,59.227-37.455,79.07C96.474,119.457,103.52,73.023,126.513,46.094z"/>
	<path fill-rule="evenodd" clip-rule="evenodd" d="M19.976,51.088c5.463,2.861,14.594,2.053,18.312,6.658
		c-2.702,0.482-3.872-0.567-5.826-0.832c2.595,6.562,11.015,7.295,12.484,14.981c-3.5,1.271-9.672-1.214-13.317-2.497
		c0.564,3.611,9.363,6.166,11.653,10.82c-0.511,3.458-6.475,2.745-9.156,1.665c-0.144,5.138,5.322,4.667,5.827,9.155
		c-4.034-2.348-9.249-3.513-9.156-9.987c3.091-0.393,3.808-0.622,8.323-0.833c-2.81-6.693-15.114-8.098-14.981-14.981
		c4.772,2.163,10.924,2.948,15.814,4.994c-1.806-7.079-11.52-13.446-20.809-15.815C19.039,52.923,20.162,52.662,19.976,51.088z"/>
	<path fill-rule="evenodd" clip-rule="evenodd" fill="#FFFFFF" d="M117.358,51.088c1.416-0.306,1.571,0.649,1.664,1.665
		c-14.382,23.073-24.543,50.365-33.292,79.071c-3.941,1.608-2.513,8.585-7.491,9.155c9.839-27.706,19.121-52.313,30.795-79.07
		c-5.376,4.158-7.831,12.601-10.82,19.976c-2.947,7.269-7.593,14.435-9.988,21.641c-1.017,3.059-0.536,7.408-1.664,10.819
		c-2.332,7.045-4.617,13.303-9.155,18.311c6.651-27.204,17.58-57.323,33.292-78.239c2.09,1.346-1.478,4.006-1.665,5.826
		C113.501,58.884,114.088,53.644,117.358,51.088z"/>
	<path fill-rule="evenodd" clip-rule="evenodd" fill="#FFFFFF" d="M70.747,53.584c1.458,1.873,4.742,1.917,4.994,4.994
		C73.597,57.394,71.033,56.629,70.747,53.584z"/>
	<path fill-rule="evenodd" clip-rule="evenodd" fill="#FFFFFF" d="M75.741,60.243c2.965,1.474,4.497,4.382,4.162,9.156
		C76.026,68.837,78.124,62.301,75.741,60.243z"/>
	<path fill-rule="evenodd" clip-rule="evenodd" d="M331.265,62.74c4.807,1.997-1.858,5.535-2.497,7.491
		C326.131,67.538,331.515,65.807,331.265,62.74z"/>
	<path fill-rule="evenodd" clip-rule="evenodd" d="M253.859,79.386c1.313,2.334,2.977-4.49,4.993-1.665
		c0.227,3.555-3.038,3.621-4.162,5.826c5.147,3.179,4.791-6.289,9.157-6.658c-0.217,4.223-3.092,5.786-4.162,9.155
		c4.992,1.732,3.86-9.306,9.156-9.987c-1.905,4.754-3.56,9.757-6.659,13.316c-13.609-0.541-21.874-6.424-27.467-14.982
		c5.972,4.16,11.913,7.983,17.479,8.324c0.622-3.691-4.706-8.596-7.49-11.652C247.562,67.438,256.137,75.187,253.859,79.386z"/>
	<path fill-rule="evenodd" clip-rule="evenodd" d="M13.317,70.231c5.647,7.119,8.819,21.139,11.652,28.298
		c-4.162-1.664-4.056-7.596-6.658-10.82c-1.658,1.369-2.915,2.331-4.162,0c-0.838-2.504,1.855-1.475,3.33-1.665
		C15.547,81.32,12.184,78.023,13.317,70.231z"/>
	<path fill-rule="evenodd" clip-rule="evenodd" d="M7.491,71.896c5.811,15.275,12.49,29.682,19.976,43.281
		C19.2,102.357,8.758,91.714,7.491,71.896z"/>
	<path fill-rule="evenodd" clip-rule="evenodd" d="M227.225,81.052c3.405-1.715,6.508,4.013,9.987,4.993
		c-0.992-2.629-7.012-7.402-9.987-10.819c4.579-2.597,10.311,7.211,13.316,11.652c4.516,0.756,6.888,3.655,10.821,4.993
		C243.223,94.834,231.808,87.143,227.225,81.052z"/>
	<path fill-rule="evenodd" clip-rule="evenodd" d="M303.797,73.56c-1.624,5.31-3.667,10.205-8.321,12.485
		C297.647,81.281,298.913,75.611,303.797,73.56z"/>
	<path fill-rule="evenodd" clip-rule="evenodd" d="M273.833,74.392c1.831,3.564-4.708,16.636-9.987,15.815
		C267.582,85.341,270.719,79.877,273.833,74.392z"/>
	<path fill-rule="evenodd" clip-rule="evenodd" d="M277.996,74.392c1.111,0,2.219,0,3.33,0c-2.755,6.957-4.154,15.266-12.485,16.647
		C271.612,85.21,277.052,82.05,277.996,74.392z"/>
	<path fill-rule="evenodd" clip-rule="evenodd" d="M297.971,74.392c-0.107,3.944-3.038,11.82-9.154,12.486
		C291.022,81.869,293.962,77.597,297.971,74.392z"/>
	<path fill-rule="evenodd" clip-rule="evenodd" d="M378.707,75.226c2.054,0.72,5.762-0.213,5.826,2.496
		C382.479,77.001,378.772,77.935,378.707,75.226z"/>
	<path fill-rule="evenodd" clip-rule="evenodd" d="M291.313,76.058c-1.867,4.792-2.757,10.561-8.323,11.652
		C284.426,82.487,286.757,78.16,291.313,76.058z"/>
	<path fill-rule="evenodd" clip-rule="evenodd" d="M282.99,76.89c1.344-0.234,1.431,0.786,2.497,0.832
		c-3.041,2.785-2.249,9.403-7.492,9.988C278.414,82.855,281.802,80.972,282.99,76.89z"/>
	<path fill-rule="evenodd" clip-rule="evenodd" fill="#FFFFFF" d="M313.785,76.89c3.598-0.194,1.106,4.697-0.831,4.162
		c0.619,1.876,4.669,0.325,6.658,0.832c-1.27,2.615-6.382,1.385-9.989,1.664C310.952,81.269,312.731,79.441,313.785,76.89z"/>
	<path fill-rule="evenodd" clip-rule="evenodd" fill="#FFFFFF" d="M363.726,77.722c9.021-1.247,17.919,4.826,27.467,5.826
		C382.606,84.36,372.876,79.119,363.726,77.722z"/>
	<path fill-rule="evenodd" clip-rule="evenodd" d="M342.917,79.386c-3.06,3.877-7.159,6.713-12.485,8.324
		C333.226,83.566,337.82,81.225,342.917,79.386z"/>
	<path fill-rule="evenodd" clip-rule="evenodd" d="M347.91,81.884c-3.409,2.569-7.633,8.25-12.483,6.658
		C338.77,85.907,343.63,80.864,347.91,81.884z"/>
	<path fill-rule="evenodd" clip-rule="evenodd" fill="#FFFFFF" d="M373.714,83.548c2.61-2.013,7.314,0.976,9.985,1.665
		C381.748,86.569,377.02,83.603,373.714,83.548z"/>
	<path fill-rule="evenodd" clip-rule="evenodd" d="M340.42,91.039c1.216-4.057,5.335-5.208,9.155-6.658
		C347.43,87.506,345.435,90.782,340.42,91.039z"/>
	<path fill-rule="evenodd" clip-rule="evenodd" d="M0.833,86.045c4.845,0.981,0.005,11.648,4.994,12.485
		C3.852,100.002,2.447,96.377,0,99.363C0.083,93.77-0.229,88.667,0.833,86.045z"/>
	<path fill-rule="evenodd" clip-rule="evenodd" d="M359.563,93.536c1.236,0.91,6.417-1.315,8.324-2.497
		c3.245,0.753-2.76,3.064,0,3.329c-8.949,2.685-15.638-0.36-24.14-1.664c2.657-3.17,6.452-5.202,11.653-5.826
		c-1.839,2.601-6.165,2.712-7.491,5.826c5.145-0.961,7.438-4.772,12.485-5.826c-0.158,3.448-4.395,2.817-4.994,5.826
		c3.405-0.201,4.875-2.341,7.492-3.33C365.126,90.864,360.382,92.347,359.563,93.536z"/>
	<path fill-rule="evenodd" clip-rule="evenodd" d="M375.378,92.704c0.046,3.098-3.704,2.4-6.659,2.497
		C369.175,92.604,373.547,93.924,375.378,92.704z"/>
	<path fill-rule="evenodd" clip-rule="evenodd" d="M328.768,102.691c-5.659,2.314-9.339-4.521-16.646-3.329
		C315.182,94.488,325.013,100.383,328.768,102.691z"/>
	<path fill-rule="evenodd" clip-rule="evenodd" d="M214.739,98.53c0.834,0,1.666,0,2.498,0
		c-2.363,10.955-4.838,21.796-11.653,28.299C208.315,117.076,214.182,110.458,214.739,98.53z"/>
	<path fill-rule="evenodd" clip-rule="evenodd" d="M220.565,99.363c0.974,4.93-2.967,21.693-9.987,25.802
		C214.418,117.075,216.853,107.58,220.565,99.363z"/>
	<path fill-rule="evenodd" clip-rule="evenodd" d="M323.774,104.357c-3.876,4.379-8.586-3.187-14.982-1.666
		C312.826,97.79,318.8,104.712,323.774,104.357z"/>
	<path fill-rule="evenodd" clip-rule="evenodd" d="M0,103.525c2.006-0.342,1.81,1.519,4.162,0.832
		c0.973,7.24,2.122,17.774,2.498,24.97C1.389,124.538,3.045,112.406,0,103.525z"/>
	<path fill-rule="evenodd" clip-rule="evenodd" d="M27.467,105.189c2.341,0.155,3.546,1.447,3.329,4.162
		C28.179,109.47,27.937,107.215,27.467,105.189z"/>
	<path fill-rule="evenodd" clip-rule="evenodd" d="M203.086,106.021c1.121,5.088-2.355,19.778-9.155,22.473
		C196.518,120.537,201.08,114.557,203.086,106.021z"/>
	<path fill-rule="evenodd" clip-rule="evenodd" fill="#FFFFFF" d="M235.548,111.015c-1.677,2.762-1.778,7.101-4.162,9.156
		c-1.925-1.712,2.273-4.338,0.833-8.324C233.711,111.953,233.974,110.829,235.548,111.015z"/>
	<path fill-rule="evenodd" clip-rule="evenodd" d="M191.435,112.68c-8.169,14.857-12.032,34.023-25.802,43.281
		c8.464-13.731,16.872-27.518,23.305-43.281C189.77,112.68,190.603,112.68,191.435,112.68z"/>
	<path fill-rule="evenodd" clip-rule="evenodd" fill="#FFFFFF" d="M226.392,114.344c0.833,0,1.664,0,2.497,0
		c-2.199,3.905-2,10.207-6.659,11.652C223.424,121.919,225.606,118.829,226.392,114.344z"/>
	<path fill-rule="evenodd" clip-rule="evenodd" fill="#FFFFFF" d="M273.002,114.344c5.286,1.649,13.361,0.509,14.982,5.826
		c-5.907-0.311-13.943-1.604-18.312-0.832C269.975,116.145,275.85,118.53,273.002,114.344z"/>
	<path fill-rule="evenodd" clip-rule="evenodd" d="M132.339,115.177c1.194,5.645-5.996,10.087-8.323,14.982
		C123.487,125.178,130.177,120.236,132.339,115.177z"/>
	<path fill-rule="evenodd" clip-rule="evenodd" d="M181.447,116.841c0.832,0,1.664,0,2.496,0
		c-7.768,13.872-11.444,31.836-24.136,40.784c-0.902-2.53,7.734-11.981,10.82-16.646
		C173.513,132.212,178.814,125.861,181.447,116.841z"/>
	<path fill-rule="evenodd" clip-rule="evenodd" d="M175.62,117.673c0.968-0.134,1.481,0.185,1.665,0.833
		c-4.048,7.624-6.596,17.435-10.82,24.97c-3.501,6.244-8.215,14.11-15.814,15.813C160.966,146.693,167.534,133.541,175.62,117.673z"
		/>
	<path fill-rule="evenodd" clip-rule="evenodd" d="M304.631,119.338c-0.912,2.972-2.854,4.914-5.827,5.826
		C299.095,121.571,301.037,119.629,304.631,119.338z"/>
	<path fill-rule="evenodd" clip-rule="evenodd" fill="#FFFFFF" d="M15.814,120.17c9.298,14.564,19.451,32.707,31.628,41.616
		c0.551,2.265,3.874,6.059,1.665,8.323c-11.735-9.072-19.304-22.312-28.299-34.125c3.879,11.998,12.646,21.75,21.64,31.628
		c4.473,4.912,9.818,7.75,10.82,15.815c-14.413-9.171-22.106-25.06-33.293-37.456c0.581-4.187-1.413-5.801-0.832-9.988
		c-0.036-2.128,0.619-1.015,1.665-0.832C19.601,129.701,15.876,126.768,15.814,120.17z"/>
	<path fill-rule="evenodd" clip-rule="evenodd" d="M168.129,121.003c0.964,6.14-6.522,17.76-11.652,23.305
		C159.635,135.814,164.338,128.864,168.129,121.003z"/>
	<path fill-rule="evenodd" clip-rule="evenodd" d="M163.135,122.667c-1.082,6.693-6.256,16.49-12.484,20.809
		C154.278,136.006,158.67,129.299,163.135,122.667z"/>
	<path fill-rule="evenodd" clip-rule="evenodd" fill="#FFFFFF" d="M259.685,124.333c9.377,0.214,13.425,2.195,25.803,1.664
		C279.652,129.229,264.075,128.067,259.685,124.333z"/>
	<path fill-rule="evenodd" clip-rule="evenodd" d="M135.669,127.661c2.257,1.253-1.324,3.591-1.665,4.994
		C131.748,131.401,135.329,129.064,135.669,127.661z"/>
	<path fill-rule="evenodd" clip-rule="evenodd" fill="#FFFFFF" d="M288.816,130.99c-9.203,2.864-19.844-0.733-29.132-0.832
		C264.5,127.371,280.158,129.945,288.816,130.99z"/>
	<path fill-rule="evenodd" clip-rule="evenodd" fill="#FFFFFF" d="M215.573,134.32c-2.331,7.103-6.08,12.787-10.821,17.479
		C206.725,147.66,209.901,137.535,215.573,134.32z"/>
	<path fill-rule="evenodd" clip-rule="evenodd" fill="#FFFFFF" d="M286.318,140.146c-5.033,2.69-17.327,2.865-24.137,0.833
		C268.704,140.204,279.428,140.648,286.318,140.146z"/>
	<path fill-rule="evenodd" clip-rule="evenodd" fill="#FFFFFF" d="M240.541,143.476c-3.755,2.347-6.861,5.345-10.821,7.49
		C232.637,147.778,234.137,143.173,240.541,143.476z"/>
	<path fill-rule="evenodd" clip-rule="evenodd" fill="#FFFFFF" d="M258.852,143.476c1.949,0.213,0.479,3.656,0,4.161
		c-5.91-1.072-10.94-1.332-14.981,0.832c4.067,3.267,11.554-2.051,12.485,4.162c-4.077-2.026-11.913-0.294-14.981-3.329
		c-2.261,0.513-3.899,1.651-4.994,3.329c-2.582-3.724,5.824-3.583,5.826-7.491C249.547,145.667,256.071,147.339,258.852,143.476z"/>
	<path fill-rule="evenodd" clip-rule="evenodd" d="M150.651,144.308c-2.133,5.712-7.288,15.405-15.814,17.478
		C140.131,155.983,143.666,148.42,150.651,144.308z"/>
	<path fill-rule="evenodd" clip-rule="evenodd" d="M153.98,145.14c0.833,0,1.665,0,2.497,0c-2.657,7.608-5.994,14.538-14.982,15.814
		C145.247,155.274,151.499,152.092,153.98,145.14z"/>
	<path fill-rule="evenodd" clip-rule="evenodd" fill="#FFFFFF" d="M97.382,147.637c-0.261,8.069-7.988,15.869-13.318,21.641
		C87.431,160.991,93.496,155.403,97.382,147.637z"/>
	<path fill-rule="evenodd" clip-rule="evenodd" d="M64.921,150.134c1.345-0.234,1.434,0.786,2.498,0.832
		c3.334,15.808,5.998,32.289,12.485,44.945C69.803,189.02,69.648,162.626,64.921,150.134z"/>
	<path fill-rule="evenodd" clip-rule="evenodd" fill="#FFFFFF" d="M100.711,150.134c-1.616,8.934-10.246,22.486-17.479,25.801
		c-2.374-2.297,0.988-2.539,2.498-3.329C90.792,165.184,95.539,157.446,100.711,150.134z"/>
	<path fill-rule="evenodd" clip-rule="evenodd" fill="#FFFFFF" d="M20.809,152.631c11.957,11.625,20.997,26.168,34.125,36.623
		c-1.056,4.509,0.213,4.895,2.497,7.489c-5.062,0.058-7.269-9.924-14.149-10.819C36.844,173.771,24.573,167.454,20.809,152.631z"/>
	<path fill-rule="evenodd" clip-rule="evenodd" fill="#FFFFFF" d="M272.17,152.631c2.089,1.346-1.479,4.005-1.664,5.827
		C266.792,157.173,270.973,154.006,272.17,152.631z"/>
	<path fill-rule="evenodd" clip-rule="evenodd" d="M287.984,154.295c-3.435,4.89-3.004,13.641-8.323,16.646
		C280.306,166.464,282.302,156.479,287.984,154.295z"/>
	<path fill-rule="evenodd" clip-rule="evenodd" fill="#FFFFFF" d="M265.511,164.284c2.575,0.199-1.301,6.85,2.497,5.826
		c-3.306,0.854-3.275,5.048-4.994,7.492c-2.074-0.701-4.46-1.091-7.49-0.834c-1.166,0.294-0.073,1.466,0.832,1.666
		c-5.637,1.98-13.017-2.925-17.479-2.498c2.211-3.167,9.882,0.711,14.149,0.832c-0.328-2.722-4.079-2.024-6.659-2.496
		c4.93-3.08,12.007,2.736,16.647,0c-6.888-3.101-17.073-2.902-24.137-5.827c6.632-2.311,14.708,3.481,24.137,3.33
		c-7.147-4.228-17.147-5.604-27.466-6.659c5.004-4.581,14.404,3.402,20.808,0c-6.373-1.673-12.956-3.135-19.975-4.162
		C244.636,157.36,257.943,164.729,265.511,164.284z M259.685,167.612c0.967,0.699,2.232,1.099,4.162,0.832
		C263.852,165.55,260.503,165.721,259.685,167.612z"/>
	<path fill-rule="evenodd" clip-rule="evenodd" fill="#FFFFFF" d="M169.794,162.618c-1.234,5.988-8.725,12.911-16.646,14.983
		C157.961,171.872,164.662,168.029,169.794,162.618z"/>
	<path fill-rule="evenodd" clip-rule="evenodd" fill="#FFFFFF" d="M59.927,209.229c-13.463-14.559-30.483-25.56-38.286-45.778
		c7.729,6.11,12.327,14.696,19.143,21.64C47.743,192.182,57.879,197.571,59.927,209.229z"/>
	<path fill-rule="evenodd" clip-rule="evenodd" fill="#FFFFFF" d="M159.807,165.948c-1.324,5.897-9.844,11.792-16.647,14.981
		C147.422,174.649,153.96,170.645,159.807,165.948z"/>
	<path fill-rule="evenodd" clip-rule="evenodd" d="M263.847,168.444c-1.93,0.267-3.195-0.133-4.162-0.832
		C260.503,165.721,263.852,165.55,263.847,168.444z"/>
	<path fill-rule="evenodd" clip-rule="evenodd" fill="#FFFFFF" d="M144.824,167.612c-4.128,5.033-11.073,11.67-15.813,13.317
		C132.75,174.959,138.51,171.009,144.824,167.612z"/>
	<path fill-rule="evenodd" clip-rule="evenodd" d="M296.307,174.271c-0.119-2.617,2.134-2.859,4.162-3.33
		c1.153,1.398,1.922,7.458-1.665,6.66C299.039,175.424,298.5,174.021,296.307,174.271z"/>
	<path fill-rule="evenodd" clip-rule="evenodd" d="M282.158,173.439c1.345-0.234,1.433,0.786,2.497,0.832
		c-1.853,3.418-3.202,7.341-7.49,8.322C278.132,178.847,280.986,176.983,282.158,173.439z"/>
	<path fill-rule="evenodd" clip-rule="evenodd" fill="#FFFFFF" d="M268.008,175.104c0.833,0,1.665,0,2.498,0
		c-0.368,2.922-1.756,3.529-4.162,2.498C266.885,176.755,268.258,176.74,268.008,175.104z"/>
	<path fill-rule="evenodd" clip-rule="evenodd" d="M209.746,177.602c0.668,0.439,1.351,0.867,2.496,0.832
		c-4.784,4.647-7.087,11.778-14.149,14.149C200.155,185.766,206.12,182.854,209.746,177.602z"/>
	<path fill-rule="evenodd" clip-rule="evenodd" d="M214.739,178.434c3.078,2.12-2.849,7.741-6.658,8.322
		C209.237,182.918,212.769,181.457,214.739,178.434z"/>
	<path fill-rule="evenodd" clip-rule="evenodd" d="M198.093,179.266c0.038,3.921-2.406,5.361-4.161,7.49
		C190.692,185.285,194.112,178.769,198.093,179.266z"/>
	<path fill-rule="evenodd" clip-rule="evenodd" d="M205.584,179.266c-2.632,3.194-4.401,7.251-8.323,9.156
		C198.122,183.455,200.043,179.551,205.584,179.266z"/>
	<path fill-rule="evenodd" clip-rule="evenodd" d="M13.317,180.098c0.832,0,1.665,0,2.497,0c-0.426,5.698,1.477,9.065,0.832,14.981
		C14.376,191.247,14.298,185.221,13.317,180.098z"/>
	<path fill-rule="evenodd" clip-rule="evenodd" fill="#FFFFFF" d="M244.703,184.26c-2.467,4.118-8.275,2.871-9.988,9.155
		c-0.994,3.646,1.131,7.349,2.497,11.652C229,198.846,232.618,183.495,244.703,184.26z"/>
	<path fill-rule="evenodd" clip-rule="evenodd" d="M195.596,194.247c-0.439,5.396-2.698,16.161-10.819,16.646
		C188.723,205.685,191.99,199.797,195.596,194.247z"/>
	<path fill-rule="evenodd" clip-rule="evenodd" d="M282.99,194.247c-0.915,2.693-2.416,4.799-3.329,7.49
		C276.497,200.516,279.993,194.526,282.99,194.247z"/>
	<path fill-rule="evenodd" clip-rule="evenodd" d="M130.675,195.079c-0.058,4.395-7.156,8.927-10.82,12.485
		C120.588,203.846,126.993,198.619,130.675,195.079z"/>
	<path fill-rule="evenodd" clip-rule="evenodd" d="M285.487,195.079c1.028,4.375-3.945,9.914-5.826,14.15
		c6.167-2.434,4.983-12.218,11.652-14.15c-4.14,7.515-6.659,16.646-13.318,21.642c0.376-2.399,2.947-2.604,2.497-5.827
		c-3.685,0.478-2.489,5.833-6.659,5.827c1.5-3.772,4.489-6.054,4.995-10.821c-4.602,2.056-3.594,9.724-9.156,10.821
		c2.219-4.994,4.882-9.546,7.492-14.151C281.595,206.616,282.515,197.519,285.487,195.079z"/>
	<path fill-rule="evenodd" clip-rule="evenodd" fill="#FFFFFF" d="M335.427,195.911c1.265,7.252-7.907,18.056-14.15,23.306
		C326.216,211.672,332.683,205.652,335.427,195.911z"/>
	<path fill-rule="evenodd" clip-rule="evenodd" d="M188.105,196.743c1.11,0,2.219,0,3.33,0c-3.052,5.086-5.438,14.972-11.652,14.15
		C181.571,205.191,188.042,204.172,188.105,196.743z"/>
	<path fill-rule="evenodd" clip-rule="evenodd" d="M222.23,197.577c-0.5,5.881-0.661,12.101-5.826,13.316
		C217.989,206.098,217.725,199.452,222.23,197.577z"/>
	<path fill-rule="evenodd" clip-rule="evenodd" d="M294.643,197.577c-1.392,3.324-3.365,6.066-4.993,9.154
		C286.739,204.997,291.116,198.204,294.643,197.577z"/>
	<path fill-rule="evenodd" clip-rule="evenodd" d="M79.071,198.409c0.967-0.136,1.481,0.183,1.665,0.832
		c2.847,4.958,5.317,10.776,8.323,15.813c2.894,4.849,8.158,8.38,8.324,13.318C88.276,221.386,83.969,209.603,79.071,198.409z"/>
	<path fill-rule="evenodd" clip-rule="evenodd" d="M74.077,200.073c2.39-1.246,4.137,5.27,5.826,7.491
		C74.924,208.104,76.915,201.675,74.077,200.073z"/>
	<path fill-rule="evenodd" clip-rule="evenodd" d="M121.52,199.241c-1.395,4.154-3.649,7.449-8.324,8.323
		C115.039,203.858,117.813,201.084,121.52,199.241z"/>
	<path fill-rule="evenodd" clip-rule="evenodd" d="M214.739,199.241c3.267,2.235,0.614,10.496-3.329,9.155
		C212.81,205.635,213.458,202.122,214.739,199.241z"/>
	<path fill-rule="evenodd" clip-rule="evenodd" fill="#FFFFFF" d="M238.877,200.073c8.834-1.061,19.362,3.384,26.634,6.658
		c0.688,2.353-1.173,2.157-0.831,4.162C250.815,212.55,251.021,200.137,238.877,200.073z M262.182,207.564
		c-3.132-0.751-5.383-2.386-9.156-2.497C253.447,208.007,259.717,209.433,262.182,207.564z"/>
	<path fill-rule="evenodd" clip-rule="evenodd" d="M198.926,200.905c1.388,2.807-1.189,8.777-4.994,9.156
		C194.671,206.084,197.224,203.92,198.926,200.905z"/>
	<path fill-rule="evenodd" clip-rule="evenodd" d="M209.746,200.905c1.092,1.963,0.065,8.916-4.162,8.324
		C206.085,205.568,208.593,203.915,209.746,200.905z"/>
	<path fill-rule="evenodd" clip-rule="evenodd" d="M166.465,201.737c1.481,3.814-7.006,11.778-13.317,13.317
		C156.514,209.544,162.943,207.095,166.465,201.737z"/>
	<path fill-rule="evenodd" clip-rule="evenodd" d="M72.413,203.403c2.616-0.12,2.859,2.134,3.329,4.161
		C73.125,207.684,72.882,205.43,72.413,203.403z"/>
	<path fill-rule="evenodd" clip-rule="evenodd" d="M148.154,204.235c1.112,2.804-2.744,7.779-7.491,7.491
		C142.448,208.518,145.847,206.922,148.154,204.235z"/>
	<path fill-rule="evenodd" clip-rule="evenodd" d="M253.026,205.067c3.773,0.111,6.023,1.746,9.156,2.497
		C259.717,209.433,253.447,208.007,253.026,205.067z"/>
	<path fill-rule="evenodd" clip-rule="evenodd" d="M297.14,205.899c-1.21,1.579-4.426,3.654-5.826,2.497
		c0.44-0.669,0.868-1.351,0.831-2.497C294.765,206.316,295.398,204.085,297.14,205.899z"/>
	<path fill-rule="evenodd" clip-rule="evenodd" d="M25.802,207.564c1.474,2.134,3.84,3.374,4.162,6.658
		C27.548,213.031,25.671,211.302,25.802,207.564z"/>
	<path fill-rule="evenodd" clip-rule="evenodd" d="M282.99,216.721c0.473-3.967,2.976-5.902,4.161-9.156
		c2.799,1.805-0.927,3.813,4.993,2.497C291.477,214.319,287.865,219.363,282.99,216.721z"/>
	<path fill-rule="evenodd" clip-rule="evenodd" d="M169.794,209.229c-6.173,5.187-11.413,12.937-19.143,14.149
		C156.64,218.768,162.5,209.779,169.794,209.229z"/>
	<path fill-rule="evenodd" clip-rule="evenodd" d="M204.752,210.062c1.344-0.234,1.433,0.786,2.497,0.832
		c0.729,2.672-2.158,1.726-2.497,3.329C202.804,214.01,204.272,210.566,204.752,210.062z"/>
	<path fill-rule="evenodd" clip-rule="evenodd" d="M194.764,210.894c-2.38,2.059-0.929,7.949-6.659,6.659
		C189.052,214.061,191.496,212.064,194.764,210.894z"/>
	<path fill-rule="evenodd" clip-rule="evenodd" d="M199.758,210.894c-0.521,1.978-1.119,3.874-3.329,4.161
		C196.948,213.079,197.548,211.181,199.758,210.894z"/>
	<path fill-rule="evenodd" clip-rule="evenodd" d="M295.476,211.727c-0.924,2.128-1.556,4.549-3.331,5.826c-0.831,0-1.664,0-2.495,0
		C290.862,214.881,292.002,212.137,295.476,211.727z"/>
	<path fill-rule="evenodd" clip-rule="evenodd" d="M186.44,212.559c-1.85,4.253-3.705,8.501-9.988,8.322
		C180.019,218.343,180.201,212.423,186.44,212.559z"/>
	<path fill-rule="evenodd" clip-rule="evenodd" d="M215.573,212.559c3.819,0.416,0.758,6.319-2.498,4.994
		C213.088,215.069,215.239,214.723,215.573,212.559z"/>
	<path fill-rule="evenodd" clip-rule="evenodd" d="M30.796,215.055c4.393,4.487,10.144,7.613,12.485,14.15
		C37.489,226.119,34.128,220.602,30.796,215.055z"/>
	<path fill-rule="evenodd" clip-rule="evenodd" d="M298.804,215.055c-1.204,1.294-1.75,3.244-2.497,4.994
		c-1.492,0.105-1.755-1.019-3.329-0.832C294.235,217.146,295.83,215.411,298.804,215.055z"/>
	<path fill-rule="evenodd" clip-rule="evenodd" d="M301.302,217.553c0,0.832,0,1.664,0,2.496c-1.477-0.189-4.169,0.839-3.331-1.664
		C299.465,218.49,299.728,217.365,301.302,217.553z"/>
	<path fill-rule="evenodd" clip-rule="evenodd" fill="#FFFFFF" d="M254.69,224.211c1.47,7.58-3.796,15.617-9.987,18.31
		C248.499,236.886,252.51,231.463,254.69,224.211z"/>
	<path fill-rule="evenodd" clip-rule="evenodd" fill="#FFFFFF" d="M31.628,228.373c3.71-2.019,5.302,5.219,9.156,5.826
		C36.665,236.626,34.863,229.598,31.628,228.373z"/>
	<path fill-rule="evenodd" clip-rule="evenodd" fill="#FFFFFF" d="M284.654,230.037c0.787,3.034-4.859,11.204-7.49,10.819
		C279.823,237.412,282.027,233.514,284.654,230.037z"/>
	<path fill-rule="evenodd" clip-rule="evenodd" fill="#FFFFFF" d="M261.35,231.701c4.154,3.54,5.058,12.762-1.666,13.317
		c1.045-3.396,4.203-4.675,3.33-9.987c-3.76,0.679-2.448,6.431-6.659,6.658C257.832,238.172,260.416,235.762,261.35,231.701z"/>
	<path fill-rule="evenodd" clip-rule="evenodd" fill="#FFFFFF" d="M279.661,231.701c-1.828,1.781-0.969,6.246-4.995,5.826
		C274.992,234.246,277.563,233.211,279.661,231.701z"/>
	<path fill-rule="evenodd" clip-rule="evenodd" fill="#FFFFFF" d="M288.816,231.701c3.401,3.576-3.953,8.102-7.491,9.988
		C283.184,237.721,286.738,235.45,288.816,231.701z"/>
	<path fill-rule="evenodd" clip-rule="evenodd" fill="#FFFFFF" d="M166.465,233.367c-1.092,3.071-4.367,3.955-7.49,4.994
		C160.981,236.206,163.599,234.661,166.465,233.367z"/>
	<path fill-rule="evenodd" clip-rule="evenodd" d="M45.779,236.695c6.078,3.909,11.501,8.474,16.646,13.318
		C55.805,249.966,49.039,242.873,45.779,236.695z"/>
	<path fill-rule="evenodd" clip-rule="evenodd" d="M44.945,242.521c3.514-0.441,8.362,4.942,10.82,8.324
		c-3.572,0.521-5.362-0.742-6.658-2.498c-0.648,0.728,0.316,3.686-3.329,3.331C43.202,248.043,48.468,245.722,44.945,242.521z"/>
	<path fill-rule="evenodd" clip-rule="evenodd" fill="#FFFFFF" d="M99.879,245.852c-1.813,3.182-5.102,4.887-9.989,4.993
		C92.93,248.89,96.099,247.064,99.879,245.852z"/>
	<path fill-rule="evenodd" clip-rule="evenodd" d="M195.596,21.957c-18.374,8.139-38.776,34.292-47.442,53.269
		c-1.538,3.365-0.802,8.541-5.826,9.155c9.676-23.339,22.025-44.006,40.783-58.263c-27.768,13.572-35.242,47.435-51.604,72.412
		c8.959-26.83,21.416-50.163,39.12-68.25c-33.302,23.019-40.881,78.973-64.921,114.028c11.136-5.79,14.618-26.442,25.802-34.958
		c-7.477,12.222-13.306,26.09-22.473,36.622c4.279,0.105,7.255-8.272,10.821-11.652c-0.502,5.888-6.854,13.117-9.989,19.143
		c11.767-9.042,16.892-24.726,27.467-34.957c-6.151,15.211-16.627,26.097-24.97,39.119c6.695-6.067,12.399-13.125,17.479-20.809
		c-0.844,8.04-8.981,15.984-14.149,22.473c11.038-6.741,19.651-23.058,27.466-35.791c2.916,2.182-2.215,8.97-4.994,10.821
		c-3.26,10.889-11.141,17.159-16.646,25.802c6.24-0.974,6.698-7.73,11.652-9.988c-0.216-2.437,1.882-2.558,1.666-4.994
		c7.131-5.076,8.011-16.403,15.814-20.808c-7.495,14.76-14.913,25.545-24.138,37.454c-2.219,0-4.439,0-6.658,0
		c18.931,5.114,39.492-0.235,54.101-7.491c-0.541-0.847-1.914-0.861-1.666-2.497c5.295-6.274,11.791-13.213,15.814-21.64
		c3.329-6.971,3.11-17.117,10.821-20.808c-6.329,13.646-11.247,28.705-19.976,39.952c7.749-4.181,9.807-14.053,16.646-19.144
		c-3.014,10.58-10.469,16.72-15.813,24.97c7.354-4.58,13.87-17.202,19.976-25.802c2.462,3.373-3.56,7.912-5.826,11.652
		c-3.02,4.982-4.566,11.114-9.155,13.317c8.63-3.58,14.198-17.427,19.976-26.634c1.262,7.52-8.516,18.005-13.317,24.97
		c9.505-2.706,11.913-19.713,19.976-26.634c2.352,1.872-1.368,4.681-1.664,6.659c3.44-0.721,2.257-6.066,5.827-6.659
		c2.371,2.616-2.024,3.513-1.666,6.659c5.234-4.476,8.581-10.839,9.987-19.144c-4.254,2.404-2.589,10.727-8.321,11.653
		c3.249-8.125,5.767-16.982,9.987-24.137c0.663,4.271-1.753,5.461-1.666,9.155c3.873-1.4,1.973-8.571,6.66-9.155
		c2.057,2.156-1.796,3.094-1.665,5.826c1.4,1.88,3.113-2.935,3.329-4.994c4.44,1.932,2.219-1.958,6.659-1.665
		c-0.16,3.724-2.13,5.638-4.162,7.491c1.987,0.569,5.726-4.24,6.659-7.491c-5.968-3.187-18.339,0.026-19.975-7.491
		c4.518,2.236,11.864,3.855,15.813,4.161c-4.123-3.923-13.332-2.759-15.813-8.323c10.298,2.294,28.299,7.768,38.286,8.323
		c-1.866-3.012-5.529-1.004-7.491-2.497c2.665-3.199,5.979,0.04,9.157,0c5.203-0.064,10.134-3.434,15.814-4.161
		c9.558-1.225,20.936,1.322,29.963-4.994c-1.919-1.553-3.625-1.393-6.659,0.832c-0.052-4.369,4.784-10.637,9.154-13.317
		c-1.074,3.918-3.823,6.165-4.992,9.988c1.821-0.42,7.575-4.06,6.659-9.988c1.739-0.353,2.202,0.571,3.327,0.832
		c1.36-4.19-0.913-12.01,3.33-13.317c0.979,4.847,0.951,10.702,1.665,15.815c2.787-2.208,1.308-8.68,4.162-10.82
		c2.206-0.265-0.778,4.662,2.495,3.329c-2.554,1.481-2.485,2.418-1.664,5.826c1.771,1.711,6.012-5.582,8.323-3.329
		c-1.021,3.972-6.622,3.365-8.323,6.658c2.765,2.204,6.562-5.275,9.157-3.33c-1.564,4.541-6.567,5.64-9.157,9.156
		c3.885,1.24,8.953-7.503,13.316-5.826c-2.334,4.045-6.131,6.63-10.819,8.323c0.745,1.476,3.378,1.061,2.498,4.162
		c14.137,3.01,36.623,12.391,50.771,2.497c11.631,1.896,23.429-6.847,19.976-19.976c0.239,20.371-22.861,20.42-38.285,11.653
		c-2.891-2.104-3.034-6.956-7.492-7.491c-0.904-8.315,3.593-14.193,9.987-17.479c7.576,2.69,18.518,2.012,26.636,4.162
		c-4.887-5.329-17.43-5.723-24.972-5.826c-4.138-4.184-10.429-6.217-15.812-9.156c-32.896-7.487-80.619-6.521-114.86-14.149
		c-2.458,0.724,1.931,1.247,0.833,3.33c-9.09,4.228-13.256,13.379-20.808,19.144c5.011-8.306,10.22-16.413,19.142-20.808
		c-1.831-3.669-5.936-0.601-4.995,1.664c-8.41,4.629-13.137,12.941-20.807,18.312c3.865-8.342,10.113-14.302,17.479-19.144
		c-0.766-1.454-2.603-1.837-4.993-1.666c0.356,1.307,2.617,0.712,1.664,3.33c-11.21,4.882-15.868,16.316-24.97,23.306
		c5.593-9.39,12.868-17.097,20.808-24.138c-11.251,4.01-19.194,18.537-29.131,26.634c4.514-9.914,12.07-16.785,19.144-24.137
		c-12.34,5.415-16.688,18.824-27.466,25.802c5.604-9.655,13.384-17.135,20.808-24.97c-10.738,6.464-17.932,16.471-25.802,25.802
		c1.664-8.604,12.053-15.687,17.479-23.305c-11.5,5.701-17.264,17.139-25.802,25.802c8.895-18.573,24.147-35.224,41.617-42.448
		c-3.643,4.958-10.696,6.506-14.15,11.652c7.851-2.419,17.173-10.567,27.467-13.316c-1.438,3.833-6.488,4.055-8.324,7.49
		c12.785-3.209,36.393-3.488,49.941,1.665c2.493-0.547-0.797-1.778,0-3.329c2.545-0.604,2.448,1.436,4.993,0.832
		c-0.484-2.846-2.784-3.874-2.497-7.491c3.574,1.141,5.479,3.954,9.154,4.993c-0.064-4.652-4.096-5.335-4.161-9.987
		c6.663,2.493,8.16,10.151,14.148,13.317c4.252-1.934,0.127-4.422,1.666-7.49c3.63-0.301,3.483,3.174,4.993,4.994
		c2.071-2.347,0.816-7.266,4.993-9.156c2.156,1.07,2.616,1.721,1.667,4.162c5.748,0.719,3.985,2.01,8.321,1.664
		c-0.208,3.399-2.15,5.063-3.328,7.491c3.63-0.808,3.876-5.001,6.659-6.658c3.519,1.172,0.291,5.891-0.833,7.49
		c4.234,1.719,3.534-8.656,9.155-8.323c0.702,3.477-1.617,3.931-1.665,6.659c2.47-1.969,3.063-5.816,7.491-5.826
		c0.447,3.776-1.673,4.986-2.497,7.49c3.536-1.458,4.23-5.757,6.659-8.323c3.08-0.583,2.074,2.917,3.328,4.162
		c2.903-0.981,1.823-5.946,5.827-5.826c-0.484,4.786-3.793,6.749-4.162,11.652c4.5-3.27,4.384-11.154,9.988-13.318
		c0.968,3.198-3.116,7.771-4.162,11.652c7.646-2.896,5.435-15.651,14.149-17.478c-3.482,7.892-6.589,16.16-12.485,21.64
		c9.221-4.096,11.465-15.17,16.647-23.304c4.732,3.13,2.83,13.485,1.664,18.31c4.638,0.754,1.896-5.872,4.994-6.658
		c3.064-0.767,1.512,4.391,0.831,4.994c1.062,1.804,2.716-2.768,5.826-1.664c0.073,1.181,0.14,2.357-0.831,2.497
		c1.382,2.127,2.234-3.248,4.993-2.497c0.11,2.051,0.127,4.01-0.831,4.994c1.583,2.063,2.267-3.781,5.826-2.498
		c0.603,2.546-1.437,2.448-0.833,4.994c3.313-0.571,1.979-5.791,5.826-5.826c0.275,3.05-0.924,4.625-1.664,6.659
		c5.762,0.49,2.386-8.158,9.156-6.659c-0.14,2.357-1.525,3.469-1.666,5.826c2.923,1.778,2.644-6.764,7.491-5.826
		c0.669,2.888-1.24,3.2-0.832,5.826c3.177,2.307,1.754-7.096,6.658-5.826c1.528,1.625-0.232,4.658-0.832,6.659
		c3.934-1.061,2.856-7.131,7.49-7.491c-0.126,2.647-1.887,3.662-1.664,6.658c3.087-1.351,2.495-6.383,5.825-7.49
		c1.528,2.134-1.54,5.236-1.664,8.323c3.283,1.591,2.626-7.898,7.49-7.491c0.448,3.219-1.485,4.063-0.831,7.491
		c6.079-5.472,2.528-12.527,5.826-19.144c4.541-0.876-0.237,2.816,4.162,2.497c-4.832,6.522,2.875,10.173,0.833,15.814
		c1.464,1.679,3.3-3.309,4.993-4.162c3.209,0.781-0.253,4.666-0.831,6.658c3.195-0.963,3.285-5.036,7.49-4.993
		c0.701,3.476-1.618,3.93-1.664,6.658c3.775,0.448,2.221-4.437,5.825-4.162c1.827,1.75,0.173,3.701-0.832,4.994
		c3.009-0.321,3.974-2.685,5.826-4.162c2.503-0.838,1.475,1.854,1.664,3.33c2.621,0.402,1.885-2.555,4.994-1.666
		c1.56,1.585,0.092,2.091,0,4.162c4.623-4.19,10.428,0.004,15.814-3.329c1.775-0.39,1.585,1.189,1.664,2.497
		c2.456-0.537,3.369-5.37,5.826-3.331c-0.439,0.67-0.868,1.352-0.831,2.498c3.821-2.004,3.326-8.324,9.154-8.324
		c0.938-5.375-2.141-6.736-2.497-10.819c14.266,10.157-1.11,22.41-10.819,27.466c-28.981,2.284-53.412-5.928-84.897-0.832
		c-0.732-2.674,2.744-1.141,2.498-3.33c-1.504-2.508-2.55,2.366-5.827,0.832c-3.732,0.06,1.144-2.448,0.832-4.161
		c-2.19,1.971-3.643,4.68-7.491,4.993c-2.036-1.962,1.243-1.547,0.831-4.161c-2.723,1.161-2.634,5.134-7.49,4.161
		c-0.366-3.142,1.644-3.906,2.498-5.826c-3.546,0.892-3.456,5.421-7.491,5.826c-1.562-1.586,0.494-1.506,0-4.161
		c-3.25,1.932-3.184,4.995-8.322,3.329c6.646,3.269,19.369,1.312,27.466,0.832c-3.738,4.167-7.863,0.999-14.981,3.33
		c7.953,4.728,16.794,2.643,24.137,8.323c9.593,7.42,6.372,24.379-1.664,32.461c-8.255,2.843-16.657,5.539-25.804,7.491
		c-1.465,14.348-10.935,20.692-19.142,28.299c7.31,6.187,3.732,18.581,4.162,29.131c-3.465,1.53-3.971,6.018-9.157,5.826
		c-5.609,6.068-1.716,16.976-11.652,19.144c1.206,4.897,3.139,9.067,4.995,13.315c-2.203,15.277-12.174,22.785-18.312,34.126
		c-21.378,12.146-52.388,19.268-83.233,18.311c-34.998-1.084-66.107,2.245-95.717-8.323c-12.46-0.854-22.191-4.442-31.628-8.322
		c-5.668,7.22-11.137,26.59-24.97,17.479c-2.947-0.451-2.046,2.945-4.994,2.495c2.364-6.199-5.457-8.049-8.323-11.652
		c1.072,3.368,3.852,5.027,5.826,7.49c-2.723,1.335-9.182,2.124-13.317,2.498c-6.137-7.458-15.031-12.157-20.808-19.976
		c9.798,4.904,15.588,13.82,25.802,18.311c-7.135-10.897-21.433-14.634-25.802-28.299c6.428,5.225,11.331,11.974,17.478,17.48
		c-0.972-8.119-12.223-16.9-17.478-20.809c6.72-3.027,11.563,10.011,17.478,13.316c0.491-7.839-13.301-14.7-16.646-24.138
		c6.764,2.669,8.751,10.114,14.981,13.317c1.376-1.162-1.041-5.57-1.666-7.49c-13.98-11.543-26.111-24.938-36.621-39.952
		c-4.835,2.633,0.931,8.463,3.33,11.653c5.496,7.311,14.993,15.428,18.31,22.472c-9.181-6.077-13.585-16.933-23.304-22.472
		c3.657,10.801,16.343,19.7,23.304,29.963c-8.816-2.881-14.168-16.316-22.472-22.473c1.167,8.824,11.277,15.909,15.814,24.137
		c3.06,0.909,6.275,2.944,4.994,5.826c-7.833-6.871-15.417-13.99-19.976-24.136c-1.102,16.652,8.831,25.997,19.976,34.124
		c0.532,4.027-1.1,5.888,0,8.324c-1.698-0.245-1.632-2.253-3.329-2.498c-2.395,2.329,2.958,5.432,0,8.324
		c-2.808-1.809-2.042-2.014-4.994-3.331c-3.353-12.637-21.88-27.322-18.312-44.943c4.256-6.608,1.382-15.884,0.833-24.971
		c-1.257-20.767-0.674-42.413-5.827-60.76c1.963,1.222,1.549,1.757,4.162,0.833c7.201,16.83,16.665,30.858,29.131,44.112
		c-1.518-12.634-13.356-22.152-20.808-31.627c-4.631-12.009-12.838-22.042-15.814-33.293c12.392,16.74,19.624,38.64,34.958,52.437
		c-0.847-11.084-9.508-14.353-12.485-23.305c4.544,2.115,6.072,7.245,9.988,9.987c-0.442-7.528-7.812-11.438-9.988-20.808
		c4.889,2.602,6.081,8.901,10.821,11.652c-0.584-12.458-13.131-20.16-16.647-32.461c6.488,1.287,7.427,15.32,14.149,19.144
		c1.928-0.936-1.175-3.226,1.665-4.161c4.133,3.358,1.213,13.204,1.665,18.31c0.115,1.301,1.413,2.134,1.665,3.33
		c8.166,38.708,14.592,80.528,27.467,114.86c-0.906-39.567-13.188-79.229-19.144-114.86c4.442,2.34,3.238,9.077,4.161,13.317
		c4.613,21.188,12.023,46.823,14.149,70.748c4.43,4.016,1.632,10.423,5.827,14.981c-0.74,0.949-2.324-0.514-1.665,3.33
		c0.566,2.762,5.726,0.931,6.659,3.328c3.147-0.518-0.899-3.477,3.329-3.328c0,1.109,0,2.218,0,3.328
		c2.018-0.492,3.682-0.495,4.994-3.328c-5.747-4.801-14.395-11.124-14.149-19.144c4.13,2.806,4.508,9.363,9.155,11.651
		c-0.643-4.805-5.868-8.869-4.993-12.484c2.852,1.771,4.373,6.012,6.659,9.988c2.771,4.822,7.421,9.036,4.994,11.652
		c3.105,0.367,5.523,0.948,10.82,0.832c-16.328-19.741-26.048-46.087-32.461-75.741c3.775,0.605,1.956,3.957,2.498,5.826
		c7.035,24.31,16.417,48.186,31.628,66.587c-1.505-5.162-7.803-12.722-10.82-19.145c2.987-0.689,4.027,1.877,5.826,0
		c-0.567-3.035-3.313,0.178-6.658-0.832c-20.912-35.871-25.267-91.628-21.641-133.172c-4.633,2.343-8.51,0.328-13.316,2.498
		c-7.521,22.146,6.042,46.32,8.324,69.083c-3.19-3.537-4.436-9.815-5.828-15.813c-2.504-10.804-5.287-21.553-5.826-35.791
		c-3.657,6.248,0.307,21.199,0,29.964c-3.43,0.22-4.153-5.227-2.496-7.492c-6.852-18.337-0.906-41.379,6.658-59.095
		c-1.382-2.127-2.235,3.248-4.994,2.497c1.874-2.481-4.666-2.111-7.49-2.497c1.718-4.939,12.388-0.928,14.148-5.826
		c-4.239-3.555-12.341,3.708-14.981-3.33c-0.975,0.135-0.702,1.518-0.832,2.498c-2.005,0.341-1.809-1.521-4.161-0.832
		c-0.001-1.387-0.001-2.775,0-4.162C57.892,47.14,82.97,43.562,85.73,66.901c30.175-22.673,69.39-35.944,110.699-49.106
		c15.412-4.911,29.56-12.968,47.442-14.982c23.966-2.699,48.409-1.12,72.413-1.665c14.562-0.33,29.498-1.778,44.946-0.832
		c2.348,0.425,3.533,2.014,5.825,2.497c35.049-1.851,67.219,7.412,99.878,9.988c4.91,5.125,16.294,1.502,19.977,9.156
		c-20.133-7.492-44.679-10.666-65.754-7.492c-17.632-7.936-40.941-6.519-60.76-9.156c-0.847,0.541-0.861,1.914-2.496,1.665
		c-11.177-5.439-32.699,1.252-48.276-4.162c-11.103,4.522-22.163,2.548-33.292,1.664c-43.522-3.458-80.608,14.018-102.375,40.784
		c-6.501,10.978-14.027,20.931-21.641,30.796C161.244,52.525,177.365,36.187,195.596,21.957z M348.743,40.268
		c4.7-3.63,11.177-9.9,9.156-17.479C355.616,29.384,352.348,34.994,348.743,40.268z M328.768,36.106
		c2.914,0.14,2.621-2.929,4.161-4.162c-0.507-0.047-0.983-0.125-0.833-0.832c-0.553,0-1.107,0-1.664,0
		C330.832,33.73,329.246,34.365,328.768,36.106z M134.837,74.392c-14.612,21.18-20.349,51.232-35.791,71.58
		c10.428-6.497,13.085-20.763,20.809-29.963c11.138-30.201,20.356-62.32,42.448-81.568c-0.13-0.979,0.144-2.362-0.833-2.497
		C149.355,42.856,139.317,55.845,134.837,74.392z M207.249,36.106c2.481-0.293,5.068-0.481,5.826-2.498
		C210.278,33.586,208.672,34.755,207.249,36.106z M353.737,42.765c0.725-1.219,1.246-2.638,3.33-2.497
		c-2.132-2.415,1.454-4.788,0-5.827C356.249,36.985,352.108,40.538,353.737,42.765z M132.339,63.572
		c5.094-1.976,7.533-9.302,10.82-14.15c3.426-5.052,9.248-10.275,8.323-14.149C144.794,44.399,135.25,50.668,132.339,63.572z
		 M79.903,165.116c2.26-0.596-0.596,3.925,1.665,3.329c3.112-7.435,11.779-13.738,11.652-21.64
		C88.78,152.908,85.521,160.19,79.903,165.116z M143.16,39.435c-28.931,31.83-36.319,85.201-61.592,120.687
		c11.334-11.694,16.597-29.459,26.634-42.449c-2.953,11.197-9.648,18.651-14.149,28.299c16.012-16.997,25.712-46.207,35.79-69.083
		c1.14-2.589,3.499-9.901,2.497-11.652c-10.835,14.134-13.736,36.202-24.137,50.771C116.958,90.875,128.295,61.224,143.16,39.435z
		 M81.568,151.798c-2.019,3.105-5.602,0.798-3.329,5.827c17.702-20.308,28.589-54.643,39.951-84.065
		c5.585-9.954,13.17-22.339,16.647-31.627C110.097,71.57,102.203,118.056,81.568,151.798z M78.239,148.469
		c18.997-19.844,22.861-54.822,37.455-79.07c0.596-6.586,11.475-18.792,10.82-23.305C103.52,73.023,96.474,119.457,78.239,148.469z
		 M109.034,60.243c0.188-1.82,3.755-4.48,1.665-5.826c-15.713,20.916-26.641,51.035-33.292,78.239
		c4.539-5.008,6.823-11.266,9.155-18.311c1.128-3.412,0.647-7.76,1.664-10.819c2.395-7.207,7.042-14.372,9.988-21.641
		c2.989-7.375,5.444-15.817,10.82-19.976c-11.674,26.757-20.957,51.364-30.795,79.07c4.979-0.57,3.55-7.547,7.491-9.155
		c8.749-28.706,18.91-55.998,33.292-79.071c-0.093-1.015-0.249-1.97-1.664-1.665C114.088,53.644,113.501,58.884,109.034,60.243z
		 M75.741,58.579c-0.252-3.077-3.537-3.122-4.994-4.994C71.033,56.629,73.597,57.394,75.741,58.579z M75.741,123.499
		c0.255,1.92-2.404,0.925-2.497,2.498c2.077,2.196-1.744,7.206,1.665,9.156c4.492-28.089,17.254-52.546,29.131-75.742
		C90.413,76.58,81.42,98.383,75.741,123.499z M79.903,69.398c0.335-4.773-1.197-7.682-4.162-9.156
		C78.124,62.301,76.026,68.837,79.903,69.398z M391.192,65.237c-5.332-0.619-16.415-3.945-18.312-2.497
		C378.977,63.038,385.866,66.94,391.192,65.237z M72.413,99.363c2.434,1.343-1.327,4.29,0.832,4.994
		c3.015-2.812,2.26-9.393,6.659-10.821c-1.456,7.595-8.274,18.125-5.826,24.137c4.639-20.054,16.39-37.431,21.641-54.101
		c-6.866,7.871-10.043,23.762-17.479,28.299c3.362-7.462,9.322-16.752,10.82-23.305c-2.447,1.991-2.959,5.918-6.659,6.659
		c0.434-1.232,1.232-2.098,1.665-3.33c-3.628,1.936-11.052,4.465-9.155,9.156c0.843-2.21,1.369-4.736,4.162-4.994
		c-2.161,10.013-6.966,10.757-6.658,19.143c4.152-4.449,4.284-12.917,9.155-16.646C79.176,85.518,75.803,98.766,72.413,99.363z
		 M395.354,71.063c-11.173-2.761-28.375-13.197-34.959-1.665c2.36,0.971,5.504,1.155,6.659,3.33c-3.685,0.396-4.139-1.145-6.659,0
		c-6.948,0.846,3.987,1.019,3.33,0.832c6.819,1.936,20.417,7.628,29.131,8.324c0.081-3.688-6.254-0.959-6.659-4.162
		c3.704-0.651,4.996,1.109,8.323,0.833C395.504,76.042,396.549,73.595,395.354,71.063z M309.623,83.548
		c3.607-0.279,8.72,0.951,9.989-1.664c-1.989-0.507-6.039,1.044-6.658-0.832c1.938,0.535,4.429-4.356,0.831-4.162
		C312.731,79.441,310.952,81.269,309.623,83.548z M391.192,83.548c-9.548-1-18.446-7.073-27.467-5.826
		C372.876,79.119,382.606,84.36,391.192,83.548z M383.699,85.213c-2.671-0.689-7.375-3.678-9.985-1.665
		C377.02,83.603,381.748,86.569,383.699,85.213z M320.443,115.177c-3.37,1.363-3.829-4.405-5.826-1.665
		c1.67,1.383,3.87,2.235,4.162,4.995c-2.543,0.786-2.608,4.049-5.825,4.161c0.243-0.984,3.352-3.144,0.831-4.161
		c-1.269,3.19-5.715,7.574-9.154,5.826c2.662-2.609,5.544-4.999,8.323-7.492c-10.763-11.561-33.923-15.931-51.604-10.82
		c-7.125,4.291-16.735,22.445-6.66,30.796c-6.53-8.696,0.269-26.318,9.157-26.634c-0.932,2.904-9.565,6.212-4.995,9.156
		c2.175-8.779,9.856-7.593,16.647-10.821c0.025,1.237-3.406,3.719,0,3.329c2.846-0.483,3.875-2.783,7.491-2.496
		c-0.258,3.297-2.89-0.932-2.498,2.496c2.85,1.792,7.537,2.976,12.485,0.833c-0.032,2.402-4.704,1.968-2.497,4.161
		c3.18,0.188,4.478-4.262,7.49-1.664c-0.44,1.566-4.381,3.853-2.495,4.994c0.113-1.628,3.713-3.948,4.993-1.664
		c-3.444,0.995-4.292,4.586-7.491,5.826c-7.489-3.608-20.276-1.92-28.298-4.994c-1.457,0.289-5.147,2.516-2.498,4.161
		c9.75-0.866,26.433-1.467,32.461,4.162c0.265-0.963,2.576-3.92,3.328-1.665c0.086,3.693-4.322,2.891-4.993,5.827
		c5.637,0.71,6.915-6.668,10.819-4.994c-3.428,4.339-7.947,7.589-12.483,10.82c7.114,1.404,11.918-10.67,18.31-9.988
		c-3.696,6.018-13.563,10.288-15.812,14.981c8.479-4.005,14.352-10.616,21.639-15.813c0.06-3.027,3.547-6.948,5.826-4.994
		c-6.862,8.396-14.065,16.453-24.137,21.641c9.641,0.422,14.949-10.53,22.473-14.983c-2.678,7.865-10.491,10.595-15.815,15.815
		c7.38,1.17,10.679-8.667,17.479-10.821c-1.501,4.88-6.504,6.258-8.322,10.821c6.808-0.348,8.615-3.618,13.315-5.826
		c16.854-7.915,40.561-16.522,40.785-38.287c-12.447-1.184-22.533-1.243-31.628-4.162c2.432,0.356,5.987,2.09,4.162,4.162
		c-4.401-1.715-10.863-5.767-15.814-4.162c3.385,1.351,10.814,3.031,9.988,5.826c-5.114-2.656-11.694-3.843-16.647-6.659
		c3.822-2.201,7.978-3.252,12.485-0.833c-7.877-9.399-20.652,1.576-24.137,9.157c5.247,2.287,14.87-0.023,16.646,7.49
		c-4.899-0.926-8.494-3.16-11.652-5.826C311.125,112.544,319.244,107.872,320.443,115.177z M238.877,111.015
		c0.42-3.886,1.573-1.641,2.497,0c1.38-3.436,3.677-8.822,2.497-9.155C243.679,105.823,234.614,107.926,238.877,111.015z
		 M243.038,120.17c2.845-3.537,4.12-8.643,4.995-14.15c-4.103,1.462-7.144,8.375-6.659,11.652c0.245-0.739,2.251-3.643,2.497-1.664
		C242.987,116.354,241.938,120.573,243.038,120.17z M232.218,111.847c1.44,3.985-2.757,6.612-0.833,8.324
		c2.384-2.055,2.485-6.394,4.162-9.156C233.974,110.829,233.711,111.953,232.218,111.847z M236.38,121.003
		c-3.676,1.336-5.484,8.92-4.995,11.652c2.086-3.463,4.823-6.275,7.491-9.156c-3.896-4.255,1.14-9.358,0.832-11.652
		C238.898,115.395,233.728,116.445,236.38,121.003z M222.23,125.997c4.658-1.446,4.459-7.748,6.659-11.652c-0.833,0-1.664,0-2.497,0
		C225.606,118.829,223.424,121.919,222.23,125.997z M269.673,119.338c4.369-0.772,12.404,0.521,18.312,0.832
		c-1.621-5.317-9.696-4.177-14.982-5.826C275.85,118.53,269.975,116.145,269.673,119.338z M20.809,135.152
		c-1.046-0.183-1.701-1.296-1.665,0.832c-0.581,4.187,1.413,5.801,0.832,9.988c11.187,12.396,18.881,28.285,33.293,37.456
		c-1.002-8.065-6.348-10.903-10.82-15.815c-8.995-9.877-17.761-19.63-21.64-31.628c8.995,11.812,16.563,25.053,28.299,34.125
		c2.209-2.264-1.113-6.058-1.665-8.323c-12.177-8.909-22.331-27.052-31.628-41.616C15.876,126.768,19.601,129.701,20.809,135.152z
		 M285.487,125.997c-12.378,0.531-16.426-1.45-25.803-1.664C264.075,128.067,279.652,129.229,285.487,125.997z M215.573,147.637
		c3.449-1.821,7.209-3.332,9.154-6.658c-1.016-0.094-1.97-0.25-1.664-1.665c2.738-3.731,7.186-8.954,6.657-13.317
		c-3.108-0.89-2.371,2.068-4.993,1.665c1.843,3.443-0.506,6.347-3.328,7.491c-0.122-2.128,3.686-4.548,1.664-5.826
		c-1.185,2.144-5.412,1.246-5.826,4.161c2.477,4.176-5.181,9.768-4.162,12.485c4.39-1.436,3.949-7.703,9.156-8.323
		C220.676,141.106,215.848,145.67,215.573,147.637z M259.685,130.159c9.288,0.098,19.929,3.695,29.132,0.832
		C280.158,129.945,264.5,127.371,259.685,130.159z M226.392,140.146c0.155-1.232,2.011-0.763,3.328-0.832
		c-0.104-5.116,7.674-6.731,6.66-9.987C234.683,134.022,225.505,135.638,226.392,140.146z M277.996,135.152
		c-1.541,1.789-6.124,0.534-7.49,2.497c6.745,0.086,13.736,0.419,16.646-3.33c-8.402,0.713-23.528-3.675-28.299,0
		C266.452,134.25,272.168,135.366,277.996,135.152z M197.261,153.463c5.315-5.008,13.435-11.454,12.485-19.976
		C205.322,138.833,198.5,150.462,197.261,153.463z M297.971,184.26c0.762-1.459,1.549-2.893,4.162-2.498
		c-0.242,0.512-2.069,3.205,0,3.33c0.841-1.657,1.439-3.556,3.331-4.162c2.532,1.244-1.782,4.745,1.664,4.162
		c0.489-2.562,0.212-5.891,3.329-5.826c0.265,1.93-0.134,3.195-0.834,4.162c3.774,0.721,1.947-4.158,4.994-4.162
		c2.356-0.137-0.69,5.13,1.666,4.994c1.996-1.889,0.666-7.104,3.329-8.324c3.282-0.229,0.241,5.863,2.497,6.658
		c1.059-2.548,1.181-6.032,2.496-8.322c1.794,0.703,0.703,4.291,2.497,4.994c1.386-2.222-0.223-7.437,3.329-7.491
		c-0.225,3.45,1.094,3.243,0,5.827c4.303,0.417,1.041-6.728,3.331-8.324c2.4,5.18,2.554-6.445,6.657-0.833
		c-0.607-3.936,0.487-6.17,3.328-6.658c0.468,1.199,1.299,2.032,2.498,2.498c4.456-7.811,5.67-16.066,9.988-22.473
		c-4.632-0.363-3.323-6.665-6.659-8.323c-13.802,8.708-24.568,17.499-40.783,16.647c0.045,1.432-0.642,2.133-1.664,2.497
		c-10.662-3.892-24.353-2.021-32.461,1.665c0.441,5.126-7.265,9.782-1.664,12.485c-0.119-6.071,3.673-13.193,5.826-10.82
		c1.101,1.215-5.301,6.268-2.498,9.988c0.972-2.359,1.156-5.504,3.331-6.659c0.695,2.675,0.183,10.496-5.828,9.155
		c0.498,1.482-2.438,3.458,0,4.162c-0.614-4.253,2.695-3.383,3.331-0.832c-3.754,2.905-4.124,9.193-9.988,9.987
		c-0.131-0.979,0.143-2.362-0.833-2.496c-1.639,3.632-10.538,0.006-13.318,2.496c13.6-2.913,28.167,9.286,43.281,4.162
		c-2.877-1.204-3.922,0.93-5.826-0.832c-0.015-1.219,3.511-2.638,0-2.498c-1.541-2.543-1.245,3.669-4.162,2.498
		c-0.237-4.122,2.803-4.966,3.331-8.324c-4.198,0.521-3.295,6.139-7.492,6.66c3.614-4.709,4.42-12.227,7.492-17.479
		c-5.237,0.776-2.056,4.905-4.995,7.491c-0.01-1.101-1.458-0.761-1.664-1.665c2.035-5.218,3.829-14.79,10.821-17.479
		c-1.433,4.993-3.189,8.034-3.331,12.485c5.227-0.685,1.838-7.617,7.49-9.155c-1.772,5.994-4.453,11.082-7.49,15.814
		c1.244,0.142,3.072-0.298,3.331,0.832c-1.97,1.084-1.606,4.499-2.498,6.658c3.229-0.131,2.461-8.594,6.657-4.994
		c0.217,2.437-1.881,2.558-1.664,4.994c1.495-0.106,1.947,0.826,1.664,2.498C297.51,183.425,297.027,184.102,297.971,184.26z
		 M204.752,151.798c4.741-4.692,8.49-10.375,10.821-17.479C209.901,137.535,206.725,147.66,204.752,151.798z M262.182,140.979
		c6.81,2.032,19.104,1.857,24.137-0.833C279.428,140.648,268.704,140.204,262.182,140.979z M229.72,150.966
		c3.959-2.146,7.065-5.143,10.821-7.49C234.137,143.173,232.637,147.778,229.72,150.966z M242.207,145.14
		c-0.002,3.908-8.408,3.767-5.826,7.491c1.095-1.678,2.732-2.816,4.994-3.329c3.068,3.034,10.904,1.302,14.981,3.329
		c-0.931-6.213-8.418-0.895-12.485-4.162c4.042-2.164,9.072-1.904,14.981-0.832c0.479-0.504,1.949-3.948,0-4.161
		C256.071,147.339,249.547,145.667,242.207,145.14z M271.338,147.637c-3.231-1.76-8.143-1.581-9.988-0.832
		C265.887,147.257,269.731,149.971,271.338,147.637z M84.064,169.278c5.33-5.772,13.057-13.572,13.318-21.641
		C93.496,155.403,87.431,160.991,84.064,169.278z M85.73,172.606c-1.509,0.79-4.872,1.032-2.498,3.329
		c7.233-3.315,15.863-16.868,17.479-25.801C95.539,157.446,90.792,165.184,85.73,172.606z M40.784,185.092
		c-6.816-6.944-11.414-15.53-19.143-21.64c7.802,20.218,24.823,31.219,38.286,45.778C57.879,197.571,47.743,192.182,40.784,185.092z
		 M43.281,185.924c6.881,0.896,9.088,10.877,14.149,10.819c-2.284-2.595-3.553-2.98-2.497-7.489
		c-13.128-10.455-22.168-24.998-34.125-36.623C24.573,167.454,36.844,173.771,43.281,185.924z M91.556,184.26
		c5.617-7.427,15.884-14.632,15.813-24.97c-3.021,2.805-3.917,7.734-8.323,9.155c-0.768-6.905,9.546-10.555,4.994-15.813
		c-4.208,9.944-14.326,18.409-15.814,28.299c4.369-3.399,5.027-10.51,10.82-12.485C100.381,173.801,90.141,178.854,91.556,184.26z
		 M244.703,154.295c1.459,0.761,4.153,0.286,4.995,1.665c-1.276,1.32-8.559-1.598-10.821,0.832
		c9.337,2.039,18.614,4.137,28.299,5.826C266.197,154.278,251.266,151.565,244.703,154.295z M270.506,158.458
		c0.185-1.821,3.753-4.48,1.664-5.827C270.973,154.006,266.792,157.173,270.506,158.458z M229.72,171.774
		c-3.368-3.489-0.521-14.064-1.664-17.479c-4.04,5.039-0.829,9.179-1.664,14.982C229.066,168.545,227.533,172.021,229.72,171.774z
		 M161.471,176.768c8.931-3.28,17.567-11.281,19.976-18.31C174.842,164.616,168.333,170.868,161.471,176.768z M236.38,160.954
		c7.019,1.026,13.602,2.489,19.975,4.162c-6.403,3.402-15.804-4.581-20.808,0c10.319,1.055,20.319,2.431,27.466,6.659
		c-9.43,0.151-17.505-5.641-24.137-3.33c7.064,2.925,17.25,2.727,24.137,5.827c-4.64,2.736-11.717-3.08-16.647,0
		c2.58,0.472,6.331-0.226,6.659,2.496c-4.267-0.121-11.938-3.999-14.149-0.832c4.461-0.427,11.842,4.479,17.479,2.498
		c-0.904-0.2-1.998-1.372-0.832-1.666c3.03-0.257,5.416,0.133,7.49,0.834c1.718-2.444,1.688-6.638,4.994-7.492
		c-3.798,1.024,0.078-5.626-2.497-5.826C257.943,164.729,244.636,157.36,236.38,160.954z M90.723,190.917
		c1.177,3.662,1.974-1.218,2.498-1.663c7.717-6.56,19.063-17.324,19.144-27.468C104.688,171.035,99.077,182.347,90.723,190.917z
		 M158.975,190.086c1.622-5.601,8.968-9.886,9.155-14.15c-9.367,6.17-13.729,17.345-23.306,23.306
		c3.911-7.742,9.509-13.796,15.815-19.144c-2.546-0.604-2.448,1.436-4.994,0.832c0.128,2.07-1.307,2.576-1.665,4.162
		c-14.825,9.868-27.194,26.629-39.119,36.621c8.814-3.673,16.975-12.428,24.136-14.981c-6.551,5.934-13.827,11.143-19.976,17.479
		c8.317-1.953,14.282-10.682,21.641-10.82c-1.133,0.61-4.294,3.367-1.666,4.994c4.938-2.285,9.876-8.979,14.15-9.155
		c-6.347,7.528-18.469,13.71-24.138,19.144c10.705-0.952,16.39-11.351,24.97-11.652c-6.496,5.988-15.044,9.926-21.641,15.813
		c7.774-0.826,10.087-7.114,18.312-7.491c-2.319,4.062-8.2,4.562-10.82,8.324c10.477-3.95,19.247-9.607,26.634-16.646
		c0.229,2.92,3.101-2.089,3.329,0.832c-7.095,7.332-16.699,12.153-25.802,17.479c7.27-0.784,13.074-7.447,19.976-5.826
		c-2.007,2.727-10.422,3.425-9.155,6.658c9.097-2.328,14.806-12.316,23.304-12.484c-2.297,4.639-9.265,4.606-10.82,9.988
		c9.09-1.182,11.681-13.283,19.976-12.486c-3.453,8.204-14.677,13.062-17.479,19.145c9.828-5.154,15.797-14.167,24.97-19.977
		c-3.721,9.599-15.563,15.506-19.144,22.472c3.102-3.128,7.361-4.349,10.82-7.489c5.548-5.038,8.831-14.405,15.814-14.982
		c-5.044,8.55-12.288,14.901-19.144,21.641c11.104-4.988,16.308-15.875,24.97-23.305c-2.173,10.314-13.703,15.701-16.646,22.472
		c9.639-5.62,14.512-16.006,23.304-22.472c-3.172,10.424-13.959,17.664-18.31,24.136c11.048-7.539,19.795-17.38,24.97-30.794
		c1.108,0,2.219,0,3.328,0c-0.938,2.947-2.237,5.53-4.994,6.658c-0.434,9.317-8.125,13.476-13.317,20.809
		c13.666-6.428,21.538-21.749,23.304-37.456c-5.676-0.405-2.245,8.298-7.49,8.324c0.795-5.863,2.022-11.295,4.995-14.982
		c-1.137-4.283-1.472-3.392,0.831-6.657c-2.173,0.231-4.165,0.279-3.329-2.498c-2.483-0.186-2.831,3.073-4.994,0.832
		c-0.07-3.121,3.049-3.055,3.33-5.826c-3.986,0.176-3.153,5.17-8.324,4.162c1.4-4.15,5.021-6.077,9.155-7.49
		c-2.066-1.97-4.898-0.009-7.49,0c0.948-3.215,5.188-3.136,6.659-5.827c-5.466-0.455-6.867,7.538-11.653,4.993
		c1.289-3.427,5.518-3.914,7.491-6.658c-5.51,0.883-8.757,8.429-13.317,7.492c2.184-5.316,12.2-7.211,12.484-11.653
		c-7.792,3.028-12.496,9.144-19.976,12.485c4.532-7.398,13.005-10.855,19.144-16.647c-9.964,3.077-15.401,10.68-23.305,15.815
		c-1.978,2.481-3.913,9.376-8.323,6.658c5.896-8.254,14.602-13.697,21.64-20.808c-11.761,4.33-17.734,14.449-26.634,21.64
		c3.63-9.688,12.654-13.981,19.144-20.808c-1.96-0.019-2.451,1.433-4.994,0.832c-2.083,4.792-7.882,6.696-11.653,10.82
		c-2.8,3.064-3.853,10.816-9.155,9.156c4.744-8.019,11.673-13.853,18.311-19.976c-9.145,2.508-12.908,10.397-19.144,15.814
		c-0.821,2.267-2.409,8.085-5.826,4.994c3.586-6.125,8.17-11.251,13.317-15.814C170.054,173.422,167.916,185.155,158.975,190.086z
		 M117.358,163.452c-7.685,10.903-15.703,21.474-24.97,30.795C102.949,187.308,115.392,173.445,117.358,163.452z M153.148,177.602
		c7.921-2.072,15.412-8.996,16.646-14.983C164.662,168.029,157.961,171.872,153.148,177.602z M123.184,178.434
		c-8,8.368-22.78,9.957-26.634,22.472c4.423-2.799,8.858-9.995,13.316-9.988c-3.03,5.849-9.667,8.089-12.484,14.15
		c5.451-0.097,5.194-5.904,9.987-6.658c-1.109,4.162-4.635,5.908-5.826,9.987c5.184,0.171,5.291-7.624,9.988-6.659
		c-3.293,4.661-4.422,6.455-7.491,10.821c4.748,0.308,4.539-4.34,9.155-4.162c-1.598,2.861-7.632,5.657-6.658,8.324
		c4.023-2.358,6.408-6.354,11.652-7.491c-1.466,4.081-6.204,4.894-8.324,8.323c7.325-0.723,10.023-6.071,15.815-8.323
		c5.069-9.36,17.964-15.326,20.808-24.138c-5.789,2.014-17.113-5.525-26.634-0.832c5.114-6.265,16.641-10.542,17.478-18.312
		c-4.48,3.296-8.018,11.947-14.149,10.819c1.338-2.822,5.248-3.074,5.826-6.658c-5.345,2.155-10.172,9.236-14.982,9.156
		c2.432-2.562,4.104-5.884,5.827-9.156c-5.9,6.034-13.527,14.769-17.479,19.977C109.217,184.865,114.504,178.093,123.184,178.434z
		 M134.837,181.762c7.536-3.561,14.194-8,17.478-15.813C146.883,171.062,137.544,176.695,134.837,181.762z M143.16,180.93
		c6.803-3.189,15.323-9.084,16.647-14.981C153.96,170.645,147.422,174.649,143.16,180.93z M129.01,180.93
		c4.74-1.647,11.685-8.284,15.813-13.317C138.51,171.009,132.75,174.959,129.01,180.93z M266.344,177.602
		c2.406,1.031,3.794,0.424,4.162-2.498c-0.833,0-1.666,0-2.498,0C268.258,176.74,266.885,176.755,266.344,177.602z M237.212,205.067
		c-1.366-4.304-3.491-8.006-2.497-11.652c1.713-6.284,7.521-5.037,9.988-9.155C232.618,183.495,229,198.846,237.212,205.067z
		 M270.506,192.583c-0.237,0.976-3.667,3.458,0,3.328c0.924-1.573,2.076-2.917,2.497-4.994c-7.469-1.595-18.422-6.045-24.97-3.329
		C256.877,187.899,264.531,189.401,270.506,192.583z M258.852,215.887c-0.978,0.131-2.362-0.143-2.497,0.834
		c14.741,5.836,32.249,1.676,45.777,5.826c1.292-2.895,5.866-6.867,7.49-6.66c-0.483,3.956-3.663,5.216-6.657,6.66
		c4.93-0.745,10.172,2.56,14.149,0c-4.521-0.946-6.758,0.849-9.156-1.666c3.847-2.257,4.147-8.06,9.156-9.154
		c-1.216,1.6-3.615,6.317-2.498,7.49c2.95-2.878,4.409-7.245,8.324-9.155c0.1,2.107-3.515,4.719-1.665,5.825
		c5.041-7.066,11.69-14.451,10.819-24.97c1.107-2.037,3.098,0.916,3.331-0.831c-1.233-0.155-0.764-2.012-0.833-3.33
		c-12.092-3.127-20.854,5.359-32.461,6.659c-7.588,0.849-13.91-2.477-22.472-0.832c-4.807,8.233-7.336,18.743-14.981,24.138
		c-0.037-1.146,0.391-1.829,0.831-2.498c-8.143,0.367-15.278-4.687-20.808-4.161C248.653,214.615,253.632,213.081,258.852,215.887z
		 M259.685,195.079c-6.117,0.847-7.818-2.724-14.148-1.664c1.611,3.659,9.401,1.139,10.819,4.994
		c-4.399,0.489-8.857-3.316-12.485-0.832c8.075,1.634,14.15,5.27,23.306,5.826c-0.933-2.622-0.076-1.886,0-4.994
		c-1.344-1.154-4.292-0.704-4.995-2.498c1.475-0.188,4.168,0.839,3.329-1.664c-5.351-0.519-4.46-2.154-9.987-2.497
		C254.989,194.781,259.489,192.778,259.685,195.079z M272.17,200.073c2.218-1.266,6.639-6.781,3.329-8.323
		C275.998,195.924,270.962,197.834,272.17,200.073z M321.276,219.217c6.243-5.25,15.415-16.054,14.15-23.306
		C332.683,205.652,326.216,211.672,321.276,219.217z M264.68,210.894c-0.342-2.005,1.52-1.81,0.831-4.162
		c-7.271-3.274-17.8-7.719-26.634-6.658C251.021,200.137,250.815,212.55,264.68,210.894z M243.871,208.396
		c-1.662-0.271-8.208-2.687-8.323,0.833C237.845,207.262,242.726,209.728,243.871,208.396z M229.72,215.887
		c-1.198,0.467-2.029,1.299-2.495,2.498c-0.277,5.836-6.604,12.811-10.821,17.479c-2.547,0.517-2.656,4.27-0.832,0.832
		c5.221-1.436,7.057-6.26,11.652-8.322c2.123-4.257,3.206-9.556,6.657-12.486c0.402,11.548-10.292,19.083-17.478,25.803
		c7.96-1.75,10.034-9.387,16.646-12.484c-2.356,5.968-7.119,9.525-10.82,14.148c9.036-3.451,14.019-15.385,19.976-19.143
		c-1.282,5.378-4.075,9.242-6.659,13.316c5.843-3.59,9.872-8.993,10.819-17.479c-5.282,1.545-1.984-0.318-4.993-1.664
		c-1.871,3.123-1.762,8.226-6.659,8.322c1.194-4.076,2.968-7.574,4.162-11.652c-2.633-1.144-2.781-0.181-5.826,0
		c0-1.941,0-3.884,0-5.825C228.594,209.628,230.689,211.702,229.72,215.887z M121.52,227.541c4.781-3.543,12.641-4.007,15.814-9.156
		C131.675,217.482,123.607,224.953,121.52,227.541z M236.38,244.188c6.034-3.166,19.485-18.4,11.652-22.475
		C246.4,230.906,240.306,240.06,236.38,244.188z M244.703,242.521c6.19-2.692,11.457-10.729,9.987-18.31
		C252.51,231.463,248.499,236.886,244.703,242.521z M40.784,234.199c-3.854-0.607-5.446-7.845-9.156-5.826
		C34.863,229.598,36.665,236.626,40.784,234.199z M252.193,242.521c2.74-4.751,7.376-7.606,7.491-14.979
		C255.233,230.035,253.332,239.485,252.193,242.521z M277.165,240.856c2.63,0.385,8.276-7.785,7.49-10.819
		C282.027,233.514,279.823,237.412,277.165,240.856z M256.355,241.689c4.211-0.228,2.899-5.979,6.659-6.658
		c0.874,5.312-2.285,6.592-3.33,9.987c6.724-0.556,5.82-9.777,1.666-13.317C260.416,235.762,257.832,238.172,256.355,241.689z
		 M270.506,238.361c0.72-2.096,5.289-4.644,3.328-6.66C273.738,234.421,268.95,236.75,270.506,238.361z M274.667,237.527
		c4.025,0.42,3.167-4.045,4.995-5.826C277.563,233.211,274.992,234.246,274.667,237.527z M281.325,241.689
		c3.539-1.887,10.893-6.412,7.491-9.988C286.738,235.45,283.184,237.721,281.325,241.689z M290.48,240.025
		c1.362-2.822,7.304-5.429,5.826-8.324C295.293,234.871,289.578,237.703,290.48,240.025z M158.975,238.361
		c3.123-1.039,6.398-1.923,7.49-4.994C163.599,234.661,160.981,236.206,158.975,238.361z M89.891,250.845
		c4.887-0.106,8.176-1.812,9.989-4.993C96.099,247.064,92.93,248.89,89.891,250.845z"/>
	<path fill-rule="evenodd" clip-rule="evenodd" d="M221.399,20.292c0.012,3.62-4.871,2.345-5.826,4.995
		C213.577,22.965,219.596,21.577,221.399,20.292z"/>
	<path fill-rule="evenodd" clip-rule="evenodd" fill="#FFFFFF" d="M357.067,34.441c1.454,1.039-2.132,3.412,0,5.827
		c-2.084-0.141-2.605,1.278-3.33,2.497C352.108,40.538,356.249,36.985,357.067,34.441z"/>
	<path fill-rule="evenodd" clip-rule="evenodd" fill="#FFFFFF" d="M93.22,146.805c0.127,7.901-8.541,14.205-11.652,21.64
		c-2.26,0.597,0.595-3.924-1.665-3.329C85.521,160.19,88.78,152.908,93.22,146.805z"/>
	<path fill-rule="evenodd" clip-rule="evenodd" fill="#FFFFFF" d="M104.041,59.411c-11.877,23.196-24.639,47.653-29.131,75.742
		c-3.408-1.95,0.413-6.96-1.665-9.156c0.093-1.573,2.752-0.577,2.497-2.498C81.42,98.383,90.413,76.58,104.041,59.411z"/>
	<path fill-rule="evenodd" clip-rule="evenodd" fill="#FFFFFF" d="M372.881,62.74c1.896-1.448,12.979,1.878,18.312,2.497
		C385.866,66.94,378.977,63.038,372.881,62.74z"/>
	<path fill-rule="evenodd" clip-rule="evenodd" fill="#FFFFFF" d="M81.568,78.554c-4.872,3.729-5.003,12.198-9.155,16.646
		c-0.308-8.386,4.497-9.13,6.658-19.143c-2.793,0.258-3.319,2.784-4.162,4.994c-1.897-4.691,5.527-7.221,9.155-9.156
		c-0.433,1.232-1.231,2.098-1.665,3.33c3.7-0.741,4.212-4.668,6.659-6.659c-1.498,6.553-7.458,15.842-10.82,23.305
		c7.436-4.537,10.613-20.428,17.479-28.299c-5.25,16.669-17.002,34.047-21.641,54.101c-2.448-6.012,4.371-16.542,5.826-24.137
		c-4.398,1.428-3.644,8.008-6.659,10.821c-2.159-0.705,1.602-3.651-0.832-4.994C75.803,98.766,79.176,85.518,81.568,78.554z"/>
	<path fill-rule="evenodd" clip-rule="evenodd" fill="#FFFFFF" d="M310.457,105.189c3.158,2.666,6.753,4.899,11.652,5.826
		c-1.775-7.513-11.398-5.203-16.646-7.49c3.484-7.581,16.26-18.556,24.137-9.157c-4.508-2.42-8.663-1.368-12.485,0.833
		c4.953,2.816,11.533,4.003,16.647,6.659c0.826-2.795-6.604-4.476-9.988-5.826c4.951-1.605,11.413,2.446,15.814,4.162
		c1.825-2.071-1.73-3.805-4.162-4.162c9.095,2.918,19.181,2.978,31.628,4.162c-0.225,21.765-23.932,30.373-40.785,38.287
		c-4.7,2.208-6.508,5.478-13.315,5.826c1.818-4.562,6.821-5.941,8.322-10.821c-6.801,2.154-10.1,11.991-17.479,10.821
		c5.324-5.22,13.138-7.95,15.815-15.815c-7.523,4.453-12.832,15.405-22.473,14.983c10.071-5.188,17.274-13.245,24.137-21.641
		c-2.279-1.954-5.767,1.967-5.826,4.994c-7.287,5.198-13.16,11.809-21.639,15.813c2.248-4.693,12.115-8.964,15.812-14.981
		c-6.392-0.682-11.195,11.392-18.31,9.988c4.536-3.231,9.056-6.481,12.483-10.82c-3.904-1.674-5.183,5.704-10.819,4.994
		c0.671-2.936,5.079-2.134,4.993-5.827c-0.752-2.256-3.063,0.702-3.328,1.665c-6.028-5.629-22.711-5.028-32.461-4.162
		c-2.649-1.645,1.042-3.872,2.498-4.161c8.022,3.074,20.809,1.386,28.298,4.994c3.199-1.24,4.047-4.832,7.491-5.826
		c-1.28-2.284-4.88,0.036-4.993,1.664c-1.886-1.141,2.055-3.427,2.495-4.994c-3.013-2.598-4.311,1.852-7.49,1.664
		c-2.207-2.193,2.465-1.759,2.497-4.161c-4.948,2.143-9.635,0.958-12.485-0.833c-0.392-3.428,2.24,0.801,2.498-2.496
		c-3.616-0.287-4.645,2.013-7.491,2.496c-3.406,0.39,0.025-2.092,0-3.329c-6.791,3.228-14.472,2.042-16.647,10.821
		c-4.571-2.943,4.063-6.252,4.995-9.156c-8.888,0.316-15.687,17.938-9.157,26.634c-10.075-8.351-0.464-26.505,6.66-30.796
		c17.681-5.111,40.841-0.74,51.604,10.82c-2.779,2.493-5.661,4.882-8.323,7.492c3.439,1.748,7.886-2.636,9.154-5.826
		c2.521,1.017-0.588,3.176-0.831,4.161c3.217-0.111,3.282-3.375,5.825-4.161c-0.292-2.759-2.492-3.611-4.162-4.995
		c1.997-2.74,2.456,3.028,5.826,1.665C319.244,107.872,311.125,112.544,310.457,105.189z M312.121,99.363
		c7.308-1.192,10.987,5.643,16.646,3.329C325.013,100.383,315.182,94.488,312.121,99.363z M308.792,102.691
		c6.396-1.521,11.106,6.044,14.982,1.666C318.8,104.712,312.826,97.79,308.792,102.691z M298.804,125.165
		c2.973-0.912,4.915-2.854,5.827-5.826C301.037,119.629,299.095,121.571,298.804,125.165z"/>
	<path fill-rule="evenodd" clip-rule="evenodd" d="M211.41,100.195c-1.597,8.118-4.122,22.509-11.652,27.466
		C203.615,118.479,207.287,109.111,211.41,100.195z"/>
	<path fill-rule="evenodd" clip-rule="evenodd" fill="#FFFFFF" d="M243.871,101.859c1.181,0.333-1.116,5.72-2.497,9.155
		c-0.924-1.641-2.077-3.886-2.497,0C234.614,107.926,243.679,105.823,243.871,101.859z"/>
	<path fill-rule="evenodd" clip-rule="evenodd" fill="#FFFFFF" d="M243.871,116.009c-0.245-1.979-2.252,0.925-2.497,1.664
		c-0.485-3.278,2.556-10.19,6.659-11.652c-0.875,5.507-2.15,10.613-4.995,14.15C241.938,120.573,242.987,116.354,243.871,116.009z"
		/>
	<path fill-rule="evenodd" clip-rule="evenodd" fill="#FFFFFF" d="M239.708,111.847c0.309,2.294-4.728,7.397-0.832,11.652
		c-2.668,2.881-5.405,5.693-7.491,9.156c-0.49-2.732,1.318-10.316,4.995-11.652C233.728,116.445,238.898,115.395,239.708,111.847z"
		/>
	<path fill-rule="evenodd" clip-rule="evenodd" d="M156.477,124.333c-8.206,14.734-12.993,27.947-26.634,37.454
		c-0.762-2.923,3.288-5.304,5.826-8.323c2.863-3.403,6.557-7.76,9.155-11.652C148.851,135.783,150.157,127.339,156.477,124.333z"/>
	<path fill-rule="evenodd" clip-rule="evenodd" fill="#FFFFFF" d="M222.23,137.649c-5.207,0.62-4.766,6.887-9.156,8.323
		c-1.019-2.717,6.639-8.309,4.162-12.485c0.415-2.915,4.641-2.017,5.826-4.161c2.021,1.277-1.786,3.698-1.664,5.826
		c2.822-1.144,5.171-4.048,3.328-7.491c2.623,0.403,1.885-2.554,4.993-1.665c0.528,4.364-3.919,9.586-6.657,13.317
		c-0.306,1.415,0.648,1.571,1.664,1.665c-1.945,3.326-5.706,4.837-9.154,6.658C215.848,145.67,220.676,141.106,222.23,137.649z"/>
	<path fill-rule="evenodd" clip-rule="evenodd" fill="#FFFFFF" d="M236.38,129.327c1.014,3.256-6.765,4.872-6.66,9.987
		c-1.317,0.069-3.173-0.4-3.328,0.832C225.505,135.638,234.683,134.022,236.38,129.327z"/>
	<path fill-rule="evenodd" clip-rule="evenodd" fill="#FFFFFF" d="M258.852,134.32c4.771-3.675,19.897,0.713,28.299,0
		c-2.91,3.749-9.901,3.416-16.646,3.33c1.366-1.963,5.949-0.708,7.49-2.497C272.168,135.366,266.452,134.25,258.852,134.32z"/>
	<path fill-rule="evenodd" clip-rule="evenodd" d="M12.485,164.284c-5.881-8.818-5.03-21.215-5.826-30.796
		c2.744,11.911,5.937,19.802,7.49,33.293c-0.832,0-1.664,0-2.497,0c3.042,0.843,2.987,4.782,3.33,8.323
		C11.064,174.888,9.898,165.778,12.485,164.284z"/>
	<path fill-rule="evenodd" clip-rule="evenodd" fill="#FFFFFF" d="M209.746,133.487c0.95,8.522-7.17,14.968-12.485,19.976
		C198.5,150.462,205.322,138.833,209.746,133.487z"/>
	<path fill-rule="evenodd" clip-rule="evenodd" fill="#FFFFFF" d="M297.971,183.428c0.283-1.672-0.169-2.604-1.664-2.498
		c-0.217-2.437,1.881-2.558,1.664-4.994c-4.196-3.6-3.428,4.863-6.657,4.994c0.892-2.159,0.528-5.574,2.498-6.658
		c-0.259-1.13-2.087-0.69-3.331-0.832c3.037-4.732,5.718-9.821,7.49-15.814c-5.652,1.538-2.264,8.47-7.49,9.155
		c0.142-4.451,1.898-7.492,3.331-12.485c-6.992,2.689-8.786,12.261-10.821,17.479c0.206,0.904,1.654,0.564,1.664,1.665
		c2.939-2.586-0.242-6.715,4.995-7.491c-3.071,5.253-3.877,12.771-7.492,17.479c4.197-0.521,3.294-6.139,7.492-6.66
		c-0.528,3.358-3.568,4.202-3.331,8.324c2.917,1.171,2.621-5.041,4.162-2.498c3.511-0.14-0.015,1.279,0,2.498
		c1.904,1.762,2.949-0.372,5.826,0.832c-15.114,5.124-29.681-7.075-43.281-4.162c2.78-2.49,11.679,1.136,13.318-2.496
		c0.976,0.134,0.702,1.517,0.833,2.496c5.865-0.794,6.234-7.082,9.988-9.987c-0.636-2.551-3.945-3.421-3.331,0.832
		c-2.438-0.704,0.498-2.68,0-4.162c6.01,1.341,6.522-6.479,5.828-9.155c-2.175,1.154-2.359,4.3-3.331,6.659
		c-2.803-3.72,3.599-8.773,2.498-9.988c-2.153-2.373-5.945,4.749-5.826,10.82c-5.601-2.703,2.105-7.359,1.664-12.485
		c8.108-3.686,21.799-5.557,32.461-1.665c1.022-0.363,1.709-1.065,1.664-2.497c16.215,0.852,26.981-7.938,40.783-16.647
		c3.336,1.659,2.027,7.96,6.659,8.323c-4.318,6.407-5.532,14.662-9.988,22.473c-1.199-0.466-2.03-1.299-2.498-2.498
		c-2.841,0.488-3.936,2.723-3.328,6.658c-4.104-5.611-4.257,6.014-6.657,0.833c-2.29,1.596,0.972,8.741-3.331,8.324
		c1.094-2.584-0.225-2.377,0-5.827c-3.552,0.055-1.943,5.27-3.329,7.491c-1.794-0.703-0.703-4.291-2.497-4.994
		c-1.315,2.29-1.438,5.774-2.496,8.322c-2.256-0.795,0.785-6.888-2.497-6.658c-2.663,1.221-1.333,6.436-3.329,8.324
		c-2.356,0.136,0.69-5.131-1.666-4.994c-3.047,0.004-1.22,4.883-4.994,4.162c0.7-0.967,1.099-2.232,0.834-4.162
		c-3.117-0.064-2.84,3.264-3.329,5.826c-3.446,0.583,0.868-2.918-1.664-4.162c-1.892,0.606-2.49,2.505-3.331,4.162
		c-2.069-0.125-0.242-2.818,0-3.33c-2.613-0.395-3.4,1.039-4.162,2.498C297.027,184.102,297.51,183.425,297.971,183.428z
		 M298.804,177.602c3.587,0.798,2.818-5.262,1.665-6.66c-2.028,0.471-4.281,0.713-4.162,3.33
		C298.5,174.021,299.039,175.424,298.804,177.602z M279.661,170.941c5.319-3.005,4.889-11.756,8.323-16.646
		C282.302,156.479,280.306,166.464,279.661,170.941z M273.002,182.594c3.061-2.211,4.544-5.997,6.659-9.154
		C275.966,175.017,274.333,178.653,273.002,182.594z M277.165,182.594c4.288-0.981,5.637-4.904,7.49-8.322
		c-1.064-0.046-1.151-1.066-2.497-0.832C280.986,176.983,278.132,178.847,277.165,182.594z"/>
	<path fill-rule="evenodd" clip-rule="evenodd" fill="#FFFFFF" d="M261.35,146.805c1.845-0.749,6.757-0.928,9.988,0.832
		C269.731,149.971,265.887,147.257,261.35,146.805z"/>
	<path fill-rule="evenodd" clip-rule="evenodd" fill="#FFFFFF" d="M99.046,168.444c-5.793,1.976-6.451,9.086-10.82,12.485
		c1.489-9.89,11.606-18.355,15.814-28.299C108.592,157.89,98.278,161.54,99.046,168.444c4.406-1.42,5.302-6.35,8.323-9.155
		c0.07,10.338-10.197,17.543-15.813,24.97C90.141,178.854,100.381,173.801,99.046,168.444z"/>
	<path fill-rule="evenodd" clip-rule="evenodd" fill="#FFFFFF" d="M226.392,169.278c0.835-5.804-2.376-9.944,1.664-14.982
		c1.143,3.415-1.704,13.99,1.664,17.479C227.533,172.021,229.066,168.545,226.392,169.278z"/>
	<path fill-rule="evenodd" clip-rule="evenodd" fill="#FFFFFF" d="M181.447,158.458c-2.409,7.029-11.045,15.03-19.976,18.31
		C168.333,170.868,174.842,164.616,181.447,158.458z"/>
	<path fill-rule="evenodd" clip-rule="evenodd" fill="#FFFFFF" d="M112.364,161.786c-0.081,10.144-11.426,20.908-19.144,27.468
		c-0.523,0.445-1.321,5.325-2.498,1.663C99.077,182.347,104.688,171.035,112.364,161.786z"/>
	<path fill-rule="evenodd" clip-rule="evenodd" fill="#FFFFFF" d="M180.614,170.109c-5.147,4.563-9.731,9.689-13.317,15.814
		c3.417,3.091,5.005-2.728,5.826-4.994c6.236-5.417,10-13.306,19.144-15.814c-6.637,6.124-13.566,11.958-18.311,19.976
		c5.302,1.66,6.354-6.092,9.155-9.156c3.771-4.124,9.57-6.027,11.653-10.82c2.543,0.601,3.034-0.851,4.994-0.832
		c-6.49,6.827-15.514,11.12-19.144,20.808c8.9-7.191,14.873-17.311,26.634-21.64c-7.038,7.111-15.744,12.554-21.64,20.808
		c4.41,2.718,6.346-4.177,8.323-6.658c7.904-5.136,13.341-12.739,23.305-15.815c-6.139,5.792-14.612,9.249-19.144,16.647
		c7.48-3.342,12.184-9.458,19.976-12.485c-0.285,4.442-10.301,6.337-12.484,11.653c4.56,0.937,7.807-6.609,13.317-7.492
		c-1.973,2.744-6.202,3.231-7.491,6.658c4.786,2.545,6.187-5.448,11.653-4.993c-1.471,2.691-5.711,2.612-6.659,5.827
		c2.592-0.009,5.423-1.97,7.49,0c-4.134,1.413-7.755,3.34-9.155,7.49c5.171,1.008,4.338-3.986,8.324-4.162
		c-0.281,2.771-3.4,2.705-3.33,5.826c2.163,2.241,2.51-1.018,4.994-0.832c-0.835,2.777,1.156,2.729,3.329,2.498
		c-2.303,3.266-1.968,2.374-0.831,6.657c-2.972,3.688-4.199,9.119-4.995,14.982c5.245-0.026,1.813-8.729,7.49-8.324
		c-1.766,15.707-9.639,31.028-23.304,37.456c5.192-7.333,12.883-11.491,13.317-20.809c2.756-1.128,4.056-3.711,4.994-6.658
		c-1.109,0-2.22,0-3.328,0c-5.175,13.414-13.922,23.255-24.97,30.794c4.351-6.472,15.138-13.712,18.31-24.136
		c-8.792,6.466-13.666,16.852-23.304,22.472c2.944-6.771,14.474-12.157,16.646-22.472c-8.662,7.43-13.867,18.316-24.97,23.305
		c6.855-6.739,14.099-13.091,19.144-21.641c-6.983,0.577-10.266,9.944-15.814,14.982c-3.459,3.141-7.719,4.361-10.82,7.489
		c3.58-6.966,15.422-12.873,19.144-22.472c-9.172,5.81-15.142,14.822-24.97,19.977c2.802-6.083,14.026-10.94,17.479-19.145
		c-8.295-0.797-10.886,11.305-19.976,12.486c1.555-5.382,8.522-5.35,10.82-9.988c-8.499,0.168-14.207,10.156-23.304,12.484
		c-1.267-3.233,7.147-3.932,9.155-6.658c-6.902-1.621-12.706,5.042-19.976,5.826c9.103-5.325,18.708-10.146,25.802-17.479
		c-0.229-2.921-3.1,2.088-3.329-0.832c-7.387,7.039-16.157,12.696-26.634,16.646c2.62-3.762,8.5-4.262,10.82-8.324
		c-8.224,0.377-10.538,6.665-18.312,7.491c6.597-5.888,15.145-9.825,21.641-15.813c-8.58,0.302-14.265,10.7-24.97,11.652
		c5.669-5.434,17.791-11.615,24.138-19.144c-4.274,0.177-9.212,6.87-14.15,9.155c-2.629-1.627,0.532-4.384,1.666-4.994
		c-7.359,0.139-13.324,8.867-21.641,10.82c6.149-6.337,13.425-11.546,19.976-17.479c-7.161,2.554-15.322,11.309-24.136,14.981
		c11.925-9.992,24.294-26.753,39.119-36.621c0.357-1.586,1.793-2.092,1.665-4.162c2.546,0.604,2.448-1.436,4.994-0.832
		c-6.306,5.348-11.904,11.401-15.815,19.144c9.576-5.961,13.939-17.136,23.306-23.306c-0.187,4.265-7.533,8.55-9.155,14.15
		C167.916,185.155,170.054,173.422,180.614,170.109z M198.093,192.583c7.062-2.371,9.365-9.502,14.149-14.149
		c-1.145,0.035-1.828-0.393-2.496-0.832C206.12,182.854,200.155,185.766,198.093,192.583z M208.081,186.756
		c3.809-0.581,9.735-6.202,6.658-8.322C212.769,181.457,209.237,182.918,208.081,186.756z M193.932,186.756
		c1.755-2.129,4.199-3.569,4.161-7.49C194.112,178.769,190.692,185.285,193.932,186.756z M197.261,188.422
		c3.922-1.905,5.691-5.962,8.323-9.156C200.043,179.551,198.122,183.455,197.261,188.422z M184.776,210.894
		c8.122-0.485,10.38-11.25,10.819-16.646C191.99,199.797,188.723,205.685,184.776,210.894z M179.782,210.894
		c6.214,0.821,8.601-9.064,11.652-14.15c-1.11,0-2.22,0-3.33,0C188.042,204.172,181.571,205.191,179.782,210.894z M216.404,210.894
		c5.166-1.216,5.326-7.436,5.826-13.316C217.725,199.452,217.989,206.098,216.404,210.894z M211.41,208.396
		c3.943,1.341,6.596-6.92,3.329-9.155C213.458,202.122,212.81,205.635,211.41,208.396z M193.932,210.062
		c3.805-0.379,6.382-6.35,4.994-9.156C197.224,203.92,194.671,206.084,193.932,210.062z M205.584,209.229
		c4.227,0.592,5.254-6.361,4.162-8.324C208.593,203.915,206.085,205.568,205.584,209.229z M153.148,215.055
		c6.311-1.539,14.798-9.503,13.317-13.317C162.943,207.095,156.514,209.544,153.148,215.055z M140.663,211.727
		c4.747,0.288,8.603-4.688,7.491-7.491C145.847,206.922,142.448,208.518,140.663,211.727z M170.627,213.391
		c5.455-0.108,9.257-6.261,9.155-9.155C176.922,207.479,172.85,209.51,170.627,213.391z M150.651,223.379
		c7.73-1.213,12.97-8.963,19.143-14.149C162.5,209.779,156.64,218.768,150.651,223.379z M204.752,214.223
		c0.338-1.604,3.226-0.657,2.497-3.329c-1.064-0.046-1.152-1.066-2.497-0.832C204.272,210.566,202.804,214.01,204.752,214.223z
		 M188.105,217.553c5.729,1.29,4.279-4.601,6.659-6.659C191.496,212.064,189.052,214.061,188.105,217.553z M196.429,215.055
		c2.21-0.287,2.808-2.184,3.329-4.161C197.548,211.181,196.948,213.079,196.429,215.055z M176.453,220.881
		c6.283,0.179,8.138-4.069,9.988-8.322C180.201,212.423,180.019,218.343,176.453,220.881z M213.075,217.553
		c3.256,1.325,6.317-4.578,2.498-4.994C215.239,214.723,213.088,215.069,213.075,217.553z M162.303,226.707
		c8.739-1.247,13.454-6.521,17.479-12.484c-2.889-1.942-10.875,4.074-6.66,6.658C167.59,220.896,165.236,224.091,162.303,226.707z"
		/>
	<path fill-rule="evenodd" clip-rule="evenodd" fill="#FFFFFF" d="M92.388,194.247c9.267-9.321,17.285-19.893,24.97-30.795
		C115.392,173.445,102.949,187.308,92.388,194.247z"/>
	<path fill-rule="evenodd" clip-rule="evenodd" fill="#FFFFFF" d="M102.376,190.086c3.952-5.208,11.579-13.942,17.479-19.977
		c-1.723,3.272-3.395,6.594-5.827,9.156c4.81,0.08,9.637-7.001,14.982-9.156c-0.579,3.584-4.488,3.836-5.826,6.658
		c6.132,1.128,9.669-7.523,14.149-10.819c-0.837,7.77-12.364,12.047-17.478,18.312c9.521-4.693,20.845,2.846,26.634,0.832
		c-2.844,8.812-15.739,14.777-20.808,24.138c-5.792,2.252-8.49,7.601-15.815,8.323c2.12-3.43,6.857-4.242,8.324-8.323
		c-5.244,1.137-7.629,5.133-11.652,7.491c-0.974-2.667,5.061-5.463,6.658-8.324c-4.617-0.178-4.408,4.47-9.155,4.162
		c3.069-4.366,4.198-6.16,7.491-10.821c-4.698-0.965-4.804,6.83-9.988,6.659c1.191-4.079,4.717-5.825,5.826-9.987
		c-4.793,0.754-4.536,6.562-9.987,6.658c2.816-6.062,9.454-8.302,12.484-14.15c-4.458-0.007-8.893,7.189-13.316,9.988
		c3.854-12.515,18.633-14.104,26.634-22.472C114.504,178.093,109.217,184.865,102.376,190.086z M119.855,207.564
		c3.664-3.559,10.762-8.091,10.82-12.485C126.993,198.619,120.588,203.846,119.855,207.564z M113.196,207.564
		c4.674-0.874,6.929-4.169,8.324-8.323C117.813,201.084,115.039,203.858,113.196,207.564z"/>
	<path fill-rule="evenodd" clip-rule="evenodd" fill="#FFFFFF" d="M152.315,165.948c-3.284,7.813-9.942,12.253-17.478,15.813
		C137.544,176.695,146.883,171.062,152.315,165.948z"/>
	<path fill-rule="evenodd" clip-rule="evenodd" d="M279.661,173.439c-2.114,3.157-3.598,6.943-6.659,9.154
		C274.333,178.653,275.966,175.017,279.661,173.439z"/>
	<path fill-rule="evenodd" clip-rule="evenodd" fill="#FFFFFF" d="M248.033,187.588c6.547-2.716,17.5,1.734,24.97,3.329
		c-0.421,2.077-1.573,3.421-2.497,4.994c-3.667,0.13-0.237-2.353,0-3.328C264.531,189.401,256.877,187.899,248.033,187.588z"/>
	<path fill-rule="evenodd" clip-rule="evenodd" fill="#FFFFFF" d="M244.703,210.062c5.53-0.525,12.665,4.528,20.808,4.161
		c-0.44,0.669-0.868,1.352-0.831,2.498c7.645-5.395,10.175-15.904,14.981-24.138c8.562-1.645,14.884,1.681,22.472,0.832
		c11.607-1.3,20.369-9.786,32.461-6.659c0.069,1.318-0.4,3.175,0.833,3.33c-0.233,1.747-2.224-1.206-3.331,0.831
		c0.871,10.519-5.778,17.903-10.819,24.97c-1.85-1.106,1.765-3.718,1.665-5.825c-3.915,1.91-5.374,6.277-8.324,9.155
		c-1.117-1.173,1.282-5.891,2.498-7.49c-5.009,1.095-5.31,6.897-9.156,9.154c2.398,2.515,4.636,0.72,9.156,1.666
		c-3.978,2.56-9.22-0.745-14.149,0c2.994-1.444,6.174-2.704,6.657-6.66c-1.624-0.207-6.198,3.766-7.49,6.66
		c-13.528-4.15-31.037,0.01-45.777-5.826c0.135-0.977,1.519-0.703,2.497-0.834C253.632,213.081,248.653,214.615,244.703,210.062z
		 M279.661,201.737c0.914-2.691,2.415-4.797,3.329-7.49C279.993,194.526,276.497,200.516,279.661,201.737z M277.165,202.569
		c-2.609,4.605-5.273,9.157-7.492,14.151c5.562-1.098,4.554-8.766,9.156-10.821c-0.506,4.768-3.495,7.049-4.995,10.821
		c4.17,0.006,2.975-5.35,6.659-5.827c0.45,3.223-2.121,3.428-2.497,5.827c6.659-4.995,9.178-14.127,13.318-21.642
		c-6.669,1.933-5.485,11.717-11.652,14.15c1.881-4.236,6.854-9.775,5.826-14.15C282.515,197.519,281.595,206.616,277.165,202.569z
		 M289.649,206.731c1.628-3.088,3.602-5.83,4.993-9.154C291.116,198.204,286.739,204.997,289.649,206.731z M292.145,205.899
		c0.037,1.146-0.391,1.828-0.831,2.497c1.4,1.157,4.616-0.918,5.826-2.497C295.398,204.085,294.765,206.316,292.145,205.899z
		 M289.649,217.553c0.831,0,1.664,0,2.495,0c1.775-1.277,2.407-3.698,3.331-5.826C292.002,212.137,290.862,214.881,289.649,217.553z
		 M292.145,210.062c-5.92,1.316-2.194-0.692-4.993-2.497c-1.185,3.254-3.688,5.189-4.161,9.156
		C287.865,219.363,291.477,214.319,292.145,210.062z M292.978,219.217c1.574-0.187,1.837,0.938,3.329,0.832
		c0.747-1.75,1.293-3.7,2.497-4.994C295.83,215.411,294.235,217.146,292.978,219.217z M297.971,218.385
		c-0.838,2.503,1.854,1.475,3.331,1.664c0-0.832,0-1.664,0-2.496C299.728,217.365,299.465,218.49,297.971,218.385z"/>
	<path fill-rule="evenodd" clip-rule="evenodd" fill="#FFFFFF" d="M275.499,191.75c3.31,1.542-1.111,7.058-3.329,8.323
		C270.962,197.834,275.998,195.924,275.499,191.75z"/>
	<path fill-rule="evenodd" clip-rule="evenodd" d="M179.782,204.235c0.102,2.895-3.701,9.047-9.155,9.155
		C172.85,209.51,176.922,207.479,179.782,204.235z"/>
	<path fill-rule="evenodd" clip-rule="evenodd" fill="#FFFFFF" d="M235.548,209.229c0.115-3.52,6.661-1.104,8.323-0.833
		C242.726,209.728,237.845,207.262,235.548,209.229z"/>
	<path fill-rule="evenodd" clip-rule="evenodd" fill="#FFFFFF" d="M233.051,209.229c0,1.941,0,3.884,0,5.825
		c3.045-0.181,3.193-1.144,5.826,0c-1.194,4.078-2.968,7.576-4.162,11.652c4.897-0.097,4.789-5.199,6.659-8.322
		c3.009,1.346-0.289,3.209,4.993,1.664c-0.948,8.485-4.976,13.889-10.819,17.479c2.584-4.074,5.377-7.938,6.659-13.316
		c-5.957,3.758-10.94,15.691-19.976,19.143c3.701-4.623,8.464-8.181,10.82-14.148c-6.612,3.098-8.687,10.734-16.646,12.484
		c7.187-6.72,17.88-14.255,17.478-25.803c-3.451,2.931-4.534,8.229-6.657,12.486c-4.595,2.062-6.431,6.887-11.652,8.322
		c-1.824,3.438-1.716-0.315,0.832-0.832c4.216-4.668,10.544-11.643,10.821-17.479c0.466-1.199,1.297-2.031,2.495-2.498
		C230.689,211.702,228.594,209.628,233.051,209.229z"/>
	<path fill-rule="evenodd" clip-rule="evenodd" d="M173.123,220.881c-4.215-2.584,3.771-8.601,6.66-6.658
		c-4.025,5.963-8.74,11.237-17.479,12.484C165.236,224.091,167.59,220.896,173.123,220.881z"/>
	<path fill-rule="evenodd" clip-rule="evenodd" fill="#FFFFFF" d="M137.333,218.385c-3.173,5.149-11.033,5.613-15.814,9.156
		C123.607,224.953,131.675,217.482,137.333,218.385z"/>
	<path fill-rule="evenodd" clip-rule="evenodd" fill="#FFFFFF" d="M248.033,221.713c7.833,4.074-5.618,19.309-11.652,22.475
		C240.306,240.06,246.4,230.906,248.033,221.713z"/>
	<path fill-rule="evenodd" clip-rule="evenodd" fill="#FFFFFF" d="M259.685,227.541c-0.115,7.373-4.751,10.229-7.491,14.979
		C253.332,239.485,255.233,230.035,259.685,227.541z"/>
	<path fill-rule="evenodd" clip-rule="evenodd" fill="#FFFFFF" d="M273.833,231.701c1.961,2.017-2.608,4.564-3.328,6.66
		C268.95,236.75,273.738,234.421,273.833,231.701z"/>
	<path fill-rule="evenodd" clip-rule="evenodd" fill="#FFFFFF" d="M296.307,231.701c1.478,2.896-4.464,5.502-5.826,8.324
		C289.578,237.703,295.293,234.871,296.307,231.701z"/>
	<path fill-rule="evenodd" clip-rule="evenodd" fill="#FFFFFF" d="M394.521,78.554c-3.327,0.277-4.619-1.483-8.323-0.833
		c0.405,3.203,6.74,0.474,6.659,4.162c-8.714-0.696-22.312-6.388-29.131-8.324c0.657,0.187-10.278,0.014-3.33-0.832
		c2.521-1.145,2.975,0.396,6.659,0c-1.155-2.175-4.299-2.359-6.659-3.33c6.584-11.532,23.786-1.096,34.959,1.665
		C396.549,73.595,395.504,76.042,394.521,78.554z M384.533,77.722c-0.064-2.709-3.772-1.776-5.826-2.496
		C378.772,77.935,382.479,77.001,384.533,77.722z"/>
	<path fill-rule="evenodd" clip-rule="evenodd" fill="#FFFFFF" d="M267.176,162.618c-9.685-1.689-18.962-3.787-28.299-5.826
		c2.263-2.43,9.545,0.489,10.821-0.832c-0.842-1.379-3.536-0.904-4.995-1.665C251.266,151.565,266.197,154.278,267.176,162.618z"/>
	<path fill-rule="evenodd" clip-rule="evenodd" fill="#FFFFFF" d="M255.524,191.75c5.527,0.343,4.636,1.979,9.987,2.497
		c0.839,2.503-1.854,1.476-3.329,1.664c0.703,1.794,3.651,1.344,4.995,2.498c-0.076,3.108-0.933,2.372,0,4.994
		c-9.156-0.557-15.23-4.192-23.306-5.826c3.627-2.484,8.086,1.321,12.485,0.832c-1.418-3.855-9.208-1.335-10.819-4.994
		c6.33-1.06,8.031,2.511,14.148,1.664C259.489,192.778,254.989,194.781,255.524,191.75z"/>
</g>
</svg>
