<?xml version="1.0" encoding="utf-8"?>
<!-- Generator: Adobe Illustrator 16.0.0, SVG Export Plug-In . SVG Version: 6.00 Build 0)  -->
<!DOCTYPE svg PUBLIC "-//W3C//DTD SVG 1.1//EN" "http://www.w3.org/Graphics/SVG/1.1/DTD/svg11.dtd">
<svg version="1.1" id="Capa_1" xmlns="http://www.w3.org/2000/svg" xmlns:xlink="http://www.w3.org/1999/xlink" x="0px" y="0px"
	 width="792px" height="232px" viewBox="0 0 792 232" enable-background="new 0 0 792 232" xml:space="preserve">
<g>
	<path opacity="0.5" d="M251.571,70.591h14.457v35.844h0.591c2.654-2.212,9.292-5.752,18.438-5.752
		c17.406,0,31.272,10.621,31.272,39.09c0,25.814-13.424,44.253-40.418,44.253c-11.062,0-18.881-1.917-24.339-4.573V70.591z
		 M301.725,141.396c0-21.979-9.588-28.322-20.356-28.322c-6.048,0-12.096,2.655-15.194,6.933v49.858
		c2.95,1.18,7.081,1.917,11.506,1.917C292.137,171.783,301.725,161.9,301.725,141.396z"/>
	<path opacity="0.5" d="M374.747,115.583c-2.95-0.738-6.195-1.181-9.146-1.181c-7.523,0-15.489,3.098-19.619,9.293v58.857h-14.456
		v-81.13h11.211l3.098,9.883h0.589c3.541-6.491,10.769-11.358,20.505-11.358c3.392,0,6.047,0.294,7.817,0.737V115.583z"/>
	<path opacity="0.5" d="M393.187,68.673c5.605,0,9.735,4.131,9.735,9.884c0,5.31-4.13,9.44-9.735,9.44
		c-5.311,0-9.589-4.131-9.589-9.44C383.598,72.804,387.876,68.673,393.187,68.673z M386.401,101.421h14.604v81.13h-14.604V101.421z"
		/>
	<path opacity="0.5" d="M483.169,181.961c0,21.537-13.866,32.158-34.518,32.158c-16.669,0-24.781-5.458-28.469-9.293l8.408-11.358
		c3.983,4.574,10.916,8.261,21.094,8.261c13.57,0,19.176-6.195,19.176-19.915v-6.49h-0.59c-2.655,2.361-9.146,5.9-18.586,5.9
		c-16.816,0-31.272-9.734-31.272-37.91c0-24.93,12.833-42.778,39.533-42.778c11.505,0,19.619,1.77,25.224,4.425V181.961z
		 M456.766,112.779c-14.31,0-23.602,9.587-23.602,29.355c0,21.241,9.292,26.847,20.062,26.847c6.047,0,11.948-2.508,15.488-6.933
		v-47.204C465.469,113.517,461.486,112.779,456.766,112.779z"/>
	<path opacity="0.5" d="M566.222,126.792v55.76h-14.603v-53.104c0-9.736-4.869-16.374-14.899-16.374
		c-9.44,0-16.522,6.195-19.325,12.686v56.791h-14.604V70.591h14.604v39.533h0.59c2.95-3.394,10.474-9.884,22.864-9.884
		C556.486,100.24,566.222,109.829,566.222,126.792z"/>
	<path opacity="0.5" d="M587.614,159.688v-46.761h-11.505v-9.146l11.505-2.95l4.72-20.504h9.736v21.095h21.685v11.505H602.07v46.466
		c0,7.966,4.13,11.506,10.769,11.506c5.751,0,9.587-1.328,12.095-3.098l3.836,11.359c-2.951,1.917-8.556,4.129-19.472,4.129
		C595.728,183.289,587.614,176.209,587.614,159.688z"/>
	<path d="M641.164,79.146h18.438v103.406h-18.438V79.146z"/>
	<path d="M682.616,79.146h30.239c32.748,0,47.499,16.227,47.499,49.86c0,29.207-11.653,53.546-47.351,53.546h-30.388V79.146z
		 M701.055,167.062h10.767c21.685,0,29.503-12.686,29.503-36.288c0-27.141-11.359-36.14-29.797-36.14h-10.473V167.062z"/>
	<g>
		<g>
			<g>
				<g>
					<path fill="#FB8A61" d="M87.738,86.593v31.632c0,17.472,14.163,31.635,31.634,31.635s31.633-14.163,31.633-31.635
						c0-17.471-14.162-31.634-31.633-31.634c-0.039,0-0.077,0.003-0.116,0.003v-0.001H87.738z"/>
					<path fill="#FB8A61" d="M124.364,18.356h-12.75H87.738v36.601h31.518v0.003c0.039,0,0.077-0.003,0.116-0.003
						c34.941,0,63.268,28.325,63.268,63.269c0,34.943-28.327,63.268-63.268,63.268c-34.942,0-63.269-28.325-63.269-63.268V86.593
						h-35.68v28.949h0.233c0.043,53.72,43.604,97.254,97.333,97.254c53.756,0,97.336-43.578,97.336-97.335
						C215.325,63.847,175.146,21.643,124.364,18.356z"/>
				</g>
			</g>
		</g>
		<rect x="20.647" y="18.356" fill="#FB8A61" width="35.356" height="36.869"/>
	</g>
</g>
</svg>
