<svg height="331" width="334" viewBox="856 129 334 331" style="background-color:transparent;" preserveAspectRatio="xMinYMin meet" xmlns:xlink="http://www.w3.org/1999/xlink" xmlns="http://www.w3.org/2000/svg"><defs><style type="text/css">.svg-txt-center tspan {text-anchor: middle;}.svg-txt-right tspan {text-anchor: end;}</style></defs><g transform="translate(0,0)"><g transform="matrix(1,0,0,1,1111,283)"><path style="fill:none;stroke:#333333;stroke-width:3.0;;" d="m14.190753931198135,3.89417399977717c5.29719756786198,-6.400184924071554 14.67927161746068,-4.132183734995935 16.737702323112334,1.198708883139804c2.057068408692256,5.329141115587113 -1.2347919741327575,13.993337695151306 -9.877620587158376,13.19387408740095c-8.642833621470322,-0.7995609134475014 -11.935374151086096,-8.263589024414703 -6.8600817359539565,-14.392582970540754z"/><path style="fill:none;stroke:#333333;stroke-width:3.0;;" d="m9.800449469475254,50.00160284106687l-9.739440602850882,-0.4001210266637612c0,0 -0.13614154731309988,-17.856179260447508 0,-20.654496498968047c0.13681969072597708,-2.7984145442176818 2.88139830558026,-3.9979991786317983 5.76211546268082,-3.9979991786317983c2.8807181587895014,0 29.355127475633452,-1.3336718850811067 31.55176120443824,-0.9342319982973665c2.1959325465462722,0.4006075551494905 5.212098082212945,1.8679774681090038 5.350291088476668,5.730916339102354c0.13817297248490934,3.8643011507533918 0.2743225333095351,20.38953308563988 0.2743225333095351,20.38953308563988l-9.053985862395242,0.534986722907918"/><path style="fill:none;stroke:#333333;stroke-width:3.0;;" d="m10.075314918190667,36.00836245161272l0.1361395439352184,17.591605069907928l24.008922276346038,0.39953719248088604l-1.2347819572433503,-18.92089819861747"/></g><text style="font-weight:bold; font-size: 14px; text-anchor: middle; font-family: arial,helvetica,sans-serif; fill: #333333;" class="svg-txt-center" y="355" x="1132">User</text></g><g transform="translate(0,0)"><g transform="matrix(1,0,0,1,888,338)"><path style="fill:none;stroke:#333333;stroke-width:3.0;;" d="m0.03469242091847677,11.37604499864167l0.8276732485979085,50.251855145751215l18.217646201841685,11.347303704923467l-0.8282250812581321,-48.63116920517899"/><path style="fill:none;stroke:#333333;stroke-width:3.0;;" d="m42.2660401485311,0.030449090535174955c0,0 -39.74777614915867,7.294397367341528 -40.57538988639126,9.726472138266073c-0.828227786320192,2.4315981764639956 16.56120144944954,14.589615536254005 16.56120144944954,14.589615536254005l44.71481110358417,-13.778875403917432l-20.700757919745445,-10.537251986807691z"/><path style="fill:none;stroke:#333333;stroke-width:3.0;;" d="m62.96666281517355,10.568482162708769l-0.8276705435358485,50.251722758401066l-43.05890736360401,12.158083553465083l-0.9087926496507958,-48.63116920517899"/><path style="fill:none;stroke:#333333;stroke-width:3.0;;" d="m6.658848393251103,30.01618390017486l5.796488133858837,4.052747472761756"/></g><text style="font-weight:bold; font-size: 12px; text-anchor: middle; font-family: arial,helvetica,sans-serif; fill: #333333;" class="svg-txt-center" y="426" x="919">Node</text></g><g transform="translate(0,0)"><g transform="matrix(1,0,0,1,1064,303)"><path style="fill:none;stroke:#333333;stroke-width:3.0;;" d="m5.25404,0.4178l14.972,-0.727905c3.19501,-0.155273 6.32898,2.88745 6.29391,6.08606l-0.415945,37.9321c-0.035074,3.19849 -2.16223,5.84399 -5.35803,5.98181l-14.452,0.624023c-3.19581,0.137939 -6.82263,-3.19922 -6.81384,-6.39795l0.103986,-37.8281c0.008793,-3.19885 2.47498,-5.51471 5.66999,-5.6701z"/><path style="fill:#333333;stroke:none;stroke-width:3.0;;stroke: none;" d="m13.203567,47.958557c-1.724695,-0.100983 -2.52006,-0.067405 -2.33104,-0.987863c0.275355,-1.340964 2.721695,-2.003097 4.051139,-0.985947c0.727079,0.556284 -0.806192,2.027339 -1.720099,1.973811z"/><path style="fill:#fafafa;stroke:#333333;stroke-width:3.0;;" d="m1.63727,6.5778l22.2055,-0.519897l-0.311958,37.8879l-21.5816,-0.623901z"/></g></g><g transform="translate(0,0)"><path style="fill:none;stroke:#333333;stroke-width:2;;" d="M1060,328 964,373"/><polyline style="fill:#ffffff;stroke:#333333;stroke-width:2;fill-opacity:0;" points="975,356 964,373 983,374"/><text style="font-weight:Normal; font-size: 12px; text-anchor: middle; font-family: sans-serif; fill: #333333;" class="" y="380" x="983"/><text style="font-weight:Normal; font-size: 12px; text-anchor: start; font-family: sans-serif; fill: #333333;" class="" y="351" x="1012"/><text style="font-weight:Normal; font-size: 12px; text-anchor: middle; font-family: sans-serif; fill: #333333;" class="" y="346" x="1056"/></g><g transform="translate(0,0)"><g transform="matrix(1,0,0,1,894,260)"><path style="fill:none;stroke:#333333;stroke-width:3.0;;" d="m14.190753931198135,3.89417399977717c5.29719756786198,-6.400184924071554 14.67927161746068,-4.132183734995935 16.737702323112334,1.198708883139804c2.057068408692256,5.329141115587113 -1.2347919741327575,13.993337695151306 -9.877620587158376,13.19387408740095c-8.642833621470322,-0.7995609134475014 -11.935374151086096,-8.263589024414703 -6.8600817359539565,-14.392582970540754z"/><path style="fill:none;stroke:#333333;stroke-width:3.0;;" d="m9.800449469475254,50.00160284106687l-9.739440602850882,-0.4001210266637612c0,0 -0.13614154731309988,-17.856179260447508 0,-20.654496498968047c0.13681969072597708,-2.7984145442176818 2.88139830558026,-3.9979991786317983 5.76211546268082,-3.9979991786317983c2.8807181587895014,0 29.355127475633452,-1.3336718850811067 31.55176120443824,-0.9342319982973665c2.1959325465462722,0.4006075551494905 5.212098082212945,1.8679774681090038 5.350291088476668,5.730916339102354c0.13817297248490934,3.8643011507533918 0.2743225333095351,20.38953308563988 0.2743225333095351,20.38953308563988l-9.053985862395242,0.534986722907918"/><path style="fill:none;stroke:#333333;stroke-width:3.0;;" d="m10.075314918190667,36.00836245161272l0.1361395439352184,17.591605069907928l24.008922276346038,0.39953719248088604l-1.2347819572433503,-18.92089819861747"/></g><text style="font-weight:bold; font-size: 14px; text-anchor: middle; font-family: arial,helvetica,sans-serif; fill: #333333;" class="svg-txt-center" y="332" x="915">User</text></g><g transform="translate(0,0)"><path style="fill:none;stroke:#333333;stroke-width:3;;" d="M1132,278 C1132,198 915,175  915,255"/><polyline style="fill:#ffffff;stroke:#333333;stroke-width:3;fill-opacity:0;" points="905,232 915,255 929,236"/><text style="font-weight:Normal; font-size: 12px; text-anchor: middle; font-family: sans-serif; fill: #333333;" class="" y="273" x="929"/><text style="font-weight:Normal; font-size: 12px; text-anchor: start; font-family: sans-serif; fill: #333333;" class="" y="206" x="1023"/><text style="font-weight:Normal; font-size: 12px; text-anchor: middle; font-family: sans-serif; fill: #333333;" class="" y="294" x="1117"/><polyline style="fill:#ffffff;stroke:#333333;stroke-width:3;fill-opacity:0;" points="1138,254 1132,278 1114,261"/></g><g transform="translate(0,0)"><rect style="fill: #000000;fill-opacity: 0;stroke-opacity:0;stroke-width: 1;stroke:%stroke%;" rx="4" height="58" width="100" y="139" x="972"/><text style="font-weight:Normal; font-size: 12px; text-anchor: start; font-family: arial,helvetica,sans-serif; fill: #333333;" class="" y="160" x="972"><tspan x="972" font-weight="bold" font-size="18" dy="17">Face-to-Face</tspan><tspan font-weight="bold" font-size="18" dy="18" x="972">Connection</tspan></text></g><text style="font-weight:Normal; font-size: 16px; text-anchor: end; font-family: Arial; fill: #ccc;" y="445" x="1175">www.sketchboard.io</text></svg>