<svg height="426" width="914" viewBox="129 270 914 426" style="background-color:transparent;" preserveAspectRatio="xMinYMin meet" xmlns:xlink="http://www.w3.org/1999/xlink" xmlns="http://www.w3.org/2000/svg"><defs><style type="text/css">.svg-txt-center tspan {text-anchor: middle;}.svg-txt-right tspan {text-anchor: end;}</style></defs><g transform="translate(0,0)"><rect style="fill: #000000;fill-opacity: 0;stroke-opacity:0;stroke-width: 1;stroke:%stroke%;" rx="4" height="47" width="53" y="319" x="146"/><text style="font-weight:Normal; font-size: 12px; text-anchor: start; font-family: arial,helvetica,sans-serif; fill: #333333;" class="" y="340" x="146"><tspan x="146" font-weight="bold" font-size="24" dy="17">Verifiers</tspan></text></g><g transform="translate(0,0)"><path style="fill:none;stroke:#333333;stroke-width:6;;" d="M288,509 376,365"/><text style="font-weight:Normal; font-size: 12px; text-anchor: middle; font-family: sans-serif; fill: #333333;" class="" y="366" x="359"/><text style="font-weight:Normal; font-size: 12px; text-anchor: start; font-family: sans-serif; fill: #333333;" class="" y="431" x="333"/><text style="font-weight:Normal; font-size: 12px; text-anchor: middle; font-family: sans-serif; fill: #333333;" class="" y="495" x="280"/></g><g transform="translate(0,0)"><g transform="matrix(1,0,0,1,373,334)"><path style="fill:none;stroke:#333333;stroke-width:3.0;;" d="m2.893985665879701,3.8324643917838785c5.351540759735495,-7.02888955216516 22.229206561091765,-4.136320513636482 23.05344484437219,6.613368051379058c0.8226420040648997,10.74927546311162 -8.233177296223921,16.538436365852387 -17.701904084636695,11.989810644824615c-9.46713050919725,-4.545409427632968 -10.09550631204509,-12.371211895498824 -5.351540759735495,-18.603178696203674z"/></g></g><g transform="translate(0,0)"><path style="fill:none;stroke:#333333;stroke-width:6;;" d="M289,510 427,366"/><text style="font-weight:Normal; font-size: 12px; text-anchor: middle; font-family: sans-serif; fill: #333333;" class="" y="363" x="410"/><text style="font-weight:Normal; font-size: 12px; text-anchor: start; font-family: sans-serif; fill: #333333;" class="" y="432" x="359"/><text style="font-weight:Normal; font-size: 12px; text-anchor: middle; font-family: sans-serif; fill: #333333;" class="" y="493" x="284"/></g><g transform="translate(0,0)"><g transform="matrix(1,0,0,1,426,336)"><path style="fill:none;stroke:#333333;stroke-width:3.0;;" d="m2.893985665879701,3.8324643917838785c5.351540759735495,-7.02888955216516 22.229206561091765,-4.136320513636482 23.05344484437219,6.613368051379058c0.8226420040648997,10.74927546311162 -8.233177296223921,16.538436365852387 -17.701904084636695,11.989810644824615c-9.46713050919725,-4.545409427632968 -10.09550631204509,-12.371211895498824 -5.351540759735495,-18.603178696203674z"/></g></g><g transform="translate(0,0)"><rect style="fill: #000000;fill-opacity: 0;stroke-opacity:0;stroke-width: 1;stroke:%stroke%;" rx="4" height="47" width="46" y="280" x="255"/><text style="font-weight:Normal; font-size: 12px; text-anchor: start; font-family: arial,helvetica,sans-serif; fill: #333333;" class="" y="301" x="255"><tspan x="255" font-weight="bold" font-size="24" dy="14">V1</tspan></text></g><g transform="translate(0,0)"><path style="fill:none;stroke:#333333;stroke-width:2;stroke-dasharray:4,3;;" d="M338,361 436,497"/><text style="font-weight:Normal; font-size: 12px; text-anchor: middle; font-family: sans-serif; fill: #333333;" class="" y="478" x="440"/><text style="font-weight:Normal; font-size: 12px; text-anchor: start; font-family: sans-serif; fill: #333333;" class="" y="429" x="387"/><text style="font-weight:Normal; font-size: 12px; text-anchor: middle; font-family: sans-serif; fill: #333333;" class="" y="362" x="357"/></g><g transform="translate(0,0)"><g transform="matrix(1,0,0,1,425,501)"><path style="fill:none;stroke:#333333;stroke-width:3.0;;" d="m2.893985665879701,3.8324643917838785c5.351540759735495,-7.02888955216516 22.229206561091765,-4.136320513636482 23.05344484437219,6.613368051379058c0.8226420040648997,10.74927546311162 -8.233177296223921,16.538436365852387 -17.701904084636695,11.989810644824615c-9.46713050919725,-4.545409427632968 -10.09550631204509,-12.371211895498824 -5.351540759735495,-18.603178696203674z"/></g></g><g transform="translate(0,0)"><path style="fill:none;stroke:#333333;stroke-width:2;stroke-dasharray:4,3;;" d="M397,361 569,498"/><text style="font-weight:Normal; font-size: 12px; text-anchor: middle; font-family: sans-serif; fill: #333333;" class="" y="479" x="567"/><text style="font-weight:Normal; font-size: 12px; text-anchor: start; font-family: sans-serif; fill: #333333;" class="" y="430" x="483"/><text style="font-weight:Normal; font-size: 12px; text-anchor: middle; font-family: sans-serif; fill: #333333;" class="" y="356" x="415"/></g><g transform="translate(0,0)"><g transform="matrix(1,0,0,1,562,502)"><path style="fill:none;stroke:#333333;stroke-width:3.0;;" d="m2.893985665879701,3.8324643917838785c5.351540759735495,-7.02888955216516 22.229206561091765,-4.136320513636482 23.05344484437219,6.613368051379058c0.8226420040648997,10.74927546311162 -8.233177296223921,16.538436365852387 -17.701904084636695,11.989810644824615c-9.46713050919725,-4.545409427632968 -10.09550631204509,-12.371211895498824 -5.351540759735495,-18.603178696203674z"/></g></g><g transform="translate(0,0)"><rect style="fill: #000000;fill-opacity: 0;stroke-opacity:0;stroke-width: 1;stroke:%stroke%;" rx="4" height="47" width="53" y="481" x="144"/><text style="font-weight:Normal; font-size: 12px; text-anchor: start; font-family: arial,helvetica,sans-serif; fill: #333333;" class="" y="502" x="144"><tspan x="144" font-weight="bold" font-size="24" dy="17">Recruits</tspan></text></g><g transform="translate(0,0)"><path style="fill:none;stroke:#333333;stroke-width:2;stroke-dasharray:4,3;;" d="M451,362 691,500"/><text style="font-weight:Normal; font-size: 12px; text-anchor: middle; font-family: sans-serif; fill: #333333;" class="" y="480" x="686"/><text style="font-weight:Normal; font-size: 12px; text-anchor: start; font-family: sans-serif; fill: #333333;" class="" y="431" x="571"/><text style="font-weight:Normal; font-size: 12px; text-anchor: middle; font-family: sans-serif; fill: #333333;" class="" y="354" x="469"/></g><g transform="translate(0,0)"><g transform="matrix(1,0,0,1,695,502)"><path style="fill:none;stroke:#333333;stroke-width:3.0;;" d="m2.893985665879701,3.8324643917838785c5.351540759735495,-7.02888955216516 22.229206561091765,-4.136320513636482 23.05344484437219,6.613368051379058c0.8226420040648997,10.74927546311162 -8.233177296223921,16.538436365852387 -17.701904084636695,11.989810644824615c-9.46713050919725,-4.545409427632968 -10.09550631204509,-12.371211895498824 -5.351540759735495,-18.603178696203674z"/></g></g><g transform="translate(0,0)"><path style="fill:none;stroke:#333333;stroke-width:2;;" d="M438,497 485,363"/><text style="font-weight:Normal; font-size: 12px; text-anchor: middle; font-family: sans-serif; fill: #333333;" class="" y="373" x="466"/><text style="font-weight:Normal; font-size: 12px; text-anchor: start; font-family: sans-serif; fill: #333333;" class="" y="424" x="462"/><text style="font-weight:Normal; font-size: 12px; text-anchor: middle; font-family: sans-serif; fill: #333333;" class="" y="481" x="427"/></g><g transform="translate(0,0)"><g transform="matrix(1,0,0,1,473,336)"><path style="fill:none;stroke:#333333;stroke-width:3.0;;" d="m2.893985665879701,3.8324643917838785c5.351540759735495,-7.02888955216516 22.229206561091765,-4.136320513636482 23.05344484437219,6.613368051379058c0.8226420040648997,10.74927546311162 -8.233177296223921,16.538436365852387 -17.701904084636695,11.989810644824615c-9.46713050919725,-4.545409427632968 -10.09550631204509,-12.371211895498824 -5.351540759735495,-18.603178696203674z"/></g></g><g transform="translate(0,0)"><path style="fill:none;stroke:#333333;stroke-width:2;;" d="M439,497 531,363"/><text style="font-weight:Normal; font-size: 12px; text-anchor: middle; font-family: sans-serif; fill: #333333;" class="" y="367" x="511"/><text style="font-weight:Normal; font-size: 12px; text-anchor: start; font-family: sans-serif; fill: #333333;" class="" y="424" x="485"/><text style="font-weight:Normal; font-size: 12px; text-anchor: middle; font-family: sans-serif; fill: #333333;" class="" y="479" x="432"/></g><g transform="translate(0,0)"><g transform="matrix(1,0,0,1,520,336)"><path style="fill:none;stroke:#333333;stroke-width:3.0;;" d="m2.893985665879701,3.8324643917838785c5.351540759735495,-7.02888955216516 22.229206561091765,-4.136320513636482 23.05344484437219,6.613368051379058c0.8226420040648997,10.74927546311162 -8.233177296223921,16.538436365852387 -17.701904084636695,11.989810644824615c-9.46713050919725,-4.545409427632968 -10.09550631204509,-12.371211895498824 -5.351540759735495,-18.603178696203674z"/></g></g><g transform="translate(0,0)"><rect style="fill: #000000;fill-opacity: 0;stroke-opacity:0;stroke-width: 1;stroke:%stroke%;" rx="4" height="34" width="585" y="286" x="319"/><text style="font-weight:Normal; font-size: 12px; text-anchor: start; font-family: arial,helvetica,sans-serif; fill: #333333;" class="" y="307" x="319"><tspan x="319">The system requires 4 verifiers for each recruit.  To simplify the graph, each verifier is limited to one recruit.</tspan></text></g><g transform="translate(0,0)"><path style="fill:none;stroke:#333333;stroke-width:2;;" d="M443,497 573,363"/><text style="font-weight:Normal; font-size: 12px; text-anchor: middle; font-family: sans-serif; fill: #333333;" class="" y="363" x="553"/><text style="font-weight:Normal; font-size: 12px; text-anchor: start; font-family: sans-serif; fill: #333333;" class="" y="424" x="508"/><text style="font-weight:Normal; font-size: 12px; text-anchor: middle; font-family: sans-serif; fill: #333333;" class="" y="478" x="440"/></g><g transform="translate(0,0)"><g transform="matrix(1,0,0,1,562,336)"><path style="fill:none;stroke:#333333;stroke-width:3.0;;" d="m2.893985665879701,3.8324643917838785c5.351540759735495,-7.02888955216516 22.229206561091765,-4.136320513636482 23.05344484437219,6.613368051379058c0.8226420040648997,10.74927546311162 -8.233177296223921,16.538436365852387 -17.701904084636695,11.989810644824615c-9.46713050919725,-4.545409427632968 -10.09550631204509,-12.371211895498824 -5.351540759735495,-18.603178696203674z"/></g></g><g transform="translate(0,0)"><g transform="matrix(1,0,0,1,657,336)"><path style="fill:none;stroke:#333333;stroke-width:3.0;;" d="m2.893985665879701,3.8324643917838785c5.351540759735495,-7.02888955216516 22.229206561091765,-4.136320513636482 23.05344484437219,6.613368051379058c0.8226420040648997,10.74927546311162 -8.233177296223921,16.538436365852387 -17.701904084636695,11.989810644824615c-9.46713050919725,-4.545409427632968 -10.09550631204509,-12.371211895498824 -5.351540759735495,-18.603178696203674z"/></g></g><g transform="translate(0,0)"><g transform="matrix(1,0,0,1,702,338)"><path style="fill:none;stroke:#333333;stroke-width:3.0;;" d="m2.893985665879701,3.8324643917838785c5.351540759735495,-7.02888955216516 22.229206561091765,-4.136320513636482 23.05344484437219,6.613368051379058c0.8226420040648997,10.74927546311162 -8.233177296223921,16.538436365852387 -17.701904084636695,11.989810644824615c-9.46713050919725,-4.545409427632968 -10.09550631204509,-12.371211895498824 -5.351540759735495,-18.603178696203674z"/></g></g><g transform="translate(0,0)"><g transform="matrix(1,0,0,1,750,338)"><path style="fill:none;stroke:#333333;stroke-width:3.0;;" d="m2.893985665879701,3.8324643917838785c5.351540759735495,-7.02888955216516 22.229206561091765,-4.136320513636482 23.05344484437219,6.613368051379058c0.8226420040648997,10.74927546311162 -8.233177296223921,16.538436365852387 -17.701904084636695,11.989810644824615c-9.46713050919725,-4.545409427632968 -10.09550631204509,-12.371211895498824 -5.351540759735495,-18.603178696203674z"/></g></g><g transform="translate(0,0)"><g transform="matrix(1,0,0,1,796,338)"><path style="fill:none;stroke:#333333;stroke-width:3.0;;" d="m2.893985665879701,3.8324643917838785c5.351540759735495,-7.02888955216516 22.229206561091765,-4.136320513636482 23.05344484437219,6.613368051379058c0.8226420040648997,10.74927546311162 -8.233177296223921,16.538436365852387 -17.701904084636695,11.989810644824615c-9.46713050919725,-4.545409427632968 -10.09550631204509,-12.371211895498824 -5.351540759735495,-18.603178696203674z"/></g></g><g transform="translate(0,0)"><g transform="matrix(1,0,0,1,840,338)"><path style="fill:none;stroke:#333333;stroke-width:3.0;;" d="m2.893985665879701,3.8324643917838785c5.351540759735495,-7.02888955216516 22.229206561091765,-4.136320513636482 23.05344484437219,6.613368051379058c0.8226420040648997,10.74927546311162 -8.233177296223921,16.538436365852387 -17.701904084636695,11.989810644824615c-9.46713050919725,-4.545409427632968 -10.09550631204509,-12.371211895498824 -5.351540759735495,-18.603178696203674z"/></g></g><g transform="translate(0,0)"><g transform="matrix(1,0,0,1,608,336)"><path style="fill:none;stroke:#333333;stroke-width:3.0;;" d="m2.893985665879701,3.8324643917838785c5.351540759735495,-7.02888955216516 22.229206561091765,-4.136320513636482 23.05344484437219,6.613368051379058c0.8226420040648997,10.74927546311162 -8.233177296223921,16.538436365852387 -17.701904084636695,11.989810644824615c-9.46713050919725,-4.545409427632968 -10.09550631204509,-12.371211895498824 -5.351540759735495,-18.603178696203674z"/></g></g><g transform="translate(0,0)"><path style="fill:none;stroke:#333333;stroke-width:2;;" d="M575,498 620,363"/><text style="font-weight:Normal; font-size: 12px; text-anchor: middle; font-family: sans-serif; fill: #333333;" class="" y="373" x="601"/><text style="font-weight:Normal; font-size: 12px; text-anchor: start; font-family: sans-serif; fill: #333333;" class="" y="425" x="598"/><text style="font-weight:Normal; font-size: 12px; text-anchor: middle; font-family: sans-serif; fill: #333333;" class="" y="482" x="564"/></g><g transform="translate(0,0)"><path style="fill:none;stroke:#333333;stroke-width:2;;" d="M576,498 668,363"/><text style="font-weight:Normal; font-size: 12px; text-anchor: middle; font-family: sans-serif; fill: #333333;" class="" y="367" x="648"/><text style="font-weight:Normal; font-size: 12px; text-anchor: start; font-family: sans-serif; fill: #333333;" class="" y="425" x="622"/><text style="font-weight:Normal; font-size: 12px; text-anchor: middle; font-family: sans-serif; fill: #333333;" class="" y="480" x="569"/></g><g transform="translate(0,0)"><g transform="matrix(1,0,0,1,258,336)"><path style="fill:none;stroke:#333333;stroke-width:3.0;;" d="m2.893985665879701,3.8324643917838785c5.351540759735495,-7.02888955216516 22.229206561091765,-4.136320513636482 23.05344484437219,6.613368051379058c0.8226420040648997,10.74927546311162 -8.233177296223921,16.538436365852387 -17.701904084636695,11.989810644824615c-9.46713050919725,-4.545409427632968 -10.09550631204509,-12.371211895498824 -5.351540759735495,-18.603178696203674z"/></g></g><g transform="translate(0,0)"><path style="fill:none;stroke:#333333;stroke-width:2;;" d="M576,498 713,365"/><text style="font-weight:Normal; font-size: 12px; text-anchor: middle; font-family: sans-serif; fill: #333333;" class="" y="365" x="693"/><text style="font-weight:Normal; font-size: 12px; text-anchor: start; font-family: sans-serif; fill: #333333;" class="" y="426" x="645"/><text style="font-weight:Normal; font-size: 12px; text-anchor: middle; font-family: sans-serif; fill: #333333;" class="" y="480" x="574"/></g><g transform="translate(0,0)"><path style="fill:none;stroke:#333333;stroke-width:2;;" d="M708,498 762,365"/><text style="font-weight:Normal; font-size: 12px; text-anchor: middle; font-family: sans-serif; fill: #333333;" class="" y="373" x="744"/><text style="font-weight:Normal; font-size: 12px; text-anchor: start; font-family: sans-serif; fill: #333333;" class="" y="426" x="735"/><text style="font-weight:Normal; font-size: 12px; text-anchor: middle; font-family: sans-serif; fill: #333333;" class="" y="482" x="699"/></g><g transform="translate(0,0)"><path style="fill:none;stroke:#333333;stroke-width:2;;" d="M709,498 807,365"/><text style="font-weight:Normal; font-size: 12px; text-anchor: middle; font-family: sans-serif; fill: #333333;" class="" y="368" x="787"/><text style="font-weight:Normal; font-size: 12px; text-anchor: start; font-family: sans-serif; fill: #333333;" class="" y="426" x="758"/><text style="font-weight:Normal; font-size: 12px; text-anchor: middle; font-family: sans-serif; fill: #333333;" class="" y="480" x="703"/></g><g transform="translate(0,0)"><path style="fill:none;stroke:#333333;stroke-width:2;;" d="M709,498 851,365"/><text style="font-weight:Normal; font-size: 12px; text-anchor: middle; font-family: sans-serif; fill: #333333;" class="" y="364" x="831"/><text style="font-weight:Normal; font-size: 12px; text-anchor: start; font-family: sans-serif; fill: #333333;" class="" y="426" x="780"/><text style="font-weight:Normal; font-size: 12px; text-anchor: middle; font-family: sans-serif; fill: #333333;" class="" y="480" x="707"/></g><g transform="translate(0,0)"><rect style="fill: #000000;fill-opacity: 0;stroke-opacity:0;stroke-width: 1;stroke:%stroke%;" rx="4" height="48" width="186" y="544" x="472"/><text style="font-weight:Normal; font-size: 12px; text-anchor: start; font-family: arial,helvetica,sans-serif; fill: #333333;" class="" y="565" x="472"><tspan x="472" font-weight="bold" font-size="24" dy="14">Traversal Steps</tspan></text></g><g transform="translate(0,0)"><rect style="fill: #000000;fill-opacity: 0;stroke-opacity:0;stroke-width: 1;stroke:%stroke%;" rx="4" height="48" width="49" y="633" x="345"/><text style="font-weight:Normal; font-size: 12px; text-anchor: start; font-family: arial,helvetica,sans-serif; fill: #333333;" class="" y="654" x="345"><tspan x="345" font-weight="bold" font-size="24" dy="14">One</tspan></text></g><g transform="translate(0,0)"><rect style="fill: #000000;fill-opacity: 0;stroke-opacity:0;stroke-width: 1;stroke:%stroke%;" rx="4" height="48" width="72" y="633" x="460"/><text style="font-weight:Normal; font-size: 12px; text-anchor: middle; font-family: arial,helvetica,sans-serif; fill: #333333;" class="svg-txt-center" y="654" x="496"><tspan x="496" font-weight="bold" font-size="24" dy="14">Two</tspan></text></g><g transform="translate(0,0)"><path style="fill:none;stroke:#333333;stroke-width:6;stroke-dasharray:4,3;;" d="M271,362 C271,431 271,431  271,500"/><text style="font-weight:Normal; font-size: 12px; text-anchor: middle; font-family: sans-serif; fill: #333333;" class="" y="484" x="286"/><text style="font-weight:Normal; font-size: 12px; text-anchor: start; font-family: sans-serif; fill: #333333;" class="" y="431" x="271"/><text style="font-weight:Normal; font-size: 12px; text-anchor: middle; font-family: sans-serif; fill: #333333;" class="" y="376" x="286"/></g><g transform="translate(0,0)"><rect style="fill: #000000;fill-opacity: 0;stroke-opacity:0;stroke-width: 1;stroke:%stroke%;" rx="4" height="48" width="87" y="633" x="594"/><text style="font-weight:Normal; font-size: 12px; text-anchor: middle; font-family: arial,helvetica,sans-serif; fill: #333333;" class="svg-txt-center" y="654" x="637"><tspan x="637" font-weight="bold" font-size="24" dy="14">Three</tspan></text></g><g transform="translate(0,0)"><rect style="fill: #000000;fill-opacity: 0;stroke-opacity:0;stroke-width: 1;stroke:%stroke%;" rx="4" height="48" width="50" y="629" x="744"/><text style="font-weight:Normal; font-size: 12px; text-anchor: start; font-family: arial,helvetica,sans-serif; fill: #333333;" class="" y="650" x="744"><tspan x="744" font-weight="bold" font-size="24" dy="17">Four</tspan></text></g><g transform="translate(0,0)"><path style="fill:none;stroke:#333333;stroke-width:6;stroke-dasharray:4,3;;" d="M304,611 417,610"/><text style="font-weight:Normal; font-size: 12px; text-anchor: middle; font-family: sans-serif; fill: #333333;" class="" y="596" x="407"/><text style="font-weight:Normal; font-size: 12px; text-anchor: start; font-family: sans-serif; fill: #333333;" class="" y="605" x="361"/><text style="font-weight:Normal; font-size: 12px; text-anchor: middle; font-family: sans-serif; fill: #333333;" class="" y="597" x="312"/></g><g transform="translate(0,0)"><path style="fill:none;stroke:#333333;stroke-width:6;;" d="M461,610 544,610"/><text style="font-weight:Normal; font-size: 12px; text-anchor: middle; font-family: sans-serif; fill: #333333;" class="" y="596" x="534"/><text style="font-weight:Normal; font-size: 12px; text-anchor: start; font-family: sans-serif; fill: #333333;" class="" y="610" x="503"/><text style="font-weight:Normal; font-size: 12px; text-anchor: middle; font-family: sans-serif; fill: #333333;" class="" y="595" x="470"/></g><g transform="translate(0,0)"><path style="fill:none;stroke:#333333;stroke-width:2;stroke-dasharray:4,3;;" d="M587,610 690,610"/><text style="font-weight:Normal; font-size: 12px; text-anchor: middle; font-family: sans-serif; fill: #333333;" class="" y="596" x="676"/><text style="font-weight:Normal; font-size: 12px; text-anchor: start; font-family: sans-serif; fill: #333333;" class="" y="604" x="639"/><text style="font-weight:Normal; font-size: 12px; text-anchor: middle; font-family: sans-serif; fill: #333333;" class="" y="596" x="598"/></g><g transform="translate(0,0)"><path style="fill:none;stroke:#333333;stroke-width:2;;" d="M728,608 826,607"/><text style="font-weight:Normal; font-size: 12px; text-anchor: middle; font-family: sans-serif; fill: #333333;" class="" y="593" x="812"/><text style="font-weight:Normal; font-size: 12px; text-anchor: start; font-family: sans-serif; fill: #333333;" class="" y="602" x="777"/><text style="font-weight:Normal; font-size: 12px; text-anchor: middle; font-family: sans-serif; fill: #333333;" class="" y="594" x="739"/></g><g transform="translate(0,0)"><g transform="matrix(1,0,0,1,258,502)"><path style="fill:none;stroke:#333333;stroke-width:3.0;;" d="m2.893985665879701,3.8324643917838785c5.351540759735495,-7.02888955216516 22.229206561091765,-4.136320513636482 23.05344484437219,6.613368051379058c0.8226420040648997,10.74927546311162 -8.233177296223921,16.538436365852387 -17.701904084636695,11.989810644824615c-9.46713050919725,-4.545409427632968 -10.09550631204509,-12.371211895498824 -5.351540759735495,-18.603178696203674z"/></g></g><g transform="translate(0,0)"><path style="fill:none;stroke:#333333;stroke-width:6;;" d="M287,509 335,365"/><text style="font-weight:Normal; font-size: 12px; text-anchor: middle; font-family: sans-serif; fill: #333333;" class="" y="371" x="317"/><text style="font-weight:Normal; font-size: 12px; text-anchor: start; font-family: sans-serif; fill: #333333;" class="" y="431" x="311"/><text style="font-weight:Normal; font-size: 12px; text-anchor: middle; font-family: sans-serif; fill: #333333;" class="" y="496" x="275"/></g><g transform="translate(0,0)"><g transform="matrix(1,0,0,1,329,334)"><path style="fill:none;stroke:#333333;stroke-width:3.0;;" d="m2.893985665879701,3.8324643917838785c5.351540759735495,-7.02888955216516 22.229206561091765,-4.136320513636482 23.05344484437219,6.613368051379058c0.8226420040648997,10.74927546311162 -8.233177296223921,16.538436365852387 -17.701904084636695,11.989810644824615c-9.46713050919725,-4.545409427632968 -10.09550631204509,-12.371211895498824 -5.351540759735495,-18.603178696203674z"/></g></g><g transform="translate(0,0)"><rect style="fill: #000000;fill-opacity: 0;stroke-opacity:0;stroke-width: 1;stroke:%stroke%;" rx="4" height="68" width="141" y="329" x="887"/><text style="font-weight:Normal; font-size: 12px; text-anchor: start; font-family: arial,helvetica,sans-serif; fill: #333333;" class="" y="350" x="887"><tspan x="887">None of these verifiers</tspan><tspan dy="17" x="887">can be used with </tspan><tspan font-weight="bold">V1</tspan><tspan> to</tspan><tspan dy="17" x="887">verify a future recruit.</tspan></text></g><text style="font-weight:Normal; font-size: 16px; text-anchor: end; font-family: Arial; fill: #ccc;" y="681" x="1028">www.sketchboard.io</text></svg>