<?xml version="1.0" encoding="UTF-8"?>
<svg width="44px" height="18px" viewBox="0 0 44 18" version="1.1" xmlns="http://www.w3.org/2000/svg" xmlns:xlink="http://www.w3.org/1999/xlink">
    <!-- Generator: Sketch 51.2 (57519) - http://www.bohemiancoding.com/sketch -->
    <title>noun_104682_cc</title>
    <desc>Created with Sketch.</desc>
    <defs></defs>
    <g id="Symbols" stroke="none" stroke-width="1" fill="none" fill-rule="evenodd">
        <g id="Tabs" transform="translate(-89.000000, -14.000000)" fill="#000000" fill-rule="nonzero">
            <g id="Group-7">
                <g id="Group-6">
                    <g id="noun_104682_cc" transform="translate(89.000000, 14.000000)">
                        <path d="M15.7807309,18 L3.15614618,18 C1.64119601,18 0,16.6402878 0,14.7625899 C0,13.5971223 1.89368771,12.4316547 2.27242525,12.2374101 L7.00664452,10.3597122 C7.25913621,10.294964 7.38538206,10.294964 7.38538206,9.97122302 C6.88039867,9.32374101 5.23920266,7.18705036 5.23920266,5.37410072 C5.23920266,2.39568345 7.19601329,0 9.65780731,0 C12.0564784,0 14.076412,2.39568345 14.076412,5.37410072 C14.076412,7.25179856 12.372093,9.38848921 11.8671096,10.0359712 C11.8671096,10.4244604 11.8671096,10.4244604 12.1196013,10.4892086 L16.8538206,12.3669065 L17.1063123,12.5611511 C18.179402,13.3381295 19,14.0503597 19,14.8273381 L19,14.9568345 C18.7475083,15.9280576 17.8637874,18 15.7807309,18 Z M7.32225914,11.5899281 L2.71428571,13.4676259 C2.20930233,13.6618705 1.3255814,14.5035971 1.26245847,14.7625899 C1.26245847,15.7985612 2.33554817,16.705036 3.15614618,16.705036 L15.7807309,16.705036 C17.1063123,16.705036 17.5481728,15.1510791 17.6744186,14.7625899 C17.5481728,14.5035971 16.6644518,13.8561151 16.3488372,13.5971223 L16.1594684,13.4676259 L11.6777409,11.7194245 C10.6046512,11.3309353 10.5415282,10.5539568 10.6046512,9.71223022 L10.6046512,9.51798561 L10.730897,9.38848921 C11.2990033,8.74100719 12.7508306,6.79856115 12.7508306,5.43884892 C12.7508306,3.23741007 11.2990033,1.35971223 9.59468439,1.35971223 C7.89036545,1.35971223 6.43853821,3.23741007 6.43853821,5.43884892 C6.43853821,6.79856115 7.82724252,8.74100719 8.39534884,9.38848921 L8.52159468,9.58273381 L8.52159468,9.77697842 C8.64784053,10.6834532 8.26910299,11.3309353 7.32225914,11.5899281 Z" id="Shape"></path>
                        <path d="M40.7807309,18 L28.1561462,18 C26.641196,18 25,16.6402878 25,14.7625899 C25,13.5971223 26.8936877,12.4316547 27.2724252,12.2374101 L32.0066445,10.3597122 C32.2591362,10.294964 32.3853821,10.294964 32.3853821,9.97122302 C31.8803987,9.32374101 30.2392027,7.18705036 30.2392027,5.37410072 C30.2392027,2.39568345 32.1960133,0 34.6578073,0 C37.0564784,0 39.076412,2.39568345 39.076412,5.37410072 C39.076412,7.25179856 37.372093,9.38848921 36.8671096,10.0359712 C36.8671096,10.4244604 36.8671096,10.4244604 37.1196013,10.4892086 L41.8538206,12.3669065 L42.1063123,12.5611511 C43.179402,13.3381295 44,14.0503597 44,14.8273381 L44,14.9568345 C43.7475083,15.9280576 42.8637874,18 40.7807309,18 Z M32.3222591,11.5899281 L27.7142857,13.4676259 C27.1461794,13.7266187 26.2624585,14.5035971 26.1993355,14.8273381 C26.1993355,15.8633094 27.2724252,16.7697842 28.0930233,16.7697842 L40.717608,16.7697842 C42.0431894,16.7697842 42.4850498,15.2158273 42.6112957,14.8273381 C42.4850498,14.5683453 41.6013289,13.9208633 41.2857143,13.6618705 L41.0963455,13.5323741 L36.6146179,11.7841727 C35.5415282,11.3956835 35.4784053,10.618705 35.5415282,9.77697842 L35.5415282,9.58273381 L35.6677741,9.45323741 C36.2358804,8.8057554 37.6877076,6.86330935 37.6877076,5.50359712 C37.6877076,3.30215827 36.2358804,1.42446043 34.5315615,1.42446043 C32.8272425,1.42446043 31.3754153,3.30215827 31.3754153,5.50359712 C31.3754153,6.86330935 32.7641196,8.8057554 33.3322259,9.45323741 L33.4584718,9.64748201 L33.4584718,9.84172662 C33.6478405,10.6834532 33.269103,11.3309353 32.3222591,11.5899281 Z" id="Shape"></path>
                        <g id="Group" transform="translate(17.000000, 5.000000)">
                            <rect id="Rectangle-path" x="1.25" y="2.4" width="8.75" height="1.2"></rect>
                            <polygon id="Shape" points="3.3125 5.82 0.375 3 3.3125 0.18 4.1875 1.02 2.125 3 4.1875 4.98"></polygon>
                        </g>
                    </g>
                </g>
            </g>
        </g>
    </g>
</svg>